<?xml version="1.0" encoding="UTF-8" standalone="no"?>
<!-- Created with Inkscape (http://www.inkscape.org/) -->

<svg
   id="svg2"
   viewBox="0 0 108 282.34"
   version="1.0"
   inkscape:version="1.1 (c68e22c387, 2021-05-23)"
   sodipodi:docname="Business_Desktop_High_End.svg"
   width="108"
   height="282.34"
   xmlns:inkscape="http://www.inkscape.org/namespaces/inkscape"
   xmlns:sodipodi="http://sodipodi.sourceforge.net/DTD/sodipodi-0.dtd"
   xmlns:xlink="http://www.w3.org/1999/xlink"
   xmlns="http://www.w3.org/2000/svg"
   xmlns:svg="http://www.w3.org/2000/svg"
   xmlns:rdf="http://www.w3.org/1999/02/22-rdf-syntax-ns#"
   xmlns:cc="http://creativecommons.org/ns#"
   xmlns:dc="http://purl.org/dc/elements/1.1/">
  <sodipodi:namedview
     id="namedview134"
     pagecolor="#505050"
     bordercolor="#eeeeee"
     borderopacity="1"
     inkscape:pageshadow="0"
     inkscape:pageopacity="0"
     inkscape:pagecheckerboard="0"
     showgrid="false"
     inkscape:zoom="2.8284271"
     inkscape:cx="-26.339728"
     inkscape:cy="138.41615"
     inkscape:window-width="1920"
     inkscape:window-height="1017"
     inkscape:window-x="-8"
     inkscape:window-y="-8"
     inkscape:window-maximized="1"
     inkscape:current-layer="svg2" />
  <defs
     id="defs5">
    <radialGradient
       id="radialGradient2980"
       fx="642.46997"
       fy="255.34"
       gradientUnits="userSpaceOnUse"
       cy="251.92999"
       cx="642.71002"
       gradientTransform="matrix(0.75919,0,0,0.78463,-429.55,-57.6462)"
       r="193.23"
       xlink:href="#radialGradient4805">
      <stop
         id="stop2988"
         style="stop-color:#cccccc"
         offset="0" />
      <stop
         id="stop2990"
         style="stop-color:#96989c;stop-opacity:0"
         offset="1" />
    </radialGradient>
    <linearGradient
       id="linearGradient4235"
       y2="3278.2"
       gradientUnits="userSpaceOnUse"
       x2="2144"
       gradientTransform="matrix(0.12822,0,0,0.099354,17.608,15.305)"
       y1="-154.41"
       x1="2144">
      <stop
         id="stop3014"
         style="stop-color:#44464a"
         offset="0" />
      <stop
         id="stop3016"
         style="stop-color:#e7e8ec"
         offset="1" />
    </linearGradient>
    <linearGradient
       id="linearGradient3367">
      <stop
         id="stop3369"
         style="stop-color:#b7b9c1"
         offset="0" />
      <stop
         id="stop3371"
         style="stop-color:#e4e5e8"
         offset=".32144" />
      <stop
         id="stop3373"
         style="stop-color:#fefefe"
         offset=".35744" />
      <stop
         id="stop3375"
         style="stop-color:#e8e9ec"
         offset=".46760" />
      <stop
         id="stop3377"
         style="stop-color:#e7e8ea"
         offset=".51943" />
      <stop
         id="stop3379"
         style="stop-color:#e4e4e9"
         offset=".68656" />
      <stop
         id="stop3381"
         style="stop-color:#c4c5ca"
         offset=".72827" />
      <stop
         id="stop3383"
         style="stop-color:#bfc0c5"
         offset=".83570" />
      <stop
         id="stop3385"
         style="stop-color:#b4b6ba"
         offset=".86141" />
      <stop
         id="stop3387"
         style="stop-color:#aeb0b7"
         offset="1" />
    </linearGradient>
    <text
       id="text3138"
       y="1298.8616"
       x="16216.638"
       xml:space="preserve"
       style="font-weight:bold;font-size:43.301px;line-height:0%;font-family:'Liberation Sans';text-align:center;letter-spacing:2;text-anchor:middle">       <tspan
   id="tspan3140"
   y="1298.8616"
   x="16216.638">SVG</tspan>    </text>
    <filter
       id="filter4964"
       y="-0.45850847"
       width="1.1710918"
       x="-0.085545895"
       height="1.9170169">
      <feGaussianBlur
         id="feGaussianBlur4966"
         stdDeviation="74.603147"
         inkscape:collect="always" />
    </filter>
    <filter
       id="filter3229"
       x="-0.071489364"
       y="-0.071489364"
       width="1.1429787"
       height="1.1429787">
      <feGaussianBlur
         id="feGaussianBlur3231"
         stdDeviation="0.66276596"
         inkscape:collect="always" />
    </filter>
    <filter
       id="filter3289"
       x="-0.045073352"
       y="-0.045073352"
       width="1.0901467"
       height="1.0901467">
      <feGaussianBlur
         id="feGaussianBlur3291"
         stdDeviation="0.33734043"
         inkscape:collect="always" />
    </filter>
    <filter
       id="filter3361"
       x="-0.040522476"
       y="-0.040522476"
       width="1.081045"
       height="1.081045">
      <feGaussianBlur
         id="feGaussianBlur3363"
         stdDeviation="0.28933336"
         inkscape:collect="always" />
    </filter>
    <filter
       id="filter3457"
       y="-0.12765956"
       x="-0.12765956"
       height="1.2553191"
       width="1.2553191">
      <feGaussianBlur
         id="feGaussianBlur3459"
         stdDeviation="1.1835106"
         inkscape:collect="always" />
    </filter>
    <filter
       id="filter3788"
       x="-0.035744682"
       y="-0.035744682"
       width="1.0714894"
       height="1.0714894">
      <feGaussianBlur
         id="feGaussianBlur3790"
         stdDeviation="0.33138298"
         inkscape:collect="always" />
    </filter>
    <filter
       id="filter3866"
       x="-0.043599699"
       y="-0.043599699"
       width="1.0871994"
       height="1.0871994">
      <feGaussianBlur
         id="feGaussianBlur3868"
         stdDeviation="0.29098054"
         inkscape:collect="always" />
    </filter>
    <filter
       id="filter4001"
       y="-0.19507782"
       x="-0.043247482"
       height="1.3901556"
       width="1.086495">
      <feGaussianBlur
         id="feGaussianBlur4003"
         stdDeviation="1.8242448"
         inkscape:collect="always" />
    </filter>
    <filter
       id="filter4075"
       x="-0.012220834"
       y="-0.020526089"
       width="1.0244417"
       height="1.0410522">
      <feGaussianBlur
         id="feGaussianBlur4077"
         stdDeviation="0.42548872"
         inkscape:collect="always" />
    </filter>
    <filter
       id="filter4377"
       x="-0.017995678"
       y="-0.015375719"
       width="1.0359914"
       height="1.0307514">
      <feGaussianBlur
         id="feGaussianBlur4379"
         stdDeviation="0.3362234"
         inkscape:collect="always" />
    </filter>
    <filter
       id="filter4581"
       y="-0.31438582"
       x="-0.0095165357"
       height="1.6287716"
       width="1.0190331">
      <feGaussianBlur
         id="feGaussianBlur4583"
         stdDeviation="0.254718"
         inkscape:collect="always" />
    </filter>
    <radialGradient
       id="radialGradient4805"
       fx="1369.2"
       fy="1309.4"
       gradientUnits="userSpaceOnUse"
       cy="2066.6001"
       cx="1380.3"
       gradientTransform="matrix(1.2938,0,0,0.24138,-604.25,1194)"
       r="758.02002">
      <stop
         id="stop3851"
         style="stop-color:#000000;stop-opacity:.33480"
         offset="0" />
      <stop
         id="stop3853"
         style="stop-color:#000000;stop-opacity:0"
         offset="1" />
    </radialGradient>
    <linearGradient
       id="linearGradient3013"
       y2="417.14001"
       gradientUnits="userSpaceOnUse"
       x2="815.96002"
       gradientTransform="translate(-636.47,-85.124)"
       y1="417.14001"
       x1="813.52002">
      <stop
         id="stop3606"
         style="stop-color:#44464c"
         offset="0" />
      <stop
         id="stop3608"
         style="stop-color:#1a1d22"
         offset="1" />
    </linearGradient>
    <linearGradient
       id="linearGradient3060"
       y2="150.81"
       gradientUnits="userSpaceOnUse"
       x2="717.82001"
       gradientTransform="translate(-512.03,-71.18)"
       y1="220.82001"
       x1="717.82001">
      <stop
         id="stop4367"
         style="stop-color:#2f3036"
         offset="0" />
      <stop
         id="stop4369"
         style="stop-color:#2f3036;stop-opacity:0"
         offset="1" />
    </linearGradient>
    <radialGradient
       id="radialGradient3063"
       fx="556.69"
       fy="294.84"
       gradientUnits="userSpaceOnUse"
       cy="294.12"
       cx="565.02002"
       gradientTransform="matrix(0,0.89124,-0.98387,-1.0416e-8,503.48,-313.26)"
       r="11.125">
      <stop
         id="stop3471"
         style="stop-color:#b1b4bc"
         offset="0" />
      <stop
         id="stop3473"
         style="stop-color:#1b1e23"
         offset="1" />
    </radialGradient>
    <radialGradient
       id="radialGradient3071"
       gradientUnits="userSpaceOnUse"
       cy="291.98001"
       cx="552.38"
       gradientTransform="matrix(1.0832,0,0,1.0832,-384.24,-95.515)"
       r="11.125">
      <stop
         id="stop3235"
         style="stop-color:#6b6f7a"
         offset="0" />
      <stop
         id="stop3257"
         style="stop-color:#7c808b"
         offset=".42909" />
      <stop
         id="stop3237"
         style="stop-color:#a3a7b2"
         offset="1" />
    </radialGradient>
    <radialGradient
       id="radialGradient3076"
       gradientUnits="userSpaceOnUse"
       cy="135.74001"
       cx="713.79999"
       gradientTransform="matrix(0.94738,0,0,5.6832,-460.52,-687.99)"
       r="46.459">
      <stop
         id="stop4349"
         style="stop-color:#24252b"
         offset="0" />
      <stop
         id="stop4351"
         style="stop-color:#1b1c21"
         offset="1" />
    </radialGradient>
    <linearGradient
       id="linearGradient3079"
       y2="130.61"
       xlink:href="#linearGradient3367"
       gradientUnits="userSpaceOnUse"
       x2="725.69"
       gradientTransform="translate(-512.03,-71.18)"
       y1="311.12"
       x1="725.69" />
    <linearGradient
       id="linearGradient3082"
       y2="362.35001"
       gradientUnits="userSpaceOnUse"
       x2="750.23999"
       gradientTransform="translate(-512.03,-71.18)"
       y1="354.45001"
       x1="750.23999">
      <stop
         id="stop3561"
         style="stop-color:#71757e"
         offset="0" />
      <stop
         id="stop3563"
         style="stop-color:#62656e"
         offset="1" />
    </linearGradient>
    <linearGradient
       id="linearGradient3085"
       y2="402.81"
       gradientUnits="userSpaceOnUse"
       x2="553.40997"
       gradientTransform="translate(-339.49,-71.18)"
       y1="125.46"
       x1="553.40997">
      <stop
         id="stop3616"
         style="stop-color:#848993"
         offset="0" />
      <stop
         id="stop3618"
         style="stop-color:#7f838e"
         offset=".32144" />
      <stop
         id="stop3620"
         style="stop-color:#a4a7b0"
         offset=".36004" />
      <stop
         id="stop3622"
         style="stop-color:#a2a5af"
         offset=".49917" />
      <stop
         id="stop3624"
         style="stop-color:#71757f"
         offset=".53619" />
      <stop
         id="stop3626"
         style="stop-color:#70747d"
         offset=".68656" />
      <stop
         id="stop3628"
         style="stop-color:#a1a1ab"
         offset=".71836" />
      <stop
         id="stop3630"
         style="stop-color:#a2a3ac"
         offset=".83570" />
      <stop
         id="stop3632"
         style="stop-color:#8e929d"
         offset=".85240" />
      <stop
         id="stop3634"
         style="stop-color:#a2a2ac"
         offset="1" />
    </linearGradient>
    <linearGradient
       id="linearGradient3088"
       y2="401.76999"
       xlink:href="#linearGradient3367"
       gradientUnits="userSpaceOnUse"
       x2="696.84998"
       gradientTransform="translate(-512.03,-71.18)"
       y1="123.41"
       x1="696.84998" />
    <linearGradient
       id="linearGradient3111"
       y2="295.28"
       gradientUnits="userSpaceOnUse"
       x2="553.78003"
       y1="286.66"
       x1="553.78003">
      <stop
         id="stop3872"
         style="stop-color:#ffffff"
         offset="0" />
      <stop
         id="stop3874"
         style="stop-color:#ffffff;stop-opacity:0"
         offset="1" />
    </linearGradient>
    <linearGradient
       id="linearGradient3113"
       y2="298.5"
       gradientUnits="userSpaceOnUse"
       x2="553.62"
       y1="282.60001"
       x1="553.62">
      <stop
         id="stop3311"
         style="stop-color:#ffffff"
         offset="0" />
      <stop
         id="stop3313"
         style="stop-color:#ffffff;stop-opacity:0"
         offset="1" />
    </linearGradient>
    <radialGradient
       id="radialGradient3115"
       gradientUnits="userSpaceOnUse"
       cy="304.72"
       cx="552.62"
       gradientTransform="matrix(0.6565,2.4836,-4.3496,1.1498,1515,-1422.3)"
       r="11.125">
      <stop
         id="stop3483"
         style="stop-color:#ffffff"
         offset="0" />
      <stop
         id="stop3485"
         style="stop-color:#ffffff;stop-opacity:0"
         offset="1" />
    </radialGradient>
    <linearGradient
       id="linearGradient3117"
       y2="1267.9"
       gradientUnits="userSpaceOnUse"
       x2="16223"
       y1="1300"
       x1="16223">
      <stop
         id="stop3297"
         style="stop-color:#32353c"
         offset="0" />
      <stop
         id="stop3299"
         style="stop-color:#2e313a"
         offset="1" />
    </linearGradient>
    <linearGradient
       id="linearGradient3119"
       y2="1297.7"
       gradientUnits="userSpaceOnUse"
       x2="16235"
       y1="1267.9"
       x1="16236">
      <stop
         id="stop3303"
         style="stop-color:#262931"
         offset="0" />
      <stop
         id="stop3305"
         style="stop-color:#31313c"
         offset="1" />
    </linearGradient>
    <radialGradient
       id="radialGradient3137"
       gradientUnits="userSpaceOnUse"
       cy="573.58002"
       cx="1813.6"
       gradientTransform="matrix(1.0185,0,0,0.4705,-37.595,285.68)"
       r="30.493999">
      <stop
         id="stop4095"
         style="stop-color:#a8acb5"
         offset="0" />
      <stop
         id="stop4097"
         style="stop-color:#a8acb5;stop-opacity:0"
         offset="1" />
    </radialGradient>
    <clipPath
       clipPathUnits="userSpaceOnUse"
       id="clipPath10349">
      <path
         style="fill:#f10606;fill-opacity:0.457831;stroke:none;stroke-width:1px;stroke-linecap:butt;stroke-linejoin:miter;stroke-opacity:1"
         d="m 169.93,52.23 88.12196,-0.0062 0.97347,0.05947 1.12044,0.169481 1.06026,0.330523 0.51681,0.20102 0.55866,0.241817 0.79899,0.426728 0.986,0.669646 0.95665,0.851418 0.59621,0.677302 0.43726,0.553747 0.47583,0.750754 0.42726,0.795376 0.37209,0.89869 0.21183,0.66218 0.18797,0.793035 0.0909,0.547933 0.0464,0.504923 0.0384,0.50558 8e-5,258.779957 -0.0109,0.32245 -0.0441,0.43853 -0.0719,0.56817 -0.13785,0.66466 -0.34393,1.15466 -0.18699,0.47103 -0.33466,0.68605 -0.39022,0.67841 -0.39586,0.57219 -0.24372,0.35598 -0.76716,0.85654 -0.72646,0.62065 -0.40003,0.33986 -0.48996,0.32723 -0.5862,0.35038 -0.59419,0.31237 -1.33622,0.5502 -2.20073,0.45085 -7.66307,-0.0502 -0.39327,3.03661 -0.0147,0.22769 -0.0479,0.18133 -0.0725,0.17749 -0.11856,0.17716 -0.2432,0.2432 -0.33337,0.16124 -0.2833,0.0564 -71.07431,-10e-4 -0.22585,-0.0285 -0.18651,-0.0607 -0.26895,-0.14824 -0.20192,-0.20498 -0.14812,-0.21642 -0.10232,-0.2494 -0.0388,-0.28519 -0.41876,-3.07671 h -7.35925 l -0.86341,-0.0675 -1.10625,-0.20911 -1.07926,-0.34402 -0.57487,-0.24504 -0.46393,-0.22039 -0.51848,-0.27827 -0.4731,-0.30184 -0.42425,-0.30376 -0.51336,-0.38427 -0.80945,-0.75549 -0.49037,-0.60089 -0.49446,-0.63352 -0.8027,-1.35583 -0.54638,-1.48399 -0.31029,-1.40979 -0.0607,-1.06578 -0.0199,-258.598761 0.0716,-1.04934 0.1607,-0.919473 0.22852,-0.863545 c 0.18606,-0.530619 0.39674,-1.024293 0.60765,-1.517636 l 0.62484,-1.06365 c 1.51505,-2.06238 2.4887,-2.450978 2.82845,-2.790292 l 1.08489,-0.591898 0.95179,-0.404976 0.80355,-0.270991 0.98032,-0.215521 0.97733,-0.11646 z"
         id="path10351"
         sodipodi:nodetypes="ccccccccccccccccccccccccccccccccccccccccccccccccccccccccccccccccccccccccccccccccccccccc"
         clip-path="none" />
    </clipPath>
    <radialGradient
       inkscape:collect="always"
       xlink:href="#radialGradient4805"
       id="radialGradient10479"
       gradientUnits="userSpaceOnUse"
       gradientTransform="matrix(1.2938,0,0,0.24138,-604.25,1194)"
       cx="1380.3"
       cy="2066.6001"
       fx="1369.2"
       fy="1309.4"
       r="758.02002" />
  </defs>
  <path
     id="backdrop"
     style="fill:url(#linearGradient4235);stroke:#333333;stroke-width:0.14957;stroke-linecap:round;stroke-linejoin:round;stroke-dashoffset:0.5"
     rx="19.93"
     ry="19.93"
     height="359.03"
     width="444.5"
     y="0.074784003"
     x="0.074784003"
     sodipodi:type="rect"
     clip-path="url(#clipPath10349)"
     d="M 20.004784,0.074784 H 424.64478 c 11.04122,0 19.93,8.8887801 19.93,19.93 V 339.17478 c 0,11.04122 -8.88878,19.93 -19.93,19.93 H 20.004784 c -11.0412199,0 -19.93,-8.88878 -19.93,-19.93 V 20.004784 c 0,-11.0412199 8.8887801,-19.93 19.93,-19.93 z"
     transform="translate(-159.91,-52.23)" />
  <path
     id="glow"
     style="opacity:0;fill:url(#radialGradient2980);fill-opacity:1;stroke-width:1.25;stroke-linecap:round;stroke-linejoin:round;stroke-dashoffset:0.5"
     d="m 228.09,140.02 c 0.02,96.88 -75.96,175.43 -169.7,175.43 -93.74,0 -169.72,-78.55 -169.7,-175.43 -0.018,-96.873 75.96,-175.42 169.7,-175.42 93.74,0 169.72,78.547 169.7,175.42 z" />
  <path
     id="shadow1"
     style="fill:url(#radialGradient10479);stroke-opacity:0;filter:url(#filter4964)"
     d="m 2228,1692.8 c 0,107.8 -468.5,195.3 -1046.5,195.3 -577.95,0 -1046.5,-87.5 -1046.5,-195.3 0.01,-107.8 468.55,-195.2 1046.5,-195.2 578,0 1046.5,87.4 1046.5,195.2 z"
     transform="matrix(0.089998,0,0,0.040173,-54.51,218.06)" />
  <g
     id="workstation"
     transform="translate(-159.91,-52.23)">
    <path
       id="rect3601"
       style="fill:url(#linearGradient3013);stroke-width:0.2;stroke-linecap:round;stroke-linejoin:round;stroke-dashoffset:0.5"
       d="m 177.94,328.21 h 71.95 c 0.68,0 1.23,0.55 1.23,1.24 l -0.53,3.9 c 0,0.67 -0.54,1.22 -1.22,1.22 h -70.92 c -0.67,0 -1.22,-0.55 -1.22,-1.22 l -0.53,-3.9 c 0,-0.69 0.55,-1.24 1.24,-1.24 z" />
    <rect
       id="rect3092"
       style="fill:#1d2025;stroke-width:1.25;stroke-linecap:round;stroke-linejoin:round;stroke-dashoffset:0.5"
       rx="10.02"
       ry="10.02"
       height="278.07999"
       width="108"
       y="52.23"
       x="159.91" />
    <path
       id="path3094"
       style="fill:url(#linearGradient3088);stroke-width:0.4;stroke-linecap:round;stroke-linejoin:round;stroke-dashoffset:0.5"
       d="m 169.93,52.23 h 87.96 c 5.55,0 10.02,4.469 10.02,10.021 v 32.255 32.254 26.25 c 0,5.79 -0.8,9.05 -2.05,13.3 l -8.63,30.93 c -0.62,3.65 -0.47,6.23 -0.81,11.45 v 29.22 c 0,4.72 0.09,7.41 0.94,10.36 l 7.86,27.01 c 1.36,4.67 2.69,9.48 2.69,14.35 v 30.66 c 0,5.55 -4.47,10.02 -10.02,10.02 h -87.96 c -5.55,0 -10.02,-4.47 -10.02,-10.02 v -30.66 c 0,-4.87 1.33,-9.68 2.69,-14.35 l 7.86,-27.01 c 0.89,-3.32 0.94,-5.52 0.94,-10.36 v -29.22 c 0.3,-5.44 0.14,-8.32 -0.81,-11.45 l -8.63,-30.93 c -1.26,-4.31 -2.05,-7.99 -2.05,-13.3 V 126.76 94.506 62.251 c 0,-5.552 4.47,-10.021 10.02,-10.021 z" />
    <path
       id="path3126"
       style="fill:url(#linearGradient3085);stroke-width:0.4;stroke-linecap:round;stroke-linejoin:round;stroke-dashoffset:0.5"
       d="m 169.94,53.789 c -4.7,0 -8.47,3.762 -8.47,8.469 v 32.25 32.252 26.25 c 0,5.15 0.76,8.63 2,12.87 v 0.03 l 8.63,30.91 c 1.01,3.32 1.17,6.44 0.87,11.88 0,0.03 0.01,0.05 0,0.09 v 29.12 c 0,4.85 -0.06,7.28 -1,10.75 v 0.04 l -7.87,27.03 c -1.36,4.65 -2.63,9.32 -2.63,13.9 v 30.66 c 0,4.71 3.77,8.47 8.47,8.47 h 87.94 c 4.71,0 8.47,-3.76 8.47,-8.47 v -30.66 c 0,-4.58 -1.27,-9.25 -2.63,-13.9 l -7.87,-27.03 c -0.91,-3.17 -1,-6.05 -1,-10.79 v -29.21 -0.1 c 0.34,-5.16 0.19,-7.8 0.84,-11.62 0.01,-0.06 0.02,-0.11 0.03,-0.16 l 8.63,-30.91 v -0.03 c 1.24,-4.21 2,-7.23 2,-12.87 V 126.76 94.508 62.258 c 0,-4.707 -3.76,-8.469 -8.47,-8.469 z" />
    <path
       id="path3096"
       style="fill:url(#linearGradient3082);stroke:#62656e;stroke-width:0.4;stroke-linecap:round;stroke-linejoin:round;stroke-dashoffset:0.5"
       d="m 180.35,259.76 h 67.49 c 2.58,0 5.36,2.13 6.27,4.55 l 5.89,17.97 c 0.54,1.62 0.79,3.36 0.79,5.07 l -0.1,30 c -0.01,2.5 -2.89,5.21 -5.39,5.21 h -82.4 c -2.37,0 -5.23,-2.41 -5.24,-4.77 l -0.18,-30.22 c -0.01,-1.78 0.16,-3.6 0.71,-5.29 l 5.9,-17.97 c 0.91,-2.42 3.68,-4.55 6.26,-4.55 z" />
    <path
       id="path4359"
       style="fill:url(#linearGradient3079);stroke-width:0.4;stroke-linecap:round;stroke-linejoin:round;stroke-dashoffset:0.5"
       d="m 171.47,61.07 c -1.41,0 -2.64,0.464 -3.47,1.344 -0.82,0.88 -1.21,2.119 -1.22,3.469 l -0.18,87.527 c -0.01,2.32 0.44,4.61 1,6.79 l 3.09,12.15 c 0.39,1.52 1.46,2.78 2.75,3.69 1.29,0.91 2.82,1.5 4.34,1.5 h 71.57 c 1.52,0 3.05,-0.59 4.34,-1.5 1.29,-0.91 2.36,-2.17 2.75,-3.69 l 3.09,-12.15 c 0.53,-2.09 1.07,-4.29 1.07,-6.57 l -0.1,-87.31 c 0,-1.41 -0.38,-2.712 -1.22,-3.687 -0.83,-0.975 -2.12,-1.563 -3.62,-1.563 z" />
    <path
       id="path3098"
       style="fill:url(#radialGradient3076);stroke-width:0.4;stroke-linecap:round;stroke-linejoin:round;stroke-dashoffset:0.5"
       d="m 177.79,176.68 h 71.56 c 2.58,0 5.62,-2.05 6.26,-4.55 l 3.09,-12.15 c 0.53,-2.08 1.03,-4.2 1.03,-6.33 l -0.11,-87.335 c 0,-2.499 -1.39,-4.367 -3.97,-4.367 h -84.17 c -2.44,0 -3.82,1.568 -3.82,3.932 l -0.18,87.55 c 0,2.2 0.41,4.41 0.95,6.55 l 3.09,12.15 c 0.64,2.5 3.69,4.55 6.27,4.55 z" />
    <path
       id="path3100"
       style="fill:#ffffff;stroke-width:0.4;stroke-linecap:round;stroke-linejoin:round;stroke-dashoffset:0.5;filter:url(#filter3229)"
       d="m 563.5,293.74 c 0,6.14 -4.98,11.12 -11.12,11.12 -6.15,0 -11.13,-4.98 -11.13,-11.12 0,-6.15 4.98,-11.13 11.13,-11.13 6.14,0 11.12,4.98 11.12,11.13 z"
       transform="matrix(1.0124,0,0,1.0124,-345.11,-74.813)" />
    <path
       id="path3259"
       style="fill:#0e0f14;stroke:#0e0f14;stroke-width:0.38653;stroke-linecap:round;stroke-linejoin:round;stroke-dashoffset:0.5;filter:url(#filter3289)"
       d="m 563.5,293.74 c 0,6.14 -4.98,11.12 -11.12,11.12 -6.15,0 -11.13,-4.98 -11.13,-11.12 0,-6.15 4.98,-11.13 11.13,-11.13 6.14,0 11.12,4.98 11.12,11.13 z"
       transform="matrix(0.94348,0,0,0.94348,-307.06,-54.577)" />
    <path
       id="path3102"
       style="fill:url(#radialGradient3071);stroke-width:0.4;stroke-linecap:round;stroke-linejoin:round;stroke-dashoffset:0.5"
       d="m 224.24,222.56 c 0,5.6 -4.54,10.14 -10.14,10.14 -5.6,0 -10.15,-4.54 -10.15,-10.14 0,-5.6 4.55,-10.14 10.15,-10.14 5.6,0 10.14,4.54 10.14,10.14 z" />
    <g
       id="g3104"
       transform="matrix(0.1536,0,0,0.1536,-2274.6,19.243)">
      <use
         id="use3106"
         style="fill:#8b909c;stroke:#acb0b9;stroke-width:3.2048;filter:url(#filter4001)"
         xlink:href="#text3138"
         transform="translate(-13.612,38.991)"
         height="1812"
         width="2400"
         y="0"
         x="0" />
      <use
         id="use3108"
         style="fill:url(#linearGradient3117);stroke:url(#linearGradient3119);stroke-width:1.5261"
         xlink:href="#text3138"
         transform="translate(-13.612,38.991)"
         height="1812"
         width="2400"
         y="0"
         x="0" />
    </g>
    <path
       id="path3120"
       style="fill:url(#radialGradient3115);stroke-width:0.43681;stroke-linecap:round;stroke-linejoin:round;stroke-dashoffset:0.5;filter:url(#filter3457)"
       d="m 563.5,293.74 c 0,6.14 -4.98,11.12 -11.12,11.12 -6.15,0 -11.13,-4.98 -11.13,-11.12 0,-6.15 4.98,-11.13 11.13,-11.13 6.14,0 11.12,4.98 11.12,11.13 z"
       transform="matrix(0.49759,0,0,0.49759,-60.757,40.399)" />
    <path
       id="path3656"
       style="fill:#000000;stroke-width:0.50027;stroke-linecap:round;stroke-linejoin:round;stroke-dashoffset:0.5;filter:url(#filter3788)"
       d="m 563.5,293.74 c 0,6.14 -4.98,11.12 -11.12,11.12 -6.15,0 -11.13,-4.98 -11.13,-11.12 0,-6.15 4.98,-11.13 11.13,-11.13 6.14,0 11.12,4.98 11.12,11.13 z"
       transform="matrix(0.42362,0,0,0.42362,-19.898,62.127)" />
    <path
       id="path3122"
       style="fill:url(#radialGradient3063);stroke-width:0.50027;stroke-linecap:round;stroke-linejoin:round;stroke-dashoffset:0.5"
       d="m 218.54,186.56 c 0,2.46 -1.99,4.45 -4.44,4.45 -2.46,0 -4.45,-1.99 -4.45,-4.45 0,-2.46 1.99,-4.45 4.45,-4.45 2.45,0 4.44,1.99 4.44,4.45 z" />
    <rect
       id="rect3124"
       style="fill:#101217;stroke:url(#linearGradient3060);stroke-linecap:round;stroke-linejoin:round;stroke-dashoffset:0.5;filter:url(#filter4377)"
       rx="0.63568002"
       ry="0.63568002"
       height="85"
       width="72.625"
       y="64.434998"
       x="177.50999" />
    <path
       id="path3307"
       style="fill:none;stroke:url(#linearGradient3113);stroke-width:0.41445;stroke-linecap:round;stroke-linejoin:round;stroke-dashoffset:0.5;filter:url(#filter3361)"
       d="m 563.5,293.74 c 0,6.14 -4.98,11.12 -11.12,11.12 -6.15,0 -11.13,-4.98 -11.13,-11.12 0,-6.15 4.98,-11.13 11.13,-11.13 6.14,0 11.12,4.98 11.12,11.13 z"
       transform="matrix(0.87992,0,0,0.87992,-271.95,-35.907)" />
    <path
       id="path4007"
       style="fill:#a8acb5;stroke-width:1.25;stroke-linecap:round;stroke-linejoin:round;stroke-dashoffset:0.5;filter:url(#filter4075)"
       d="m 180.1,266.7 h 67.64 c 1.19,0 1.86,1.01 2.15,2.19 l 0.75,2.57 c 0.34,1.39 -0.98,2.24 -2.2,2.24 H 179.4 c -1.22,0 -2.53,-0.87 -2.2,-2.24 l 0.75,-2.57 c 0.29,-1.18 0.96,-2.19 2.15,-2.19 z m -3.37,10.75 h 74.2 c 1.19,0 1.81,1.02 2.15,2.19 l 0.75,2.57 c 0.4,1.37 -0.98,2.24 -2.2,2.24 h -75.61 c -1.21,0 -2.59,-0.89 -2.19,-2.24 l 0.75,-2.57 c 0.33,-1.17 0.96,-2.19 2.15,-2.19 z m -2.52,32 h 79.28 c 1.18,0 2.14,0.96 2.14,2.15 v 2.71 c 0,1.19 -0.96,2.14 -2.14,2.14 h -79.28 c -1.18,0 -2.14,-0.95 -2.14,-2.14 v -2.71 c 0,-1.19 0.96,-2.15 2.14,-2.15 z m 0,-10.68 h 79.28 c 1.18,0 2.14,0.95 2.14,2.14 v 2.71 c 0,1.19 -0.96,2.15 -2.14,2.15 h -79.28 c -1.18,0 -2.14,-0.96 -2.14,-2.15 v -2.71 c 0,-1.19 0.96,-2.14 2.14,-2.14 z m 0,-10.63 h 79.28 c 1.18,0 2.14,0.96 2.14,2.15 V 293 c 0,1.18 -0.96,2.14 -2.14,2.14 h -79.28 c -1.18,0 -2.14,-0.96 -2.14,-2.14 v -2.71 c 0,-1.19 0.96,-2.15 2.14,-2.15 z" />
    <path
       id="path3082"
       style="fill:#1b1c21;stroke-width:1.25;stroke-linecap:round;stroke-linejoin:round;stroke-dashoffset:0.5"
       d="m 180.1,265.99 h 67.64 c 1.19,0 1.86,1.01 2.15,2.19 l 0.75,2.58 c 0.34,1.38 -0.98,2.23 -2.2,2.23 H 179.4 c -1.22,0 -2.53,-0.87 -2.2,-2.23 l 0.75,-2.58 c 0.29,-1.18 0.96,-2.19 2.15,-2.19 z" />
    <path
       id="path3084"
       style="fill:#1b1c21;stroke-width:1.25;stroke-linecap:round;stroke-linejoin:round;stroke-dashoffset:0.5"
       d="m 176.73,276.74 h 74.2 c 1.19,0 1.81,1.03 2.15,2.19 l 0.75,2.58 c 0.4,1.37 -0.98,2.23 -2.2,2.23 h -75.61 c -1.21,0 -2.59,-0.89 -2.19,-2.23 l 0.75,-2.58 c 0.33,-1.16 0.96,-2.19 2.15,-2.19 z" />
    <rect
       id="rect3086"
       style="fill:#1b1c21;stroke-width:1.25;stroke-linecap:round;stroke-linejoin:round;stroke-dashoffset:0.5"
       rx="2.1454"
       ry="2.1454"
       height="7"
       width="83.561996"
       y="308.75"
       x="172.07001" />
    <rect
       id="rect3088"
       style="fill:#1b1c21;stroke-width:1.25;stroke-linecap:round;stroke-linejoin:round;stroke-dashoffset:0.5"
       rx="2.1454"
       ry="2.1454"
       height="7"
       width="83.561996"
       y="298.06"
       x="172.07001" />
    <rect
       id="rect3090"
       style="fill:#1b1c21;stroke-width:1.25;stroke-linecap:round;stroke-linejoin:round;stroke-dashoffset:0.5"
       rx="2.1454"
       ry="2.1454"
       height="7"
       width="83.561996"
       y="287.42999"
       x="172.07001" />
    <path
       id="path3792"
       style="fill:none;stroke:url(#linearGradient3111);stroke-width:0.54348;stroke-linecap:round;stroke-linejoin:round;stroke-dashoffset:0.5;filter:url(#filter3866)"
       d="m 563.5,293.74 c 0,6.14 -4.98,11.12 -11.12,11.12 -6.15,0 -11.13,-4.98 -11.13,-11.12 0,-6.15 4.98,-11.13 11.13,-11.13 6.14,0 11.12,4.98 11.12,11.13 z"
       transform="matrix(0.368,0,0,0.368,10.822,78.463)" />
    <rect
       id="rect4133"
       style="opacity:0.20264;fill:url(#radialGradient3137);stroke-width:0.5;stroke-linecap:round;stroke-linejoin:round;stroke-dashoffset:0.5;filter:url(#filter4581)"
       transform="matrix(1,0,0,0.81818,-1595.8,-388.05)"
       rx="2.1454"
       ry="0.97226"
       height="1.9445"
       width="64.237999"
       y="554.58002"
       x="1779.1" />
    <use
       id="use4166"
       xlink:href="#rect4133"
       transform="translate(0,22.097)"
       height="1"
       width="1"
       y="0"
       x="0" />
    <use
       id="use4168"
       xlink:href="#rect4133"
       transform="translate(0,43.31)"
       height="1"
       width="1"
       y="0"
       x="0" />
    <use
       id="use4164"
       xlink:href="#rect4133"
       transform="translate(0,65.407)"
       height="463.36414"
       width="595.92938"
       y="0"
       x="0" />
    <path
       id="path3638"
       style="fill:none;stroke:#212227;stroke-width:0.5;stroke-linecap:round;stroke-linejoin:round;stroke-dashoffset:0.5"
       d="m 215.03,185.4 c 0.09,0.06 0.17,0.13 0.25,0.2 0.3,0.31 0.49,0.72 0.49,1.18 0,0.93 -0.75,1.68 -1.67,1.68 -0.93,0 -1.68,-0.75 -1.68,-1.68 0,-0.46 0.19,-0.87 0.49,-1.18 0.08,-0.07 0.16,-0.14 0.25,-0.2 m 0.94,-0.74 v 2.2" />
  </g>
  <metadata
     id="metadata131">
    <rdf:RDF>
      <cc:Work>
        <dc:format>image/svg+xml</dc:format>
        <dc:type
           rdf:resource="http://purl.org/dc/dcmitype/StillImage" />
        <cc:license
           rdf:resource="http://creativecommons.org/licenses/publicdomain/" />
        <dc:publisher>
          <cc:Agent
             rdf:about="http://openclipart.org/">
            <dc:title>Openclipart</dc:title>
          </cc:Agent>
        </dc:publisher>
        <dc:title>Dell Precision Workstation</dc:title>
        <dc:date>2007-07-20T04:28:17</dc:date>
        <dc:description />
        <dc:source>https://openclipart.org/detail/4506/dell-precision-workstation-by-andy</dc:source>
        <dc:creator>
          <cc:Agent>
            <dc:title>Andy</dc:title>
          </cc:Agent>
        </dc:creator>
        <dc:subject>
          <rdf:Bag>
            <rdf:li>computer</rdf:li>
            <rdf:li>dell</rdf:li>
            <rdf:li>desktop</rdf:li>
            <rdf:li>precision</rdf:li>
            <rdf:li>workstation</rdf:li>
          </rdf:Bag>
        </dc:subject>
      </cc:Work>
      <cc:License
         rdf:about="http://creativecommons.org/licenses/publicdomain/">
        <cc:permits
           rdf:resource="http://creativecommons.org/ns#Reproduction" />
        <cc:permits
           rdf:resource="http://creativecommons.org/ns#Distribution" />
        <cc:permits
           rdf:resource="http://creativecommons.org/ns#DerivativeWorks" />
      </cc:License>
    </rdf:RDF>
  </metadata>
</svg>
