<?xml version="1.0" encoding="UTF-8" standalone="no"?>
<!-- Created with Inkscape (http://www.inkscape.org/) -->

<svg
   id="svg2"
   sodipodi:docname="Console_Server_Serial_Port.svg"
   viewBox="0 0 46 29"
   version="1.1"
   inkscape:version="1.1 (c68e22c387, 2021-05-23)"
   width="46"
   height="29"
   xmlns:inkscape="http://www.inkscape.org/namespaces/inkscape"
   xmlns:sodipodi="http://sodipodi.sourceforge.net/DTD/sodipodi-0.dtd"
   xmlns="http://www.w3.org/2000/svg"
   xmlns:svg="http://www.w3.org/2000/svg"
   xmlns:rdf="http://www.w3.org/1999/02/22-rdf-syntax-ns#"
   xmlns:cc="http://creativecommons.org/ns#"
   xmlns:dc="http://purl.org/dc/elements/1.1/">
  <defs
     id="defs4">
    <inkscape:path-effect
       effect="powerclip"
       id="path-effect1661"
       is_visible="true"
       lpeversion="1"
       inverse="true"
       flatten="false"
       hide_clip="false"
       message="Use fill-rule evenodd on &lt;b&gt;fill and stroke&lt;/b&gt; dialog if no flatten result after convert clip to paths." />
    <clipPath
       clipPathUnits="userSpaceOnUse"
       id="clipPath1657">
      <path
         id="path1659"
         style="color:#000000;display:none;fill:#ffffff;fill-opacity:1;fill-rule:evenodd"
         d="m 21.5,1031.9 c 0,0.8284 -0.67157,1.5 -1.5,1.5 -0.82843,0 -1.5,-0.6716 -1.5,-1.5 0,-0.8284 0.67157,-1.5 1.5,-1.5 0.82843,0 1.5,0.6716 1.5,1.5 z m 4,0 c 0,0.8284 -0.67157,1.5 -1.5,1.5 -0.82843,0 -1.5,-0.6716 -1.5,-1.5 0,-0.8284 0.67157,-1.5 1.5,-1.5 0.82843,0 1.5,0.6716 1.5,1.5 z m 4,0 c 0,0.8284 -0.67157,1.5 -1.5,1.5 -0.82843,0 -1.5,-0.6716 -1.5,-1.5 0,-0.8284 0.67157,-1.5 1.5,-1.5 0.82843,0 1.5,0.6716 1.5,1.5 z m 4,0 c 0,0.8284 -0.67157,1.5 -1.5,1.5 -0.82843,0 -1.5,-0.6716 -1.5,-1.5 0,-0.8284 0.67157,-1.5 1.5,-1.5 0.82843,0 1.5,0.6716 1.5,1.5 z m -16,0 c 0,0.8284 -0.67157,1.5 -1.5,1.5 -0.82843,0 -1.5,-0.6716 -1.5,-1.5 0,-0.8284 0.67157,-1.5 1.5,-1.5 0.82843,0 1.5,0.6716 1.5,1.5 z m 14,4 c 0,0.8284 -0.67157,1.5 -1.5,1.5 -0.82843,0 -1.5,-0.6716 -1.5,-1.5 0,-0.8284 0.67157,-1.5 1.5,-1.5 0.82843,0 1.5,0.6716 1.5,1.5 z m -4,0 c 0,0.8284 -0.67157,1.5 -1.5,1.5 -0.82843,0 -1.5,-0.6716 -1.5,-1.5 0,-0.8284 0.67157,-1.5 1.5,-1.5 0.82843,0 1.5,0.6716 1.5,1.5 z m -4,0 c 0,0.8284 -0.67157,1.5 -1.5,1.5 -0.82843,0 -1.5,-0.6716 -1.5,-1.5 0,-0.8284 0.67157,-1.5 1.5,-1.5 0.82843,0 1.5,0.6716 1.5,1.5 z m -4,0 c 0,0.8284 -0.67157,1.5 -1.5,1.5 -0.82843,0 -1.5,-0.6716 -1.5,-1.5 0,-0.8284 0.67157,-1.5 1.5,-1.5 0.82843,0 1.5,0.6716 1.5,1.5 z" />
      <path
         id="lpe_path-effect1661"
         style="color:#000000;fill:#ffffff;fill-opacity:1;fill-rule:evenodd"
         class="powerclip"
         d="m -4,1007.4 h 56 v 39 H -4 Z m 25.5,24.5 c 0,-0.8284 -0.67157,-1.5 -1.5,-1.5 -0.82843,0 -1.5,0.6716 -1.5,1.5 0,0.8284 0.67157,1.5 1.5,1.5 0.82843,0 1.5,-0.6716 1.5,-1.5 z m 4,0 c 0,-0.8284 -0.67157,-1.5 -1.5,-1.5 -0.82843,0 -1.5,0.6716 -1.5,1.5 0,0.8284 0.67157,1.5 1.5,1.5 0.82843,0 1.5,-0.6716 1.5,-1.5 z m 4,0 c 0,-0.8284 -0.67157,-1.5 -1.5,-1.5 -0.82843,0 -1.5,0.6716 -1.5,1.5 0,0.8284 0.67157,1.5 1.5,1.5 0.82843,0 1.5,-0.6716 1.5,-1.5 z m 4,0 c 0,-0.8284 -0.67157,-1.5 -1.5,-1.5 -0.82843,0 -1.5,0.6716 -1.5,1.5 0,0.8284 0.67157,1.5 1.5,1.5 0.82843,0 1.5,-0.6716 1.5,-1.5 z m -16,0 c 0,-0.8284 -0.67157,-1.5 -1.5,-1.5 -0.82843,0 -1.5,0.6716 -1.5,1.5 0,0.8284 0.67157,1.5 1.5,1.5 0.82843,0 1.5,-0.6716 1.5,-1.5 z m 14,4 c 0,-0.8284 -0.67157,-1.5 -1.5,-1.5 -0.82843,0 -1.5,0.6716 -1.5,1.5 0,0.8284 0.67157,1.5 1.5,1.5 0.82843,0 1.5,-0.6716 1.5,-1.5 z m -4,0 c 0,-0.8284 -0.67157,-1.5 -1.5,-1.5 -0.82843,0 -1.5,0.6716 -1.5,1.5 0,0.8284 0.67157,1.5 1.5,1.5 0.82843,0 1.5,-0.6716 1.5,-1.5 z m -4,0 c 0,-0.8284 -0.67157,-1.5 -1.5,-1.5 -0.82843,0 -1.5,0.6716 -1.5,1.5 0,0.8284 0.67157,1.5 1.5,1.5 0.82843,0 1.5,-0.6716 1.5,-1.5 z m -4,0 c 0,-0.8284 -0.67157,-1.5 -1.5,-1.5 -0.82843,0 -1.5,0.6716 -1.5,1.5 0,0.8284 0.67157,1.5 1.5,1.5 0.82843,0 1.5,-0.6716 1.5,-1.5 z" />
    </clipPath>
  </defs>
  <sodipodi:namedview
     id="base"
     bordercolor="#666666"
     inkscape:pageshadow="2"
     inkscape:window-y="-8"
     pagecolor="#ffffff"
     inkscape:snap-intersection-paths="true"
     inkscape:snap-smooth-nodes="true"
     inkscape:window-maximized="1"
     inkscape:zoom="11.313708"
     inkscape:window-x="-8"
     inkscape:window-height="1017"
     showgrid="true"
     borderopacity="1.0"
     inkscape:current-layer="layer1"
     inkscape:cx="35.311145"
     inkscape:cy="13.567611"
     inkscape:object-nodes="true"
     inkscape:window-width="1920"
     inkscape:object-paths="true"
     inkscape:pageopacity="0.0"
     inkscape:document-units="px"
     inkscape:pagecheckerboard="true"
     fit-margin-top="0"
     fit-margin-left="0"
     fit-margin-right="0"
     fit-margin-bottom="0">
    <inkscape:grid
       id="grid2985"
       enabled="true"
       visible="true"
       snapvisiblegridlinesonly="true"
       type="xygrid"
       empspacing="5"
       originx="-1"
       originy="-8" />
  </sodipodi:namedview>
  <g
     id="layer1"
     inkscape:label="Layer 1"
     inkscape:groupmode="layer"
     transform="translate(-1,-1012.4)">
    <g
       id="g1636"
       clip-path="url(#clipPath1657)"
       inkscape:path-effect="#path-effect1661">
      <path
         id="rect2987"
         sodipodi:nodetypes="sssssssss"
         style="color:#000000;fill:#919191;fill-opacity:1;fill-rule:evenodd"
         inkscape:connector-curvature="0"
         d="m 12,1026.4 h 24 c 1.662,0 3.3606,1.3776 3,3 l -2,9 c -0.36054,1.6224 -1.338,3 -3,3 H 14 c -1.662,0 -2.6395,-1.3776 -3,-3 l -2,-9 c -0.36054,-1.6224 1.338,-3 3,-3 z"
         inkscape:original-d="m 12,1026.4 h 24 c 1.662,0 3.3606,1.3776 3,3 l -2,9 c -0.36054,1.6224 -1.338,3 -3,3 H 14 c -1.662,0 -2.6395,-1.3776 -3,-3 l -2,-9 c -0.36054,-1.6224 1.338,-3 3,-3 z" />
      <path
         id="path2992"
         style="fill:#666666"
         inkscape:connector-curvature="0"
         d="m 3,1030.4 -2,3 2,3 h 3 l 2,-3 -2,-3 z m 1.5,1.5 c 0.82843,0 1.5,0.6716 1.5,1.5 0,0.8284 -0.67157,1.5 -1.5,1.5 -0.82843,0 -1.5,-0.6716 -1.5,-1.5 0,-0.8284 0.67157,-1.5 1.5,-1.5 z"
         inkscape:original-d="m 3,1030.4 -2,3 2,3 h 3 l 2,-3 -2,-3 z m 1.5,1.5 c 0.82843,0 1.5,0.6716 1.5,1.5 0,0.8284 -0.67157,1.5 -1.5,1.5 -0.82843,0 -1.5,-0.6716 -1.5,-1.5 0,-0.8284 0.67157,-1.5 1.5,-1.5 z" />
      <path
         id="path2997"
         d="m 13,1027.4 h 22 c 1.662,0 3.4566,1.402 3,3 l -2,7 c -0.45658,1.598 -1.338,3 -3,3 H 15 c -1.662,0 -2.5434,-1.402 -3,-3 l -2,-7 c -0.45658,-1.598 1.338,-3 3,-3 z"
         sodipodi:nodetypes="sssssssss"
         style="color:#000000;fill:#000000;fill-opacity:1;fill-rule:evenodd"
         inkscape:connector-curvature="0"
         inkscape:original-d="m 13,1027.4 h 22 c 1.662,0 3.4566,1.402 3,3 l -2,7 c -0.45658,1.598 -1.338,3 -3,3 H 15 c -1.662,0 -2.5434,-1.402 -3,-3 l -2,-7 c -0.45658,-1.598 1.338,-3 3,-3 z" />
      <path
         id="path3868"
         style="fill:#666666"
         inkscape:connector-curvature="0"
         d="m 42,1030.4 -2,3 2,3 h 3 l 2,-3 -2,-3 z m 1.5,1.5 c 0.82843,0 1.5,0.6716 1.5,1.5 0,0.8284 -0.67157,1.5 -1.5,1.5 -0.82843,0 -1.5,-0.6716 -1.5,-1.5 0,-0.8284 0.67157,-1.5 1.5,-1.5 z"
         inkscape:original-d="m 42,1030.4 -2,3 2,3 h 3 l 2,-3 -2,-3 z m 1.5,1.5 c 0.82843,0 1.5,0.6716 1.5,1.5 0,0.8284 -0.67157,1.5 -1.5,1.5 -0.82843,0 -1.5,-0.6716 -1.5,-1.5 0,-0.8284 0.67157,-1.5 1.5,-1.5 z" />
      <path
         id="rect4172"
         style="color:#000000;fill:#2d2d2d;fill-rule:evenodd"
         d="m 33,1012.4 h 1 v 7 h -1 z m -20,0 h 1 v 7 h -1 z m 15.5,0 c -1.933,0 -3.5,1.567 -3.5,3.5 0,1.933 1.567,3.5 3.5,3.5 1.933,0 3.5,-1.567 3.5,-3.5 0,-1.933 -1.567,-3.5 -3.5,-3.5 z m 0,1 c 1.3807,0 2.5,1.1193 2.5,2.5 0,1.3807 -1.1193,2.5 -2.5,2.5 -1.3807,0 -2.5,-1.1193 -2.5,-2.5 0,-1.3807 1.1193,-2.5 2.5,-2.5 z m -5.5,-1 h 1 v 7 h -1 z m -4.5,0 c -1.933,0 -3.5,1.567 -3.5,3.5 0,1.933 1.567,3.5 3.5,3.5 1.933,0 3.5,-1.567 3.5,-3.5 0,-1.933 -1.567,-3.5 -3.5,-3.5 z m 0,1 c 1.3807,0 2.5,1.1193 2.5,2.5 0,1.3807 -1.1193,2.5 -2.5,2.5 -1.3807,0 -2.5,-1.1193 -2.5,-2.5 0,-1.3807 1.1193,-2.5 2.5,-2.5 z"
         inkscape:original-d="m 33,1012.4 h 1 v 7 h -1 z m -20,0 h 1 v 7 h -1 z m 15.5,0 c -1.933,0 -3.5,1.567 -3.5,3.5 0,1.933 1.567,3.5 3.5,3.5 1.933,0 3.5,-1.567 3.5,-3.5 0,-1.933 -1.567,-3.5 -3.5,-3.5 z m 0,1 c 1.3807,0 2.5,1.1193 2.5,2.5 0,1.3807 -1.1193,2.5 -2.5,2.5 -1.3807,0 -2.5,-1.1193 -2.5,-2.5 0,-1.3807 1.1193,-2.5 2.5,-2.5 z m -5.5,-1 h 1 v 7 h -1 z m -4.5,0 c -1.933,0 -3.5,1.567 -3.5,3.5 0,1.933 1.567,3.5 3.5,3.5 1.933,0 3.5,-1.567 3.5,-3.5 0,-1.933 -1.567,-3.5 -3.5,-3.5 z m 0,1 c 1.3807,0 2.5,1.1193 2.5,2.5 0,1.3807 -1.1193,2.5 -2.5,2.5 -1.3807,0 -2.5,-1.1193 -2.5,-2.5 0,-1.3807 1.1193,-2.5 2.5,-2.5 z" />
    </g>
  </g>
  <metadata
     id="metadata1332">
    <rdf:RDF>
      <cc:Work>
        <dc:format>image/svg+xml</dc:format>
        <dc:type
           rdf:resource="http://purl.org/dc/dcmitype/StillImage" />
        <cc:license
           rdf:resource="http://creativecommons.org/publicdomain/zero/1.0/" />
        <dc:publisher>
          <cc:Agent
             rdf:about="http://openclipart.org/">
            <dc:title>Openclipart</dc:title>
          </cc:Agent>
        </dc:publisher>
      </cc:Work>
      <cc:License
         rdf:about="http://creativecommons.org/publicdomain/zero/1.0/">
        <cc:permits
           rdf:resource="http://creativecommons.org/ns#Reproduction" />
        <cc:permits
           rdf:resource="http://creativecommons.org/ns#Distribution" />
        <cc:permits
           rdf:resource="http://creativecommons.org/ns#DerivativeWorks" />
      </cc:License>
    </rdf:RDF>
  </metadata>
</svg>
