<?xml version="1.0" encoding="UTF-8" standalone="no"?>
<!-- Created with Inkscape (http://www.inkscape.org/) -->

<svg
   id="svg11525"
   sodipodi:docname="Docker_Host.svg"
   viewBox="0 0 233.1 286.61"
   version="1.1"
   inkscape:version="1.1 (c68e22c387, 2021-05-23)"
   xmlns:inkscape="http://www.inkscape.org/namespaces/inkscape"
   xmlns:sodipodi="http://sodipodi.sourceforge.net/DTD/sodipodi-0.dtd"
   xmlns:xlink="http://www.w3.org/1999/xlink"
   xmlns="http://www.w3.org/2000/svg"
   xmlns:svg="http://www.w3.org/2000/svg"
   xmlns:rdf="http://www.w3.org/1999/02/22-rdf-syntax-ns#"
   xmlns:cc="http://creativecommons.org/ns#"
   xmlns:dc="http://purl.org/dc/elements/1.1/">
  <defs
     id="defs11527">
    <linearGradient
       id="linearGradient6035-4">
      <stop
         id="stop6037-2"
         style="stop-color:#ffffff"
         offset="0" />
      <stop
         id="stop6039-9"
         style="stop-color:#ffffff;stop-opacity:0"
         offset="1" />
    </linearGradient>
    <linearGradient
       id="linearGradient11807"
       y2="520.33"
       xlink:href="#linearGradient6035-4"
       spreadMethod="reflect"
       gradientUnits="userSpaceOnUse"
       x2="327.78"
       gradientTransform="matrix(3.4431327,0,0,12.349621,-573.40148,-5755.0139)"
       y1="522.61"
       x1="308.5"
       inkscape:collect="always" />
    <linearGradient
       id="linearGradient1721"
       y2="92.300003"
       gradientUnits="userSpaceOnUse"
       x2="71.061996"
       gradientTransform="matrix(1.2589,0,0,0.79432,798.45768,670.88393)"
       y1="-9.3579998"
       x1="88.238998">
      <stop
         id="stop1723"
         style="stop-color:#ffffff"
         offset="0" />
      <stop
         id="stop1724"
         style="stop-color:#ffffff;stop-opacity:0"
         offset="1" />
    </linearGradient>
    <linearGradient
       id="linearGradient3046"
       y2="127.55"
       gradientUnits="userSpaceOnUse"
       x2="63.868999"
       gradientTransform="matrix(1.2708,0,0,0.78691,798.45768,670.88393)"
       y1="41.474998"
       x1="65.257004">
      <stop
         id="stop1545"
         style="stop-color:#314e6c"
         offset="0" />
      <stop
         id="stop1547"
         style="stop-color:#7590ae"
         offset=".55" />
      <stop
         id="stop1546"
         style="stop-color:#9db8d2"
         offset="1" />
    </linearGradient>
    <linearGradient
       id="linearGradient3045"
       y2="115.93"
       gradientUnits="userSpaceOnUse"
       x2="64.209999"
       gradientTransform="matrix(1.2708,0,0,0.78691,798.45768,670.88393)"
       y1="-75.666"
       x1="80.622002">
      <stop
         id="stop1519"
         style="stop-color:#000000;stop-opacity:.70056"
         offset="0" />
      <stop
         id="stop1520"
         style="stop-color:#000000;stop-opacity:0"
         offset="1" />
    </linearGradient>
    <linearGradient
       id="linearGradient1537"
       y2="-8.9209995"
       gradientUnits="userSpaceOnUse"
       x2="72.742996"
       gradientTransform="matrix(1.206,0,0,0.82917,798.45768,670.88393)"
       y1="388.45999"
       x1="60.807999">
      <stop
         id="stop1512"
         style="stop-color:#565248"
         offset="0" />
      <stop
         id="stop1513"
         style="stop-color:#fff"
         offset="1" />
    </linearGradient>
    <radialGradient
       gradientTransform="matrix(1.3811,0,0,0.53101,838.45978,670.22593)"
       id="radialGradient1523"
       fx="23.93"
       fy="143.24001"
       xlink:href="#linearGradient1806"
       gradientUnits="userSpaceOnUse"
       cy="176.56"
       cx="24.825001"
       r="51.667" />
    <linearGradient
       id="linearGradient1806">
      <stop
         id="stop1807"
         style="stop-color:#000000;stop-opacity:.40784"
         offset="0" />
      <stop
         id="stop3276"
         style="stop-color:#000000;stop-opacity:.079096"
         offset=".64778" />
      <stop
         id="stop1808"
         style="stop-color:#000000;stop-opacity:0"
         offset="1" />
    </linearGradient>
    <radialGradient
       gradientTransform="matrix(0.68656434,0,0,0.2598959,154.54664,469.97861)"
       id="radialGradient1523-3"
       fx="23.93"
       fy="143.24001"
       xlink:href="#linearGradient1806"
       gradientUnits="userSpaceOnUse"
       cy="176.56"
       cx="24.825001"
       r="51.667" />
    <radialGradient
       gradientTransform="matrix(1.3811,0,0,0.53101,838.45978,670.22593)"
       id="radialGradient1523-6"
       fx="23.93"
       fy="143.24001"
       xlink:href="#linearGradient1806"
       gradientUnits="userSpaceOnUse"
       cy="176.56"
       cx="24.825001"
       r="51.667" />
    <radialGradient
       gradientTransform="matrix(1.3811,0,0,0.53101,838.45978,670.22593)"
       id="radialGradient1523-3-1"
       fx="23.93"
       fy="143.24001"
       xlink:href="#linearGradient1806"
       gradientUnits="userSpaceOnUse"
       cy="176.56"
       cx="24.825001"
       r="51.667" />
    <radialGradient
       gradientTransform="matrix(1.3811,0,0,0.53101,838.45978,670.22593)"
       id="radialGradient1523-3-0"
       fx="23.93"
       fy="143.24001"
       xlink:href="#linearGradient1806"
       gradientUnits="userSpaceOnUse"
       cy="176.56"
       cx="24.825001"
       r="51.667" />
    <radialGradient
       gradientTransform="matrix(1.3811,0,0,0.53101,838.45978,670.22593)"
       id="radialGradient1523-6-4"
       fx="23.93"
       fy="143.24001"
       xlink:href="#linearGradient1806"
       gradientUnits="userSpaceOnUse"
       cy="176.56"
       cx="24.825001"
       r="51.667" />
    <linearGradient
       id="linearGradient11807-7"
       y2="520.33002"
       xlink:href="#linearGradient6035-4"
       spreadMethod="reflect"
       gradientUnits="userSpaceOnUse"
       x2="327.78"
       gradientTransform="matrix(3.4431327,0,0,-11.05878,-573.67111,6364.3071)"
       y1="522.60999"
       x1="308.5"
       inkscape:collect="always" />
  </defs>
  <sodipodi:namedview
     id="base"
     bordercolor="#666666"
     inkscape:pageshadow="2"
     inkscape:window-y="-8"
     fit-margin-left="0"
     pagecolor="#ffffff"
     fit-margin-top="0"
     inkscape:window-maximized="1"
     inkscape:zoom="1.4"
     inkscape:window-x="-8"
     inkscape:window-height="1017"
     showgrid="false"
     borderopacity="1.0"
     inkscape:current-layer="layer1"
     inkscape:cx="263.92857"
     inkscape:cy="153.92857"
     fit-margin-right="0"
     fit-margin-bottom="0"
     inkscape:window-width="1920"
     inkscape:pageopacity="0.0"
     inkscape:document-units="px"
     inkscape:pagecheckerboard="true" />
  <g
     id="layer1"
     inkscape:label="Layer 1"
     inkscape:groupmode="layer"
     transform="translate(-331.39 -429.06)">
    <g
       transform="matrix(1.1196,0,0,1.1196,-122.82057,267.39056)"
       inkscape:label="Capa 1"
       id="layer1-3-5-2">
      <g
         class="Graphic"
         transform="matrix(0.0423,0,0,0.0423,319.39,59.128)"
         id="g10-5-2">
        <g
           id="g12-4-2">
          <g
             style="fill:#c7c7c7"
             id="g14-64-0">
            <path
               d="m 5903,2361 c 50,82 34,3995 -31,4149 -51,122 -1703,1495 -1789,1531 -1117,-7 -1870,-414 -1995,-629 -48,-270 -7,-4433 38,-4520 40,-76 2153,-833 2227,-851 67,-15 1493,229 1550,320 z"
               inkscape:connector-curvature="0"
               id="path16-1-5" />
          </g>
          <g
             style="fill:#000000"
             id="g18-6-5">
            <path
               d="m 5881,2374 2,-1 -2,2 c 0,-1 -1,-1 -1,-1 l 0,-2 7,-3 -2,2 -5,1 5,-1 -2,2 -2,1 z m 2,-1 2,-2 2,-2 5,-2 -5,4 5,-4 1,0 -6,3 0,1 0,-1 -4,3 z m 10,-6 -1,0 1,0 -1,0 11,-6 -10,5 0,1 z m 11,-4 -11,4 0,-1 11,-3 z m 20,-15 c -2,-3 -4,-6 -7,-9 -2,-3 -5,-5 -8,-7 -5,-4 -12,-8 -20,-12 -7,-4 -15,-7 -24,-11 -9,-4 -19,-7 -30,-11 -21,-8 -47,-16 -75,-24 -29,-8 -61,-16 -95,-25 -136,-34 -313,-72 -494,-106 -181,-35 -364,-66 -511,-90 -73,-11 -138,-21 -189,-27 -25,-3 -47,-6 -65,-8 -9,-1 -17,-1 -24,-2 -4,0 -7,0 -10,-1 l -9,0 c -3,0 -5,0 -7,1 l -4,0 c -2,0 -3,0 -4,1 -2,0 -4,1 -7,2 -2,0 -5,1 -8,2 -3,1 -7,2 -11,3 -4,2 -8,3 -13,5 -10,3 -22,7 -35,12 -13,4 -28,9 -44,15 -33,11 -71,25 -115,40 -43,15 -91,32 -144,51 -209,75 -481,173 -753,274 -271,101 -542,203 -747,285 -51,21 -98,40 -140,57 -43,18 -80,34 -111,48 -16,7 -30,14 -42,20 -13,6 -24,12 -33,17 -5,2 -9,5 -13,7 -4,3 -8,5 -10,7 -4,3 -7,5 -9,7 -5,4 -7,8 -9,11 -1,2 -2,5 -4,9 0,3 -1,6 -1,9 -1,3 -1,7 -2,11 -1,4 -1,8 -2,13 0,9 -1,20 -3,32 0,13 -1,27 -2,42 -2,31 -4,69 -6,111 -2,43 -4,91 -5,144 -7,213 -14,504 -19,835 -11,662 -19,1482 -19,2144 0,308 2,583 5,791 1,52 2,100 3,143 1,43 3,82 4,115 1,34 3,62 4,85 1,12 2,22 3,30 1,5 1,9 1,13 1,3 2,7 2,10 l 1,4 2,4 c 9,15 20,30 33,46 14,16 30,32 48,49 35,32 80,66 135,101 107,70 249,142 423,207 173,65 377,124 608,167 231,43 489,70 769,72 l 6,0 5,-2 8,-4 c 2,-2 5,-3 8,-6 3,-2 6,-4 10,-6 l 12,-9 c 9,-6 19,-13 30,-22 11,-8 23,-17 37,-28 27,-20 58,-45 93,-73 35,-28 74,-59 116,-93 169,-136 385,-315 600,-497 215,-181 430,-366 593,-512 41,-37 79,-71 113,-103 34,-31 64,-59 89,-84 13,-13 24,-24 34,-35 11,-11 20,-20 28,-29 8,-9 14,-17 19,-23 3,-4 5,-8 7,-10 2,-4 4,-8 6,-11 0,-2 1,-5 2,-8 1,-3 2,-5 3,-9 1,-6 2,-13 3,-22 2,-8 3,-17 4,-28 1,-11 2,-22 3,-35 2,-25 4,-55 7,-89 1,-34 3,-72 5,-113 8,-166 14,-391 19,-648 10,-516 16,-1164 16,-1743 0,-389 -3,-747 -8,-1012 -1,-66 -2,-127 -4,-181 -1,-53 -3,-100 -5,-139 -1,-20 -2,-38 -3,-53 -1,-16 -2,-30 -3,-41 -1,-6 -1,-11 -2,-16 -1,-5 -1,-10 -2,-13 -1,-4 -1,-8 -2,-11 -1,-2 -1,-4 -2,-5 -1,-3 -2,-5 -3,-6 z m -37,21 12,-12 -12,12 z m -6,9 c 1,3 1,7 2,11 0,4 1,9 1,15 1,11 3,24 4,39 0,15 1,33 2,52 2,39 4,86 6,139 1,53 2,114 4,180 5,264 7,622 7,1011 0,578 -5,1227 -15,1742 -6,257 -12,481 -19,646 -2,42 -4,79 -6,113 -2,33 -4,63 -6,88 -1,12 -2,24 -4,34 0,10 -2,18 -3,26 -1,7 -2,14 -3,18 0,3 -1,4 -1,6 0,1 -1,2 -1,2 0,1 -1,2 -2,4 -1,1 -3,4 -4,6 -5,6 -10,13 -17,21 -7,7 -16,17 -26,27 l -34,34 c -25,24 -54,52 -88,83 -33,31 -71,66 -112,102 -163,146 -377,330 -592,512 -215,181 -431,360 -598,495 -42,34 -81,65 -116,93 -35,28 -66,52 -93,73 -13,10 -26,20 -37,28 -10,8 -20,15 -28,21 -4,3 -8,6 -12,8 -3,2 -6,4 -8,6 -2,1 -4,2 -5,3 -276,-2 -528,-29 -755,-71 -228,-42 -429,-100 -600,-164 -169,-64 -308,-134 -413,-202 -51,-33 -94,-66 -128,-97 -17,-15 -31,-30 -43,-44 -10,-12 -19,-23 -26,-34 l 0,-4 c -1,-3 -1,-7 -1,-11 -1,-8 -2,-18 -3,-28 -2,-23 -3,-51 -5,-84 -1,-33 -2,-71 -3,-115 -1,-42 -2,-90 -3,-142 -3,-208 -5,-482 -5,-790 0,-662 7,-1481 18,-2143 6,-330 12,-622 19,-834 2,-53 4,-101 6,-144 2,-42 3,-79 5,-109 1,-16 2,-30 3,-42 1,-12 2,-22 3,-31 0,-4 1,-8 1,-11 1,-4 1,-6 2,-9 l 0,-2 c 0,-1 1,-1 2,-2 2,-1 4,-3 7,-5 4,-1 7,-4 11,-6 9,-5 19,-10 31,-16 12,-6 26,-12 41,-19 31,-14 67,-29 109,-47 42,-17 89,-37 140,-57 205,-82 475,-184 746,-284 271,-101 543,-200 752,-274 52,-19 101,-36 144,-51 43,-16 82,-29 114,-40 17,-6 31,-11 44,-16 13,-4 25,-8 35,-11 4,-2 9,-3 13,-4 4,-2 7,-3 10,-4 3,-1 5,-1 8,-2 l 3,-1 -2,-8 1,8 1,0 4,0 7,0 c 2,0 5,0 8,1 7,0 14,1 23,2 17,1 39,4 64,7 50,6 114,16 187,27 147,23 329,55 509,89 180,35 357,72 492,106 34,9 65,17 92,25 28,8 53,15 73,23 10,3 20,7 28,10 7,3 15,6 20,9 5,3 10,5 13,8 0,0 1,0 1,1 0,1 1,3 1,4 z M 4075,8017 c 1,0 1,-1 2,-1 l 6,0 0,14 -8,-13 8,13 0,11 -10,-23 c 0,0 1,-1 2,-1 z M 2110,7400 c 1,1 1,3 2,4 1,1 1,3 1,4 l -25,4 21,-11 1,-1 -1,1 1,-1 2,0 -2,0 z m 39,-4498 0,3 c -1,0 -1,1 -2,1 l -5,-6 -17,-4 17,4 -2,-1 4,2 5,1 z m -7,-2 2,1 -2,-1 z m -16,-8 14,7 -14,-7 z m 14,7 -10,-11 10,11 z m 2217,-841 -2,-17 2,17 z m -4,-17 4,17 0,1 -4,-18 z"
               inkscape:connector-curvature="0"
               id="path20-8-2" />
          </g>
          <g
             style="fill:#ffffff;fill-opacity:0.54118;stroke:#ffffff;stroke-opacity:0.54118"
             id="g22-8-9">
            <path
               d="m 5822,2442 -52,22 -52,23 -52,23 -53,25 -53,25 -53,26 -53,26 -54,27 -54,27 -54,28 -55,28 -54,29 -55,29 -55,29 -111,60 -112,60 -112,60 -113,61 -114,60 -114,60 -114,59 -57,29 -57,29 -58,28 -57,28 -27,-6 -28,-7 -56,-13 -58,-14 -59,-13 -60,-14 -61,-14 -61,-14 -63,-14 -62,-14 -63,-15 -127,-28 -127,-28 -64,-14 -63,-14 -62,-13 -62,-13 -61,-13 -60,-13 -60,-13 -58,-12 -57,-12 -28,-5 -28,-6 -27,-5 -27,-6 -27,-5 -26,-5 -26,-5 -25,-6 -25,-4 -24,-5 -24,-5 -24,-4 -23,-4 -22,-5 -22,-4 -21,-3 -21,-4 -20,-4 52,16 52,16 53,16 54,15 55,16 55,15 57,16 56,15 57,16 58,15 116,31 117,30 118,31 118,31 117,30 116,31 58,15 57,16 57,15 56,16 55,15 55,16 54,15 53,16 52,16 52,16 1,60 2,61 1,61 1,63 1,64 2,64 1,65 1,66 1,67 1,67 1,68 0,69 1,69 1,70 1,70 0,71 1,71 0,72 1,72 1,73 1,146 1,147 0,149 1,149 2,299 1,300 1,149 1,148 1,147 1,146 1,73 0,72 1,72 1,71 0,71 1,71 1,69 1,70 0,68 1,68 1,67 1,67 1,66 1,65 1,65 2,63 1,63 1,62 2,61 1,60 1,-61 1,-61 0,-63 1,-63 1,-64 1,-65 1,-66 1,-67 1,-67 1,-68 1,-69 2,-69 1,-70 1,-71 1,-71 1,-72 1,-72 2,-73 1,-73 1,-73 3,-148 3,-149 2,-151 3,-151 6,-303 5,-303 3,-151 3,-150 2,-149 3,-149 1,-73 2,-73 1,-73 1,-72 1,-71 1,-72 1,-70 2,-70 1,-70 1,-68 1,-68 1,-68 1,-66 1,-66 1,-65 1,-64 1,-64 0,-62 1,-62 1,-60 110,-59 109,-59 109,-57 109,-58 108,-57 107,-58 107,-57 107,-58 105,-58 105,-58 104,-60 103,-60 51,-30 50,-31 51,-31 50,-31 50,-31 50,-32 49,-32 50,-32 z"
               inkscape:connector-curvature="0"
               id="path24-1-0" />
          </g>
          <g
             style="fill:none"
             id="g28-1-8">
            <path
               d="m 5822,2442 c -549,232 -1156,606 -1768,901 -580,-138 -1417,-322 -1839,-396 543,169 1257,327 1800,496 32,1271 16,3196 48,4467 16,-1282 59,-3238 75,-4519 586,-317 1161,-601 1684,-949 z"
               inkscape:connector-curvature="0"
               id="path30-7-3" />
          </g>
          <g
             style="fill:#000000;fill-opacity:0.16078001;stroke:#ffffff;stroke-opacity:0.16078001"
             id="g32-7-8">
            <path
               d="m 2420,6628 10,14 10,13 11,13 12,13 12,12 12,12 14,12 13,12 14,12 15,11 15,11 16,11 15,11 17,10 16,10 17,11 18,9 18,10 18,9 18,8 19,9 19,8 19,8 19,8 40,15 40,14 41,12 41,11 42,10 41,9 42,8 41,6 41,6 41,3 21,2 20,1 19,1 20,0 20,0 19,0 19,-1 19,-1 18,-1 19,-1 17,-2 18,-3 17,-2 17,-3 17,-4 16,-4 15,-4 15,-4 15,-5 15,-5 -2,-1 -1,0 -5,-2 -6,-1 -7,-2 -8,-2 -10,-3 -10,-3 -12,-3 -13,-4 -14,-3 -15,-4 -16,-5 -16,-4 -18,-5 -18,-5 -19,-5 -20,-6 -20,-5 -21,-6 -22,-6 -22,-6 -22,-6 -23,-7 -24,-6 -48,-13 -49,-14 -50,-14 -50,-13 -50,-15 -50,-13 -49,-14 -49,-13 -23,-7 -24,-6 -23,-7 -22,-6 -22,-6 -21,-6 -21,-6 -20,-5 -19,-6 -19,-5 -18,-5 -17,-5 -16,-4 -15,-5 -15,-4 -13,-4 -12,-3 -12,-3 -10,-3 -9,-3 -7,-2 -7,-2 -5,-2 -2,0 -2,-1 z"
               inkscape:connector-curvature="0"
               id="path34-1-0" />
          </g>
          <g
             style="fill:none"
             id="g38-5-0">
            <path
               d="m 2420,6628 c 201,289 833,431 1133,315 -53,-14 -1066,-293 -1133,-315 z"
               inkscape:connector-curvature="0"
               id="path40-7-9" />
          </g>
          <g
             style="fill:#ffffff;fill-opacity:0.38824002;stroke:#ffffff;stroke-opacity:0.38824002"
             id="g42-6-1">
            <path
               d="m 3454,6093 -936,-361 -9,4 -8,4 -8,4 -6,5 -6,6 -6,6 -5,7 -5,6 -4,7 -4,7 -3,7 -3,8 -3,8 -2,7 -3,15 -2,15 -2,14 0,6 0,7 0,5 0,6 0,5 0,4 0,4 1,4 0,2 0,2 0,1 0,1 146,51 1,1 1,1 1,1 1,2 2,2 1,3 3,3 2,3 3,4 3,4 3,4 4,5 4,4 4,6 5,4 10,12 10,11 13,12 13,12 14,13 15,12 17,13 17,12 19,12 19,11 21,11 22,10 11,4 11,5 12,4 12,4 13,3 12,3 13,3 13,3 13,2 13,1 14,2 14,1 14,0 15,0 15,0 15,-1 15,-2 15,-2 16,-2 16,-3 16,-4 16,-4 17,-5 17,-6 1,0 2,1 3,0 6,1 6,1 7,1 8,1 9,1 10,1 11,1 12,1 12,1 12,0 13,1 26,0 14,-1 13,-1 14,-1 13,-2 13,-2 12,-3 12,-3 12,-3 10,-5 11,-5 9,-6 8,-6 8,-8 3,-4 3,-4 3,-4 2,-4 2,-5 2,-5 z"
               inkscape:connector-curvature="0"
               id="path44-7-9" />
          </g>
          <g
             style="fill:none"
             id="g48-57-2">
            <path
               d="m 3454,6093 -936,-361 c -97,34 -78,177 -78,177 l 146,51 c 0,0 204,319 566,194 0,0 269,48 302,-61 z"
               inkscape:connector-curvature="0"
               id="path50-0-5" />
          </g>
          <g
             style="fill:#606060"
             id="g52-5-4">
            <path
               d="m 3446,5971 c -311,-81 -622,-161 -933,-242 -12,44 -13,107 6,140 47,23 142,41 189,64 136,131 255,142 472,124 84,17 168,31 251,48 26,-51 33,-72 15,-134 z"
               inkscape:connector-curvature="0"
               id="path54-7-4" />
          </g>
          <g
             style="fill:none"
             id="g56-7-9">
            <path
               d="m 3446,5971 c -311,-81 -622,-161 -933,-242 -12,44 -13,107 6,140 47,23 142,41 189,64 136,131 255,142 472,124 84,17 168,31 251,48 26,-51 33,-72 15,-134 z"
               inkscape:connector-curvature="0"
               id="path58-8-9" />
          </g>
          <g
             style="fill:#ffffff;fill-opacity:0.4;stroke:#ffffff;stroke-opacity:0.4"
             id="g60-5-3">
            <path
               d="m 5856,2414 -1813,1017 7,4549 1775,-1494 31,-4072 z"
               inkscape:connector-curvature="0"
               id="path62-2-6" />
          </g>
          <g
             style="fill:none"
             id="g66-2-5">
            <path
               d="m 5856,2414 -1813,1017 7,4549 1775,-1494 31,-4072 z"
               inkscape:connector-curvature="0"
               id="path68-9-0" />
          </g>
          <g
             style="fill:#000000;fill-opacity:0.16078001;stroke:#ffffff;stroke-opacity:0.16078001"
             id="g70-9-2">
            <path
               d="m 2525,6916 10,13 11,12 10,13 11,11 11,12 11,11 12,11 12,10 12,10 12,10 13,10 12,9 13,9 13,8 27,17 28,15 28,14 28,13 29,11 29,11 30,9 30,8 29,8 30,6 30,5 30,4 30,3 30,2 29,2 29,0 29,-1 27,-2 28,-2 27,-3 26,-5 25,-5 24,-6 24,-6 22,-8 -2,-1 -4,0 -4,-2 -5,-1 -6,-2 -8,-2 -8,-2 -9,-2 -10,-3 -10,-3 -11,-3 -12,-3 -13,-4 -13,-3 -14,-4 -15,-4 -15,-4 -15,-5 -16,-4 -16,-5 -17,-4 -18,-5 -35,-10 -36,-10 -38,-10 -38,-10 -38,-11 -76,-21 -37,-10 -37,-11 -36,-10 -17,-4 -17,-5 -17,-5 -16,-4 -16,-5 -15,-4 -15,-4 -14,-4 -14,-4 -13,-4 -12,-3 -11,-3 -12,-3 -10,-3 -9,-3 -8,-2 -8,-3 -7,-1 -6,-2 -5,-2 -4,-1 -3,-1 z"
               inkscape:connector-curvature="0"
               id="path72-9-9" />
          </g>
          <g
             style="fill:none"
             id="g76-2-3">
            <path
               d="m 2525,6916 c 209,276 627,323 861,239 -39,-10 -810,-222 -861,-239 z"
               inkscape:connector-curvature="0"
               id="path78-7-5" />
          </g>
          <g
             style="fill:#000000;fill-opacity:0.16078001;stroke:#ffffff;stroke-opacity:0.16078001"
             id="g80-6-1">
            <path
               d="m 2680,7199 12,15 12,14 13,14 14,12 14,13 14,11 15,11 16,11 15,9 17,9 16,9 17,7 18,7 17,7 18,5 18,5 18,5 19,3 18,4 19,2 18,2 19,1 19,0 19,0 18,-1 19,-2 18,-2 19,-3 18,-4 18,-4 18,-5 17,-6 -1,0 -2,-1 -3,0 -4,-1 -3,-1 -5,-2 -5,-1 -6,-2 -6,-1 -6,-2 -7,-2 -8,-2 -8,-2 -8,-3 -9,-2 -9,-2 -19,-6 -20,-5 -22,-6 -22,-6 -23,-6 -23,-7 -48,-13 -48,-13 -23,-7 -23,-6 -23,-6 -21,-6 -21,-6 -19,-6 -9,-2 -9,-3 -9,-2 -8,-2 -8,-2 -7,-2 -7,-2 -6,-2 -6,-2 -5,-2 -5,-1 -5,-1 -3,-1 -3,-1 -3,-1 -2,0 z"
               inkscape:connector-curvature="0"
               id="path82-0-7" />
          </g>
          <g
             style="fill:none"
             id="g86-0-3">
            <path
               d="m 2680,7199 c 121,163 355,213 540,149 -25,-6 -507,-139 -540,-149 z"
               inkscape:connector-curvature="0"
               id="path88-3-1" />
          </g>
          <g
             style="fill:#fcfcfc;fill-opacity:0.43922005;stroke:#ffffff;stroke-opacity:0.43922005"
             id="g90-5-4">
            <path
               d="m 2356,3259 -92,13 -17,2173 1425,399 35,-116 -1369,-365 18,-2104 z"
               inkscape:connector-curvature="0"
               id="path92-9-6" />
          </g>
          <g
             style="fill:none"
             id="g96-7-4">
            <path
               d="m 2356,3259 -92,13 -17,2173 1425,399 35,-116 -1369,-365 18,-2104 z"
               inkscape:connector-curvature="0"
               id="path98-7-2" />
          </g>
          <g
             style="fill:#000000;fill-opacity:0.23137004;stroke:#ffffff;stroke-opacity:0.23137004"
             id="g100-1-2">
            <path
               d="m 3700,4065 -2,61 -1340,-386 1342,325 z"
               inkscape:connector-curvature="0"
               id="path102-64-6" />
          </g>
          <g
             style="fill:#000000;fill-opacity:0.23137004;stroke:#ffffff;stroke-opacity:0.23137004"
             id="g106-1-1">
            <path
               d="m 3720,4507 -3,61 -1339,-386 1342,325 z"
               inkscape:connector-curvature="0"
               id="path108-3-2" />
          </g>
          <g
             style="fill:#000000;fill-opacity:0.23137004;stroke:#ffffff;stroke-opacity:0.23137004"
             id="g112-9-8">
            <path
               d="m 3700,4916 -2,61 -1340,-386 1342,325 z"
               inkscape:connector-curvature="0"
               id="path114-09-9" />
          </g>
          <g
             style="fill:#000000;fill-opacity:0.23137004;stroke:#ffffff;stroke-opacity:0.23137004"
             id="g118-8-8">
            <path
               d="m 3700,5318 -2,61 -1340,-387 1342,326 z"
               inkscape:connector-curvature="0"
               id="path120-3-8" />
          </g>
          <g
             style="fill:#9e9e9e"
             id="g124-5-6">
            <path
               d="m 2361,3309 1332,333 -11,2197 11,0 11,0 11,-2205 0,-9 -8,-2 -1341,-335 -2,11 -3,10 z m 1340,335 -8,-2 0,-8 11,0 -3,10 z"
               inkscape:connector-curvature="0"
               id="path126-3-8" />
          </g>
        </g>
      </g>
    </g>
    <ellipse
       id="path5460-3"
       style="fill:#916f6f"
       cx="487.41721"
       cy="641.77283"
       rx="65.378296"
       ry="67.21962" />
    <path
       id="path6043-0"
       d="m 419.53288,631.07359 c 0.50736,44.26124 30.7539,79.88786 67.8952,79.88786 37.0354,0 67.11367,-35.41487 67.78686,-79.50259 -0.1711,0.52118 -0.36302,1.03492 -0.53803,1.54374 -4.27692,39.84981 -32.74625,70.62387 -67.24895,70.62387 -34.81999,0 -63.58708,-31.01228 -67.4647,-71.39734 -0.13798,-0.39152 -0.29714,-0.74965 -0.43038,-1.15718 z"
       style="fill:url(#linearGradient11807)"
       inkscape:connector-curvature="0" />
    <g
       transform="matrix(0.21421328,0,0,0.21421328,416.93873,599.18299)"
       id="g16723">
      <path
         style="clip-rule:evenodd;fill:#394d54;fill-rule:evenodd"
         inkscape:connector-curvature="0"
         id="outline_7_"
         d="m 363.387,173.391 42.695,0 0,43.646 21.588,0 c 9.969,0 20.223,-1.776 29.664,-4.976 4.639,-1.572 9.846,-3.762 14.422,-6.515 -6.027,-7.869 -9.104,-17.805 -10.01,-27.599 -1.23,-13.321 1.457,-30.66 10.473,-41.086 l 4.488,-5.191 5.348,4.299 c 13.465,10.818 24.789,25.935 26.785,43.166 16.213,-4.769 35.248,-3.641 49.539,4.607 l 5.863,3.383 -3.086,6.023 c -12.086,23.588 -37.354,30.895 -62.057,29.602 -36.965,92.068 -117.441,135.656 -215.02,135.656 -50.412,0 -96.664,-18.846 -123.002,-63.572 l -0.432,-0.73 -3.838,-7.807 c -8.902,-19.688 -11.859,-41.256 -9.854,-62.806 l 0.602,-6.455 36.51,0 0,-43.646 42.693,0 0,-42.695 85.393,0 0,-42.695 51.234,0 0,85.391 z" />
      <g
         id="body_colors_8_">
        <path
           style="fill:#00aada"
           inkscape:connector-curvature="0"
           d="m 501.713,189.537 c 2.863,-22.248 -13.787,-39.725 -24.113,-48.021 -11.898,13.758 -13.748,49.812 4.92,64.992 -10.418,9.254 -32.371,17.643 -54.85,17.643 l -273.627,0 c -2.186,23.465 1.934,45.072 11.342,63.568 l 3.113,5.693 c 1.971,3.345 4.124,6.573 6.451,9.681 10e-4,0 10e-4,0 10e-4,0 11.249,0.723 21.621,0.973 31.109,0.763 0.001,0 0.003,0 0.005,0 18.647,-0.413 33.862,-2.613 45.395,-6.609 1.717,-0.597 3.588,0.313 4.182,2.029 0.594,1.715 -0.314,3.587 -2.029,4.182 -1.533,0.531 -3.133,1.028 -4.783,1.5 -0.002,10e-4 -0.004,10e-4 -0.006,0.002 -9.08,2.592 -18.816,4.337 -31.379,5.112 0.744,0.012 -0.777,0.111 -0.781,0.112 -0.427,0.026 -0.965,0.087 -1.395,0.111 -4.943,0.277 -10.28,0.335 -15.736,0.335 -5.967,0 -11.845,-0.113 -18.414,-0.446 l -0.168,0.111 c 22.799,25.625 58.447,40.994 103.131,40.994 94.57,0 174.785,-41.922 210.305,-136.039 25.201,2.586 49.42,-3.84 60.438,-25.346 -17.551,-10.127 -40.117,-6.898 -53.111,-0.367 z"
           id="path16728" />
        <path
           style="fill:#24b8eb"
           inkscape:connector-curvature="0"
           d="m 501.713,189.537 c 2.863,-22.248 -13.787,-39.725 -24.113,-48.021 -11.898,13.758 -13.748,49.812 4.92,64.992 -10.418,9.254 -32.371,17.643 -54.85,17.643 l -257.424,0 c -1.117,35.936 12.219,63.214 35.813,79.705 0.001,0 0.003,0 0.005,0 18.647,-0.413 33.862,-2.613 45.395,-6.609 1.717,-0.597 3.588,0.313 4.182,2.029 0.594,1.715 -0.314,3.587 -2.029,4.182 -1.533,0.531 -3.133,1.028 -4.783,1.5 -0.002,10e-4 -0.004,10e-4 -0.006,0.002 -9.08,2.592 -19.653,4.561 -32.216,5.336 -0.004,0 -0.305,-0.291 -0.309,-0.29 32.185,16.509 78.853,16.45 132.356,-4.103 59.994,-23.047 115.818,-66.957 154.771,-117.18 -0.587,0.265 -1.159,0.537 -1.712,0.814 z"
           id="path16730" />
        <path
           style="fill:#008bb8"
           inkscape:connector-curvature="0"
           d="m 154.555,252.66 c 1.701,12.568 5.377,24.338 10.83,35.059 l 3.113,5.693 c 1.971,3.345 4.124,6.573 6.452,9.681 11.251,0.723 21.624,0.973 31.114,0.763 18.647,-0.413 33.862,-2.613 45.395,-6.609 1.717,-0.597 3.588,0.313 4.182,2.029 0.594,1.715 -0.314,3.587 -2.029,4.182 -1.533,0.531 -3.133,1.028 -4.783,1.5 -0.002,10e-4 -0.004,10e-4 -0.006,0.002 -9.08,2.592 -19.598,4.449 -32.16,5.225 -0.431,0.026 -1.184,0.031 -1.618,0.056 -4.942,0.277 -10.224,0.446 -15.681,0.446 -5.966,0 -12.067,-0.113 -18.637,-0.446 22.799,25.625 58.67,41.05 103.354,41.05 80.961,0 151.398,-30.73 192.281,-98.629 l -321.807,0 z"
           id="path16732" />
        <path
           style="fill:#039bc6"
           inkscape:connector-curvature="0"
           d="m 172.709,252.66 c 4.84,22.069 16.471,39.395 33.355,51.195 18.647,-0.413 33.862,-2.613 45.395,-6.609 1.717,-0.597 3.588,0.313 4.182,2.029 0.594,1.715 -0.314,3.587 -2.029,4.182 -1.533,0.531 -3.133,1.028 -4.783,1.5 -0.002,0.001 -0.004,0.001 -0.006,0.002 -9.08,2.592 -19.82,4.449 -32.383,5.225 32.182,16.507 78.715,16.27 132.215,-4.281 32.365,-12.436 63.516,-30.947 91.463,-53.242 l -267.409,0 z"
           id="path16734" />
      </g>
      <g
         style="display:none"
         display="none"
         id="g16736">
        <path
           style="display:inline;fill:#394d54"
           inkscape:connector-curvature="0"
           display="inline"
           d="m 199.434,310.508 c 5.455,0 10.652,-0.142 15.594,-0.419 0.432,-0.024 0.844,-0.058 1.271,-0.084 0.004,-10e-4 0.007,-10e-4 0.011,-10e-4 12.562,-0.775 23.434,-2.453 32.514,-5.045 0.002,-10e-4 0.004,-10e-4 0.006,-0.002 1.65,-0.472 3.25,-0.969 4.783,-1.5 1.715,-0.595 2.623,-2.467 2.029,-4.182 -0.594,-1.716 -2.465,-2.626 -4.182,-2.029 -11.532,3.996 -26.747,6.196 -45.395,6.609 -0.002,0 -0.004,0 -0.005,0 -9.488,0.21 -19.86,-0.04 -31.109,-0.763 0,0 0,0 -0.001,0 -0.575,-0.036 -1.141,-0.069 -1.721,-0.108 -1.807,-0.115 -3.379,1.245 -3.504,3.057 -0.123,1.811 1.246,3.379 3.057,3.502 2.297,0.156 4.555,0.291 6.783,0.41 0.354,0.019 0.697,0.031 1.049,0.049 l 0,0 c 6.57,0.333 12.853,0.506 18.82,0.506 z"
           id="path16738" />
      </g>
      <g
         id="Containers_8_">
        <path
           style="clip-rule:evenodd;fill:#00acd3;fill-rule:evenodd"
           inkscape:connector-curvature="0"
           d="m 222.18,183.59 2.922,0 0,30.838 -2.922,0 0,-30.838 z m -5.606,0 3.037,0 0,30.838 -3.037,0 0,-30.838 z m -5.607,0 3.037,0 0,30.838 -3.037,0 0,-30.838 z m -5.608,0 3.037,0 0,30.838 -3.037,0 0,-30.838 z m -5.605,0 3.037,0 0,30.838 -3.037,0 0,-30.838 z m -5.49,0 2.92,0 0,30.838 -2.92,0 0,-30.838 z m -3.082,-3.084 37.002,0 0,37.004 -37.002,0 0,-37.004 z"
           id="path16741" />
        <path
           style="clip-rule:evenodd;fill:#00acd3;fill-rule:evenodd"
           inkscape:connector-curvature="0"
           d="m 264.875,140.895 2.924,0 0,30.836 -2.924,0 0,-30.836 z m -5.605,0 3.037,0 0,30.836 -3.037,0 0,-30.836 z m -5.608,0 3.037,0 0,30.836 -3.037,0 0,-30.836 z m -5.607,0 3.037,0 0,30.836 -3.037,0 0,-30.836 z m -5.604,0 3.035,0 0,30.836 -3.035,0 0,-30.836 z m -5.49,0 2.918,0 0,30.836 -2.918,0 0,-30.836 z m -3.086,-3.084 37.006,0 0,37.003 -37.006,0 0,-37.003 z"
           id="path16743" />
        <path
           style="clip-rule:evenodd;fill:#20c2ef;fill-rule:evenodd"
           inkscape:connector-curvature="0"
           d="m 264.875,183.59 2.924,0 0,30.838 -2.924,0 0,-30.838 z m -5.605,0 3.037,0 0,30.838 -3.037,0 0,-30.838 z m -5.608,0 3.037,0 0,30.838 -3.037,0 0,-30.838 z m -5.607,0 3.037,0 0,30.838 -3.037,0 0,-30.838 z m -5.604,0 3.035,0 0,30.838 -3.035,0 0,-30.838 z m -5.49,0 2.918,0 0,30.838 -2.918,0 0,-30.838 z m -3.086,-3.084 37.006,0 0,37.004 -37.006,0 0,-37.004 z"
           id="path16745" />
        <path
           style="clip-rule:evenodd;fill:#00acd3;fill-rule:evenodd"
           inkscape:connector-curvature="0"
           d="m 307.572,183.59 2.92,0 0,30.838 -2.92,0 0,-30.838 z m -5.607,0 3.039,0 0,30.838 -3.039,0 0,-30.838 z m -5.606,0 3.037,0 0,30.838 -3.037,0 0,-30.838 z m -5.607,0 3.037,0 0,30.838 -3.037,0 0,-30.838 z m -5.607,0 3.037,0 0,30.838 -3.037,0 0,-30.838 z m -5.489,0 2.918,0 0,30.838 -2.918,0 0,-30.838 z m -3.084,-3.084 37.004,0 0,37.004 -37.004,0 0,-37.004 z"
           id="path16747" />
        <path
           style="clip-rule:evenodd;fill:#20c2ef;fill-rule:evenodd"
           inkscape:connector-curvature="0"
           d="m 307.572,140.895 2.92,0 0,30.836 -2.92,0 0,-30.836 z m -5.607,0 3.039,0 0,30.836 -3.039,0 0,-30.836 z m -5.606,0 3.037,0 0,30.836 -3.037,0 0,-30.836 z m -5.607,0 3.037,0 0,30.836 -3.037,0 0,-30.836 z m -5.607,0 3.037,0 0,30.836 -3.037,0 0,-30.836 z m -5.489,0 2.918,0 0,30.836 -2.918,0 0,-30.836 z m -3.084,-3.084 37.004,0 0,37.003 -37.004,0 0,-37.003 z"
           id="path16749" />
        <path
           style="clip-rule:evenodd;fill:#20c2ef;fill-rule:evenodd"
           inkscape:connector-curvature="0"
           d="m 350.268,183.59 2.922,0 0,30.838 -2.922,0 0,-30.838 z m -5.606,0 3.037,0 0,30.838 -3.037,0 0,-30.838 z m -5.607,0 3.037,0 0,30.838 -3.037,0 0,-30.838 z m -5.608,0 3.037,0 0,30.838 -3.037,0 0,-30.838 z m -5.605,0 3.037,0 0,30.838 -3.037,0 0,-30.838 z m -5.49,0 2.92,0 0,30.838 -2.92,0 0,-30.838 z m -3.084,-3.084 37.004,0 0,37.004 -37.004,0 0,-37.004 z"
           id="path16751" />
        <path
           style="clip-rule:evenodd;fill:#00acd3;fill-rule:evenodd"
           inkscape:connector-curvature="0"
           d="m 350.268,140.895 2.922,0 0,30.836 -2.922,0 0,-30.836 z m -5.606,0 3.037,0 0,30.836 -3.037,0 0,-30.836 z m -5.607,0 3.037,0 0,30.836 -3.037,0 0,-30.836 z m -5.608,0 3.037,0 0,30.836 -3.037,0 0,-30.836 z m -5.605,0 3.037,0 0,30.836 -3.037,0 0,-30.836 z m -5.49,0 2.92,0 0,30.836 -2.92,0 0,-30.836 z m -3.084,-3.084 37.004,0 0,37.003 -37.004,0 0,-37.003 z"
           id="path16753" />
        <path
           style="clip-rule:evenodd;fill:#20c2ef;fill-rule:evenodd"
           inkscape:connector-curvature="0"
           d="m 350.268,98.197 2.922,0 0,30.838 -2.922,0 0,-30.838 z m -5.606,0 3.037,0 0,30.838 -3.037,0 0,-30.838 z m -5.607,0 3.037,0 0,30.838 -3.037,0 0,-30.838 z m -5.608,0 3.037,0 0,30.838 -3.037,0 0,-30.838 z m -5.605,0 3.037,0 0,30.838 -3.037,0 0,-30.838 z m -5.49,0 2.92,0 0,30.838 -2.92,0 0,-30.838 z m -3.084,-3.082 37.004,0 0,37.004 -37.004,0 0,-37.004 z"
           id="path16755" />
        <path
           style="clip-rule:evenodd;fill:#00acd3;fill-rule:evenodd"
           inkscape:connector-curvature="0"
           d="m 392.963,183.59 2.92,0 0,30.838 -2.92,0 0,-30.838 z m -5.606,0 3.035,0 0,30.838 -3.035,0 0,-30.838 z m -5.609,0 3.037,0 0,30.838 -3.037,0 0,-30.838 z m -5.605,0 3.037,0 0,30.838 -3.037,0 0,-30.838 z m -5.608,0 3.037,0 0,30.838 -3.037,0 0,-30.838 z m -5.49,0 2.922,0 0,30.838 -2.922,0 0,-30.838 z m -3.082,-3.084 37.004,0 0,37.004 -37.004,0 0,-37.004 z"
           id="path16757" />
      </g>
      <path
         style="clip-rule:evenodd;fill:#d4edf1;fill-rule:evenodd"
         inkscape:connector-curvature="0"
         d="m 268.564,277.504 c 5.637,0 10.207,4.572 10.207,10.209 0,5.637 -4.57,10.207 -10.207,10.207 -5.639,0 -10.209,-4.57 -10.209,-10.207 0,-5.637 4.571,-10.209 10.209,-10.209"
         id="path16759" />
      <path
         style="clip-rule:evenodd;fill:#394d54;fill-rule:evenodd"
         inkscape:connector-curvature="0"
         d="m 268.564,280.4 c 0.934,0 1.824,0.176 2.646,0.494 -0.891,0.516 -1.494,1.48 -1.494,2.584 0,1.648 1.336,2.982 2.984,2.982 1.129,0 2.109,-0.627 2.617,-1.553 0.357,0.863 0.557,1.811 0.557,2.805 0,4.037 -3.273,7.311 -7.311,7.311 -4.038,0 -7.312,-3.273 -7.312,-7.311 0.001,-4.038 3.276,-7.312 7.313,-7.312"
         id="path16761" />
      <path
         style="clip-rule:evenodd;fill:#394d54;fill-rule:evenodd"
         inkscape:connector-curvature="0"
         d="m 88,256.35 223.613,0 27.656,0 223.607,0 c -10.34,-2.623 -32.715,-6.166 -29.025,-19.717 -18.801,21.756 -64.143,15.264 -75.586,4.535 -12.742,18.482 -86.926,11.457 -92.1,-2.941 -15.975,18.748 -65.477,18.748 -81.453,0 -5.176,14.398 -79.357,21.424 -92.102,2.941 -11.443,10.729 -56.781,17.221 -75.584,-4.535 3.691,13.551 -18.684,17.094 -29.026,19.717"
         id="path16763" />
      <path
         style="fill:#bfdbe0"
         inkscape:connector-curvature="0"
         d="m 295.701,351.068 c -25.281,-11.997 -39.158,-28.306 -46.879,-46.109 -9.391,2.681 -20.68,4.394 -33.795,5.13 -4.941,0.277 -10.139,0.419 -15.594,0.419 -6.287,0 -12.914,-0.186 -19.869,-0.555 23.184,23.17 51.705,41.01 104.516,41.336 3.899,0 7.77,-0.076 11.621,-0.221 z"
         id="path16765" />
      <path
         style="fill:#d4edf1"
         inkscape:connector-curvature="0"
         d="m 258.213,321.387 c -3.498,-4.748 -6.891,-10.715 -9.385,-16.43 -9.393,2.682 -20.684,4.396 -33.801,5.132 9.01,4.891 21.897,9.423 43.186,11.298 z"
         id="path16767" />
    </g>
    <path
       id="path6043-0-2"
       d="m 419.26325,645.72377 c 0.50736,-39.63485 30.7539,-71.5376 67.8952,-71.5376 37.0354,0 67.11367,31.71314 67.78686,71.19259 -0.1711,-0.46669 -0.36302,-0.92673 -0.53803,-1.38237 -4.27692,-35.68452 -32.74625,-63.24193 -67.24895,-63.24193 -34.81999,0 -63.58708,27.77073 -67.4647,63.93456 -0.13798,0.35059 -0.29714,0.67129 -0.43038,1.03622 z"
       style="fill:url(#linearGradient11807-7)"
       inkscape:connector-curvature="0" />
  </g>
  <metadata
     id="metadata5297">
    <rdf:RDF>
      <cc:Work>
        <dc:format>image/svg+xml</dc:format>
        <dc:type
           rdf:resource="http://purl.org/dc/dcmitype/StillImage" />
        <cc:license
           rdf:resource="http://creativecommons.org/publicdomain/zero/1.0/" />
        <dc:publisher>
          <cc:Agent
             rdf:about="http://openclipart.org/">
            <dc:title>Openclipart</dc:title>
          </cc:Agent>
        </dc:publisher>
        <dc:date>2011-10-15T13:20:35</dc:date>
        <dc:description>Database Server</dc:description>
        <dc:source>https://openclipart.org/detail/163711/database-server-by-lyte</dc:source>
        <dc:creator>
          <cc:Agent>
            <dc:title>lyte</dc:title>
          </cc:Agent>
        </dc:creator>
        <dc:subject>
          <rdf:Bag>
            <rdf:li>computer</rdf:li>
            <rdf:li>database</rdf:li>
            <rdf:li>db</rdf:li>
            <rdf:li>network</rdf:li>
            <rdf:li>server</rdf:li>
          </rdf:Bag>
        </dc:subject>
      </cc:Work>
      <cc:License
         rdf:about="http://creativecommons.org/publicdomain/zero/1.0/">
        <cc:permits
           rdf:resource="http://creativecommons.org/ns#Reproduction" />
        <cc:permits
           rdf:resource="http://creativecommons.org/ns#Distribution" />
        <cc:permits
           rdf:resource="http://creativecommons.org/ns#DerivativeWorks" />
      </cc:License>
    </rdf:RDF>
  </metadata>
</svg>
