<?xml version="1.0" encoding="UTF-8" standalone="no"?>
<!-- Created with Inkscape (http://www.inkscape.org/) -->

<svg
   id="svg2"
   version="1.1"
   inkscape:version="1.1 (c68e22c387, 2021-05-23)"
   xml:space="preserve"
   width="580.14374"
   height="574.52374"
   viewBox="0 0 580.14373 574.52374"
   sodipodi:docname="Fruit_AllInOne.svg"
   xmlns:inkscape="http://www.inkscape.org/namespaces/inkscape"
   xmlns:sodipodi="http://sodipodi.sourceforge.net/DTD/sodipodi-0.dtd"
   xmlns="http://www.w3.org/2000/svg"
   xmlns:svg="http://www.w3.org/2000/svg"
   xmlns:rdf="http://www.w3.org/1999/02/22-rdf-syntax-ns#"
   xmlns:cc="http://creativecommons.org/ns#"
   xmlns:dc="http://purl.org/dc/elements/1.1/"><metadata
     id="metadata8"><rdf:RDF><cc:Work
         rdf:about=""><dc:format>image/svg+xml</dc:format><dc:type
           rdf:resource="http://purl.org/dc/dcmitype/StillImage" /></cc:Work></rdf:RDF></metadata><defs
     id="defs6"><linearGradient
       x1="0"
       y1="0"
       x2="1"
       y2="0"
       gradientUnits="userSpaceOnUse"
       gradientTransform="matrix(0,-74.918945,-74.918945,0,283.46436,128.57422)"
       spreadMethod="pad"
       id="linearGradient24"><stop
         style="stop-opacity:1;stop-color:#797d7f"
         offset="0"
         id="stop26" /><stop
         style="stop-opacity:1;stop-color:#909497"
         offset="0.100006"
         id="stop28" /><stop
         style="stop-opacity:1;stop-color:#909497"
         offset="0.19580324"
         id="stop30" /><stop
         style="stop-opacity:1;stop-color:#d2d3d7"
         offset="0.42424"
         id="stop32" /><stop
         style="stop-opacity:1;stop-color:#c5c6ca"
         offset="0.581818"
         id="stop34" /><stop
         style="stop-opacity:1;stop-color:#8d9193"
         offset="0.709091"
         id="stop36" /><stop
         style="stop-opacity:1;stop-color:#d2d3d7"
         offset="0.836365"
         id="stop38" /><stop
         style="stop-opacity:1;stop-color:#d2d3d7"
         offset="1"
         id="stop40" /></linearGradient><linearGradient
       x1="0"
       y1="0"
       x2="1"
       y2="0"
       gradientUnits="userSpaceOnUse"
       gradientTransform="matrix(173.99365,0,0,-173.99365,196.46631,58.538086)"
       spreadMethod="pad"
       id="linearGradient56"><stop
         style="stop-opacity:1;stop-color:#808184"
         offset="0"
         id="stop58" /><stop
         style="stop-opacity:1;stop-color:#e6e7e8"
         offset="0.199997"
         id="stop60" /><stop
         style="stop-opacity:1;stop-color:#e6e7e8"
         offset="0.800003"
         id="stop62" /><stop
         style="stop-opacity:1;stop-color:#808184"
         offset="1"
         id="stop64" /></linearGradient><clipPath
       clipPathUnits="userSpaceOnUse"
       id="clipPath72"><path
         d="M 0,566.929 H 566.929 V 0 H 0 Z"
         id="path74"
         inkscape:connector-curvature="0" /></clipPath><clipPath
       clipPathUnits="userSpaceOnUse"
       id="clipPath80"><path
         d="M 196.697,57.6211 H 370.233 V 53.6553 H 196.697 Z"
         id="path82"
         inkscape:connector-curvature="0" /></clipPath><linearGradient
       x1="0"
       y1="0"
       x2="1"
       y2="0"
       gradientUnits="userSpaceOnUse"
       gradientTransform="matrix(517.62695,241.37343,241.37343,-517.62695,24.650879,199.73633)"
       spreadMethod="pad"
       id="linearGradient104"><stop
         style="stop-opacity:1;stop-color:#909497"
         offset="0"
         id="stop106" /><stop
         style="stop-opacity:1;stop-color:#d2d3d7"
         offset="0.41503764"
         id="stop108" /><stop
         style="stop-opacity:1;stop-color:#d2d3d7"
         offset="1"
         id="stop110" /></linearGradient><clipPath
       clipPathUnits="userSpaceOnUse"
       id="clipPath118"><path
         d="M 0,566.929 H 566.929 V 0 H 0 Z"
         id="path120"
         inkscape:connector-curvature="0" /></clipPath><linearGradient
       x1="0"
       y1="0"
       x2="1"
       y2="0"
       gradientUnits="userSpaceOnUse"
       gradientTransform="matrix(-164.23518,-294.64618,-294.64618,164.23518,545.99902,505.51074)"
       spreadMethod="pad"
       id="linearGradient138"><stop
         style="stop-opacity:1;stop-color:#1a1a1a"
         offset="0"
         id="stop140" /><stop
         style="stop-opacity:1;stop-color:#040404"
         offset="1"
         id="stop142" /></linearGradient><linearGradient
       x1="0"
       y1="0"
       x2="1"
       y2="0"
       gradientUnits="userSpaceOnUse"
       gradientTransform="matrix(341.35184,341.35184,341.35184,-341.35184,112.7876,187.76172)"
       spreadMethod="pad"
       id="linearGradient158"><stop
         style="stop-opacity:1;stop-color:#231f20"
         offset="0"
         id="stop160" /><stop
         style="stop-opacity:1;stop-color:#231f20"
         offset="0.58496236"
         id="stop162" /><stop
         style="stop-opacity:1;stop-color:#404041"
         offset="1"
         id="stop164" /></linearGradient><clipPath
       clipPathUnits="userSpaceOnUse"
       id="clipPath172"><path
         d="M 0,566.929 H 566.929 V 0 H 0 Z"
         id="path174"
         inkscape:connector-curvature="0" /></clipPath><linearGradient
       x1="0"
       y1="0"
       x2="1"
       y2="0"
       gradientUnits="userSpaceOnUse"
       gradientTransform="matrix(-17.000107,-25.670486,-25.670486,17.000107,298.18555,176.49512)"
       spreadMethod="pad"
       id="linearGradient192"><stop
         style="stop-opacity:1;stop-color:#1a1a1a"
         offset="0"
         id="stop194" /><stop
         style="stop-opacity:1;stop-color:#040404"
         offset="1"
         id="stop196" /></linearGradient></defs><sodipodi:namedview
     pagecolor="#ffffff"
     bordercolor="#666666"
     borderopacity="1"
     objecttolerance="10"
     gridtolerance="10"
     guidetolerance="10"
     inkscape:pageopacity="0"
     inkscape:pageshadow="2"
     inkscape:window-width="1920"
     inkscape:window-height="1017"
     id="namedview4"
     showgrid="false"
     inkscape:zoom="1.3320892"
     inkscape:cx="289.39503"
     inkscape:cy="227.8376"
     inkscape:window-x="-8"
     inkscape:window-y="-8"
     inkscape:window-maximized="1"
     inkscape:current-layer="g10"
     inkscape:pagecheckerboard="true"
     fit-margin-top="0"
     fit-margin-left="0"
     fit-margin-right="0"
     fit-margin-bottom="0" /><g
     id="g10"
     inkscape:groupmode="layer"
     inkscape:label="IMac nologo"
     transform="matrix(1.25,0,0,-1.25,-64.25875,641.5925)"><g
       id="g12"><g
         id="g14"><g
           id="g20"><g
             id="g22"><path
               d="m 226.57,128.574 c 0,0 -1.623,-46.314 -10.033,-57.232 v 0 c -3.442,-4.47 -16.094,-4.242 -19.8,-7.92 v 0 c -0.562,-0.557 -0.087,-6.222 0,-6.336 v 0 c 1.919,-2.481 12.937,-3.431 12.937,-3.431 v 0 h 147.582 c 0,0 11.018,0.95 12.936,3.431 v 0 c 0.087,0.114 0.562,5.779 0,6.336 v 0 c -3.708,3.678 -16.358,3.45 -19.8,7.92 v 0 c -8.41,10.918 -10.032,57.232 -10.032,57.232 v 0 z"
               style="fill:url(#linearGradient24);stroke:none"
               id="path42"
               inkscape:connector-curvature="0" /></g></g></g></g><g
       id="g44"><g
         id="g46"><g
           id="g52"><g
             id="g54"><path
               d="m 357.254,59.99 h -147.58 c 0,0 -11.018,0.952 -12.937,3.432 v 0 c -0.562,-0.557 -0.088,-6.222 0,-6.336 v 0 c 1.919,-2.481 12.937,-3.431 12.937,-3.431 v 0 h 147.58 c 0,0 11.015,0.95 12.935,3.431 v 0 c 0.089,0.114 0.563,5.779 0,6.336 v 0 c -1.92,-2.48 -12.935,-3.432 -12.935,-3.432"
               style="fill:url(#linearGradient56);stroke:none"
               id="path66"
               inkscape:connector-curvature="0" /></g></g></g></g><g
       id="g68"><g
         id="g70"
         clip-path="url(#clipPath72)"><g
           id="g76"><g
             id="g78" /><g
             id="g84"><g
               clip-path="url(#clipPath80)"
               id="g86"
               style="opacity:0.5"><g
                 transform="translate(370.1914,57.6152)"
                 id="g88"><path
                   d="m 0,0 c -1.918,-2.484 -12.936,-3.432 -12.936,-3.432 h -147.581 c 0,0 -11.016,0.948 -12.934,3.432 -0.055,0.068 -0.061,-0.452 0,-0.529 1.918,-2.482 12.934,-3.431 12.934,-3.431 h 147.581 c 0,0 11.018,0.949 12.936,3.431 C 0.059,-0.452 0.053,0.068 0,0"
                   style="fill:#231f20;fill-opacity:1;fill-rule:nonzero;stroke:none"
                   id="path90"
                   inkscape:connector-curvature="0" /></g></g></g></g></g></g><g
       id="g92"><g
         id="g94"><g
           id="g100"><g
             id="g102"><path
               d="m 70.415,513.274 c -10.496,0 -19.008,-8.512 -19.008,-19.009 v 0 -347.683 c 0,-10.498 8.512,-19.008 19.008,-19.008 v 0 h 426.098 c 10.497,0 19.009,8.51 19.009,19.008 v 0 347.683 c 0,10.497 -8.512,19.009 -19.009,19.009 v 0 z"
               style="fill:url(#linearGradient104);stroke:none"
               id="path112"
               inkscape:connector-curvature="0" /></g></g></g></g><g
       id="g114"><g
         id="g116"
         clip-path="url(#clipPath118)"><g
           id="g122"
           transform="translate(509.9766,228.1543)"><path
             d="m 0,0 c 0,-10.496 -8.51,-19.008 -19.008,-19.008 h -415.008 c -10.498,0 -19.008,8.512 -19.008,19.008 v 260.567 c 0,10.499 8.51,19.008 19.008,19.008 H -19.008 C -8.51,279.575 0,271.066 0,260.567 Z"
             style="fill:#000000;fill-opacity:1;fill-rule:nonzero;stroke:none"
             id="path124"
             inkscape:connector-curvature="0" /></g></g></g><g
       id="g126"><g
         id="g128"><g
           id="g134"><g
             id="g136"><path
               d="M 433.15,507.73 259.469,209.144 h 231.5 c 10.497,0 19.008,8.51 19.008,19.008 v 0 260.57 c 0,10.496 -8.511,19.008 -19.008,19.008 v 0 z"
               style="fill:url(#linearGradient138);stroke:none"
               id="path144"
               inkscape:connector-curvature="0" /></g></g></g></g><g
       id="g146"><g
         id="g148"><g
           id="g154"><g
             id="g156"><path
               d="M 74.375,226.174 H 492.552 V 490.702 H 74.375 Z"
               style="fill:url(#linearGradient158);stroke:none"
               id="path166"
               inkscape:connector-curvature="0" /></g></g></g></g><g
       id="g168"><g
         id="g170"
         clip-path="url(#clipPath172)"><g
           id="g176"
           transform="translate(292.7832,167.5117)"><path
             d="m 0,0 c 0,1.67 0.48,3.197 1.443,4.578 0.521,0.743 1.337,1.589 2.442,2.533 -1.349,1.934 -3.281,2.987 -5.051,3.16 -0.481,0.046 -0.933,0.069 -1.355,0.069 -3.39,0 -5.015,-2.464 -6.876,-4.683 -1.862,2.219 -3.487,4.683 -6.876,4.683 -0.423,0 -0.873,-0.023 -1.356,-0.069 -2.933,-0.288 -6.324,-2.972 -6.737,-8.119 V 0.44 c 0.385,-4.925 4.102,-10.001 14.969,-17.622 6.071,4.259 9.908,7.721 12.182,10.808 C 2.349,-5.969 1.927,-5.509 1.533,-4.943 0.51,-3.475 0,-1.828 0,0"
             style="fill:#000000;fill-opacity:1;fill-rule:nonzero;stroke:none"
             id="path178"
             inkscape:connector-curvature="0" /></g></g></g><g
       id="g180"><g
         id="g182"><g
           id="g188"><g
             id="g190"><path
               d="m 277.924,154.447 c 1.568,-1.276 3.366,-2.628 5.422,-4.071 v 0 c 0.026,0 0.053,0 0.081,0 v 0 c 6.045,4.246 9.872,7.699 12.141,10.779 v 0 c -0.436,0.406 -0.858,0.866 -1.252,1.431 v 0 c -1.023,1.469 -1.533,3.115 -1.533,4.944 v 0 c 0,1.669 0.481,3.196 1.443,4.577 v 0 c 0.521,0.743 1.338,1.589 2.442,2.534 v 0 c -1.348,1.934 -3.281,2.986 -5.051,3.158 v 0 c -0.037,0.005 -0.068,0.003 -0.105,0.007 v 0 z"
               style="fill:url(#linearGradient192);stroke:none"
               id="path198"
               inkscape:connector-curvature="0" /></g></g></g></g></g></svg>
