<?xml version="1.0" encoding="UTF-8" standalone="no"?>
<!-- Created with Inkscape (http://www.inkscape.org/) -->

<svg
   id="svg2211"
   sodipodi:docname="Game_Console_Black_Glossy.svg"
   viewBox="0 0 454.74 635.24"
   sodipodi:version="0.32"
   version="1.0"
   inkscape:output_extension="org.inkscape.output.svg.inkscape"
   inkscape:version="1.1 (c68e22c387, 2021-05-23)"
   xmlns:inkscape="http://www.inkscape.org/namespaces/inkscape"
   xmlns:sodipodi="http://sodipodi.sourceforge.net/DTD/sodipodi-0.dtd"
   xmlns:xlink="http://www.w3.org/1999/xlink"
   xmlns="http://www.w3.org/2000/svg"
   xmlns:svg="http://www.w3.org/2000/svg"
   xmlns:rdf="http://www.w3.org/1999/02/22-rdf-syntax-ns#"
   xmlns:cc="http://creativecommons.org/ns#"
   xmlns:dc="http://purl.org/dc/elements/1.1/">
  <defs
     id="defs2214">
    <linearGradient
       id="linearGradient5552"
       inkscape:collect="always">
      <stop
         id="stop5554"
         style="stop-color:#ffffff"
         offset="0" />
      <stop
         id="stop5556"
         style="stop-color:#ffffff;stop-opacity:0"
         offset="1" />
    </linearGradient>
    <linearGradient
       id="linearGradient19503"
       inkscape:collect="always">
      <stop
         id="stop19505"
         style="stop-color:#343434"
         offset="0" />
      <stop
         id="stop19507"
         style="stop-color:#343434;stop-opacity:0"
         offset="1" />
    </linearGradient>
    <filter
       id="filter4376"
       inkscape:collect="always"
       x="-0.028040466"
       y="-0.0049503673"
       width="1.0560809"
       height="1.0099007">
      <feGaussianBlur
         id="feGaussianBlur4378"
         stdDeviation="1.9534149"
         inkscape:collect="always" />
    </filter>
    <filter
       id="filter6630"
       height="1.2493241"
       width="2.2387093"
       y="-0.12466205"
       x="-0.61935464"
       inkscape:collect="always">
      <feGaussianBlur
         id="feGaussianBlur6632"
         stdDeviation="47.146816"
         inkscape:collect="always" />
    </filter>
    <filter
       id="filter17513"
       height="1.024695"
       width="3.947858"
       y="-0.012347499"
       x="-1.473929"
       inkscape:collect="always">
      <feGaussianBlur
         id="feGaussianBlur17515"
         stdDeviation="2.468831"
         inkscape:collect="always" />
    </filter>
    <filter
       id="filter18526"
       height="1.0369829"
       width="5.3288062"
       y="-0.018491462"
       x="-2.1644031"
       inkscape:collect="always">
      <feGaussianBlur
         id="feGaussianBlur18528"
         stdDeviation="3.6975219"
         inkscape:collect="always" />
    </filter>
    <style
       id="style22536"
       type="text/css">.fil0 {fill:#2B2828}</style>
    <filter
       id="filter6567"
       height="1.2596629"
       width="2.2900752"
       y="-0.12983145"
       x="-0.64503761"
       inkscape:collect="always">
      <feGaussianBlur
         id="feGaussianBlur6569"
         stdDeviation="49.101867"
         inkscape:collect="always" />
    </filter>
    <filter
       id="filter17626"
       height="1.4868146"
       width="3.418626"
       y="-0.24340729"
       x="-1.209313"
       inkscape:collect="always">
      <feGaussianBlur
         id="feGaussianBlur17628"
         stdDeviation="92.055914"
         inkscape:collect="always" />
    </filter>
    <filter
       id="filter18651"
       height="1.244015"
       width="3.0422994"
       y="-0.12200749"
       x="-1.0211497"
       inkscape:collect="always">
      <feGaussianBlur
         id="feGaussianBlur18653"
         stdDeviation="13.636139"
         inkscape:collect="always" />
    </filter>
    <filter
       id="filter20619"
       height="1.134277"
       width="2.1238404"
       y="-0.067138513"
       x="-0.56192019"
       inkscape:collect="always">
      <feGaussianBlur
         id="feGaussianBlur20621"
         stdDeviation="7.5037201"
         inkscape:collect="always" />
    </filter>
    <filter
       id="filter21618"
       height="1.3034462"
       width="3.5397125"
       y="-0.15172308"
       x="-1.2698563"
       inkscape:collect="always">
      <feGaussianBlur
         id="feGaussianBlur21620"
         stdDeviation="16.957295"
         inkscape:collect="always" />
    </filter>
    <filter
       id="filter42608"
       inkscape:collect="always"
       x="-0.0030796309"
       y="-0.11600179"
       width="1.0061593"
       height="1.2320036">
      <feGaussianBlur
         id="feGaussianBlur42610"
         stdDeviation="0.082056769"
         inkscape:collect="always" />
    </filter>
    <filter
       id="filter43583"
       height="1.006034"
       width="2.0633788"
       y="-0.0030170149"
       x="-0.53168941"
       inkscape:collect="always">
      <feGaussianBlur
         id="feGaussianBlur43585"
         stdDeviation="0.32862835"
         inkscape:collect="always" />
    </filter>
    <clipPath
       id="clipPath12974"
       clipPathUnits="userSpaceOnUse">
      <path
         id="path12976"
         sodipodi:nodetypes="csccsc"
         style="stroke:#000000;stroke-width:1px;fill:none"
         d="m77.635 210.29s344.5-75.63 2033.1-104.74c504.6-8.703 14.6 2870.6 14.6 2870.6l-659.9-334.9s-625.97 14.5-1382.9-218.4c-756.96-232.9-14.569-2212.6-4.865-2212.6z" />
    </clipPath>
    <linearGradient
       id="linearGradient12978"
       y2="640.83"
       gradientUnits="userSpaceOnUse"
       x2="2241.8"
       gradientTransform="matrix(0 -2.6429 2.8251 0 69.256 6047.6)"
       y1="640.83"
       x1="1294.6"
       inkscape:collect="always">
      <stop
         id="stop26615"
         style="stop-color:#2c2d2c"
         offset="0" />
      <stop
         id="stop26617"
         style="stop-color:#2c2d2c;stop-opacity:0"
         offset="1" />
    </linearGradient>
    <linearGradient
       id="linearGradient12980"
       y2="644.18"
       gradientUnits="userSpaceOnUse"
       x2="1826.6"
       gradientTransform="matrix(0 -1 1 0 704.6 1993)"
       y1="644.18"
       x1="871.01"
       inkscape:collect="always">
      <stop
         id="stop9639"
         style="stop-color:#000000"
         offset="0" />
      <stop
         id="stop9641"
         style="stop-color:#000000;stop-opacity:0"
         offset="1" />
    </linearGradient>
    <linearGradient
       id="linearGradient12982"
       y2="643.69"
       gradientUnits="userSpaceOnUse"
       x2="2097.5"
       gradientTransform="matrix(0 -1 1 0 975.81 2263.2)"
       y1="643.69"
       x1="1141.5"
       inkscape:collect="always">
      <stop
         id="stop14496"
         style="stop-color:#8c8c8c"
         offset="0" />
      <stop
         id="stop14498"
         style="stop-color:#8c8c8c;stop-opacity:0"
         offset="1" />
    </linearGradient>
    <linearGradient
       id="linearGradient12984"
       y2="881.91"
       gradientUnits="userSpaceOnUse"
       x2="1937.4"
       gradientTransform="matrix(0 -2.6357 2.6357 0 -633.35 6476.8)"
       y1="881.91"
       x1="1454.9"
       inkscape:collect="always">
      <stop
         id="stop16450"
         style="stop-color:#181818"
         offset="0" />
      <stop
         id="stop16452"
         style="stop-color:#181818;stop-opacity:0"
         offset="1" />
    </linearGradient>
    <linearGradient
       id="linearGradient12986"
       y2="405.27"
       xlink:href="#linearGradient19503"
       gradientUnits="userSpaceOnUse"
       x2="1887.6"
       gradientTransform="matrix(0 -2.6357 2.6357 0 501.75 5099.3)"
       y1="405.27"
       x1="1412.7"
       inkscape:collect="always" />
    <linearGradient
       id="linearGradient12990"
       y2="405.27"
       gradientUnits="userSpaceOnUse"
       x2="1672.8"
       gradientTransform="matrix(-2.6357 0 0 -2.6357 5919.2 1818.2)"
       y1="405.27"
       x1="1627.5"
       inkscape:collect="always">
      <stop
         id="stop21468"
         style="stop-color:#909090"
         offset="0" />
      <stop
         id="stop21470"
         style="stop-color:#909090;stop-opacity:0"
         offset="1" />
    </linearGradient>
    <radialGradient
       id="radialGradient12992"
       xlink:href="#linearGradient5552"
       gradientUnits="userSpaceOnUse"
       cy="406.47"
       cx="383.28"
       gradientTransform="matrix(1 0 0 1.8889 0 -361.31)"
       r=".78380"
       inkscape:collect="always" />
  </defs>
  <sodipodi:namedview
     id="base"
     inkscape:zoom="0.62475336"
     height="990px"
     borderopacity="1.0"
     inkscape:current-layer="g12833"
     inkscape:cx="402.55886"
     inkscape:cy="242.49569"
     showgrid="false"
     width="765px"
     inkscape:guide-bbox="true"
     showguides="true"
     bordercolor="#666666"
     inkscape:window-x="-8"
     guidetolerance="10.0"
     objecttolerance="10.0"
     inkscape:window-y="-8"
     inkscape:window-width="1920"
     inkscape:pageopacity="0.0"
     inkscape:pageshadow="2"
     pagecolor="#ffffff"
     gridtolerance="10.0"
     inkscape:window-height="1017"
     inkscape:pagecheckerboard="true"
     inkscape:window-maximized="1" />
  <g
     id="g12833"
     transform="matrix(.24978 0 0 .24978 -20.604 -28.782)"
     clip-path="url(#clipPath12974)">
    <path
       id="path16456"
       style="fill-rule:evenodd;fill:#0b0b0b"
       d="m1483.6 1376.9l132.5-27.4 287 17.1s-25.3 17.2-45.8 13.7c-20.5-3.4-375.2 0-373.7-3.4z" />
    <path
       id="path25640"
       style="fill-rule:evenodd;fill:#646665"
       d="m1868.9 2624.7l28.4-32.4v-2452c0-0.05-14.8-8.15-13.6-3.52 1.3 4.62 2.5-10.41-17.3-12.72-19.7-2.31 2.5 2502.9 2.5 2500.6z" />
    <path
       id="path25642"
       style="fill-rule:evenodd;fill:url(#linearGradient12978)"
       d="m1870.8 2624.7l28.4-32.4v-2452c0-0.05-14.8-8.15-13.6-3.52 1.3 4.62 2.5-10.41-17.3-12.72-19.7-2.31 2.5 2502.9 2.5 2500.6z" />
    <g
       id="g5413"
       transform="matrix(2.6357 0 0 2.6357 -2779.4 -318.11)">
      <g
         id="g6636">
        <g
           id="g6641">
          <path
             id="path2220"
             sodipodi:nodetypes="csccc"
             style="fill-rule:evenodd;fill:#272727"
             d="m1085.8 200.66s110.6-20.63 525.1-33.76c1.9-0.05 0 954.5 0 954.5s-305.7-3.7-523.2-82.5c1.9 0-1.9-795.07-1.9-838.24z" />
          <path
             id="path30540"
             style="opacity:.33163;filter:url(#filter6630);fill-rule:evenodd;fill:#a0a0a0"
             sodipodi:nodetypes="csccc"
             transform="matrix(.40655 0 0 1.0631 1083.1 -26.974)"
             d="m1145.8 193.16s105-11.25 131.3-13.13c26.3-1.87 0 907.67 0 907.67s-155.7-30-157.5-37.5c-34.9-147.89 6.6-796.5 26.2-857.04z" />
          <path
             id="path6674"
             sodipodi:nodetypes="csccc"
             style="opacity:.65816;fill-rule:evenodd;fill:url(#linearGradient12980)"
             d="m1085.8 200.66s110.6-20.63 525.1-33.76c1.9-0.05 0 954.5 0 954.5s-305.7-3.7-523.2-82.5c1.9 0-1.9-795.07-1.9-838.24z" />
          <path
             id="path5568"
             style="opacity:.36735;filter:url(#filter6567);fill-rule:evenodd;fill:#a0a0a0"
             sodipodi:nodetypes="csccc"
             transform="matrix(.68163 0 0 .72783 404.27 172.56)"
             d="m1145.8 193.16s105-11.25 131.3-13.13c26.3-1.87 0 907.67 0 907.67s-155.7-30-157.5-37.5c-34.9-147.89 6.6-796.5 26.2-857.04z" />
          <path
             id="path2222"
             d="m1145.8 193.16s105-11.25 131.3-13.13c26.3-1.87 0 907.67 0 907.67s-155.7-30-157.5-37.5c-34.9-147.89 6.6-796.5 26.2-857.04z"
             sodipodi:nodetypes="csccc"
             style="opacity:.77571;filter:url(#filter17626);fill-rule:evenodd;fill:#a0a0a0"
             transform="matrix(.30402 0 0 .97769 855.87 26.326)" />
          <path
             id="path3309"
             style="filter:url(#filter4376);fill-rule:evenodd;fill:#0c0c0c"
             sodipodi:nodetypes="cscsc"
             transform="matrix(1 0 0 .99466 0 5.9635)"
             d="m1348.4 176.28s148.1-5.62 163.1-5.62l1.9 947.04s-161.3-11.3-165-18.8c-3.8-7.5-1.9-924.49 0-922.62z" />
          <path
             id="path11583"
             style="fill-rule:evenodd;fill:#f8f8f8"
             d="m1610.3 1121.2h18.4v-952.2l-18.4-2.84v955.04z" />
          <path
             id="path11585"
             style="opacity:.78061;fill-rule:evenodd;fill:url(#linearGradient12982)"
             d="m1610.3 1121.2h18.4v-952.2l-18.4-2.84v955.04z" />
        </g>
      </g>
    </g>
    <path
       id="path9526"
       sodipodi:rx="16.024454"
       sodipodi:ry="134.11772"
       style="opacity:.78061;filter:url(#filter18651);fill:#cfd0d0;fill-opacity:.94578"
       sodipodi:type="arc"
       d="m107.99 309.72a16.024 134.12 0 1 1 -32.048 0 16.024 134.12 0 1 1 32.048 0z"
       transform="matrix(2.8398 0 0 5.0189 163.84 -127.5)"
       sodipodi:cy="309.71588"
       sodipodi:cx="91.966438" />
    <path
       id="path15471"
       style="fill-rule:evenodd;fill:#1b1b1b"
       d="m1623 134.81l249.1-11.24v2497.6l-3.7 0.9v-1252.1l-238.8-5.6h-1.9l-4.7-1229.6z" />
    <path
       id="path15475"
       style="fill-rule:evenodd;fill:#353535"
       d="m1516.9 1375.8h309.9s8 1.3 21.2 0c13.3-1.3 19.9-4 19.9-4v1252.9l-17.2 11.9s-8 5.3-23.9 4-298 0-298 0-10.5 2.7-10.5-14.6c0-17.2-8-1250.2-1.4-1250.2z" />
    <path
       id="path15477"
       style="fill-rule:evenodd;fill:url(#linearGradient12984)"
       d="m1516.9 1375.8h309.9s8 1.3 21.2 0c13.3-1.3 19.9-4 19.9-4v1252.9l-17.2 11.9s-8 5.3-23.9 4-298 0-298 0-10.5 2.7-10.5-14.6c0-17.2-8-1250.2-1.4-1250.2z" />
    <path
       id="path16458"
       d="m548.76 478.78v479.37l-4.02-2.51v-477.36l4.02 0.5z"
       style="filter:url(#filter17513);fill-rule:evenodd;fill:#737373"
       transform="matrix(2.6357 0 0 2.6357 82.487 115.23)" />
    <path
       id="path17517"
       style="filter:url(#filter17513);fill-rule:evenodd;fill:#737373"
       transform="matrix(2.6357 0 0 2.6246 -2776.7 -310.98)"
       d="m1752.7 645.7v479.4l-4.1-2.5v-477.4l4.1 0.5z" />
    <path
       id="path17519"
       style="opacity:.54082;filter:url(#filter18526);fill-rule:evenodd;fill:#737373"
       transform="matrix(2.6357 0 0 2.6274 -2763.5 -315.41)"
       d="m1752.7 645.7v479.4l-4.1-2.5v-477.4l4.1 0.5z" />
    <path
       id="path18530"
       sodipodi:nodetypes="ccccc"
       style="fill-rule:evenodd;fill:#606261"
       d="m1623.1 135.48l-111.5-9.88v1248.9l116.6-10.6-5.1-1228.4z" />
    <path
       id="path18532"
       sodipodi:nodetypes="ccccc"
       style="fill-rule:evenodd;fill:url(#linearGradient12986)"
       d="m1608.6 155.8l-97-30.2v1248.9l116.6-10.6-19.6-1208.1z" />
    <path
       id="path19511"
       sodipodi:nodetypes="ccccc"
       style="fill:url(#linearGradient12986);fill-rule:evenodd"
       d="m1623.1 136.45l-111.5-10.85v1248.9l116.6-10.6-5.1-1227.4z" />
    <path
       id="path20493"
       sodipodi:nodetypes="ccccc"
       style="opacity:.56122;fill-rule:evenodd;fill:url(#linearGradient12990)"
       d="m1623.1 134.51l-111.5-8.91v1248.9l116.6-10.6-5.1-1229.4z" />
    <path
       id="path23700"
       sodipodi:nodetypes="cccc"
       style="fill-rule:evenodd;fill:#c5c5c5"
       d="m1511.3 160.33l111.3-25.55-110.1-9.62-1.2 35.17z" />
    <g
       id="g29549"
       transform="matrix(2.6357 0 0 2.6357 -2779.4 -318.11)">
      <path
         id="path26621"
         sodipodi:nodetypes="ccccc"
         style="fill-rule:evenodd;fill:#838498"
         d="m1709.7 260.04v2.41l16-0.66-0.5-1.75h-15.5z" />
      <path
         id="path26623"
         sodipodi:nodetypes="ccccc"
         style="fill-rule:evenodd;fill:#838498"
         d="m1725.2 253.26l0.3-1.97-15.3-6.78-0.5 1.97 15.5 6.78z" />
      <path
         id="path26625"
         sodipodi:nodetypes="cccsssccssccc"
         style="fill:#838498"
         d="m1717.7 222.66c-3.6 0-6.7 2.54-7.8 6.09h1.9c1-2.47 3.3-4.19 5.9-4.19 3.6 0 6.5 3.14 6.5 7.03 0 3.9-2.9 7.07-6.5 7.07-2.3 0-4.3-1.34-5.5-3.35h-2c1.3 3.1 4.2 5.25 7.5 5.25 4.5 0 8.2-4.02 8.2-8.97s-3.7-8.93-8.2-8.93zm-7.5 12.65z" />
      <path
         id="path27609"
         style="fill-rule:evenodd;fill:#838498"
         d="m1706.9 230.95h10l0.5 2.41-10.3-0.22-0.2-2.19z" />
    </g>
    <g
       id="g29555"
       transform="matrix(-1.2421 .23439 0 2.549 3690.3 -686.11)">
      <path
         id="path29557"
         sodipodi:nodetypes="ccccc"
         style="fill-rule:evenodd;fill:#838498"
         d="m1709.7 260.04v2.41l16-0.66-0.5-1.75h-15.5z" />
      <path
         id="path29559"
         sodipodi:nodetypes="ccccc"
         style="fill-rule:evenodd;fill:#838498"
         d="m1725.2 253.26l0.3-1.97-15.3-6.78-0.5 1.97 15.5 6.78z" />
      <path
         id="path29561"
         sodipodi:nodetypes="cccsssccssccc"
         style="fill:#838498"
         d="m1717.7 222.66c-3.6 0-6.7 2.54-7.8 6.09h1.9c1-2.47 3.3-4.19 5.9-4.19 3.6 0 6.5 3.14 6.5 7.03 0 3.9-2.9 7.07-6.5 7.07-2.3 0-4.3-1.34-5.5-3.35h-2c1.3 3.1 4.2 5.25 7.5 5.25 4.5 0 8.2-4.02 8.2-8.97s-3.7-8.93-8.2-8.93zm-7.5 12.65z" />
      <path
         id="path29563"
         style="fill-rule:evenodd;fill:#838498"
         d="m1706.9 230.95h10l0.5 2.41-10.3-0.22-0.2-2.19z" />
    </g>
    <path
       id="path29565"
       style="fill-rule:evenodd;fill:#2d2d2d"
       d="m1526.8 197.71v1116.2l19.9-3.4s7.9 1.1 7.9-11.5v-1095.5c0-0.03-12.9-4.64-27.8-5.79z" />
    <path
       id="path29567"
       style="fill-rule:evenodd;fill:#acacac"
       d="m1554.9 201.62v1113l3.6-3.4s1.4 1.1 1.4-11.5v-1092.3c0-0.03-2.3-4.63-5-5.78z" />
    <path
       id="path30538"
       style="fill-rule:evenodd;fill:#181818"
       d="m1530.3 284.27h12.7v938.53h-13.8l1.1-938.53z" />
    <path
       id="path13890"
       style="fill-rule:evenodd;fill:#606899"
       d="m1580.1 724.3l27.6 23.4-27.6 24.62v-48.02zm4.2 7.23v33.51l19.3-17.19-19.3-16.32z" />
    <path
       id="path5561"
       style="fill-rule:evenodd;fill:#606899"
       d="m1751.7 719.49l-32.4 30.62 32.4 31.83v-62.45zm-4.9 9.44v43.57l-22.6-22.21 22.6-21.36z" />
    <path
       id="rect6535"
       style="fill:#697490"
       d="m1758.1 724.21v50.69h14.2v-50.69h-14.2zm2.9 3.52h8.4v43.06h-8.4v-43.06z" />
    <path
       id="path13892"
       style="fill:#697490"
       d="m1574.6 727.96v38.98l-12.1 0.07v-38.99l12.1-0.06zm-2.5 2.72l-7.1 0.03v33.12l7.1-0.04v-33.11z" />
    <path
       id="path2391"
       sodipodi:rx="1.219252"
       sodipodi:ry="1.7417885"
       style="fill:#131313"
       sodipodi:type="arc"
       d="m384.94 407.08a1.2193 1.7418 0 1 1 -2.44 0 1.2193 1.7418 0 1 1 2.44 0z"
       transform="matrix(4.8361 0 0 4.8361 3.6963 7.8512)"
       sodipodi:cy="407.08185"
       sodipodi:cx="383.716" />
    <path
       id="path2393"
       sodipodi:rx="1.219252"
       sodipodi:ry="1.7417885"
       style="fill:#131313"
       sodipodi:type="arc"
       d="m384.94 407.08a1.2193 1.7418 0 1 1 -2.44 0 1.2193 1.7418 0 1 1 2.44 0z"
       transform="matrix(4.8361 0 0 4.8361 3.6963 36.868)"
       sodipodi:cy="407.08185"
       sodipodi:cx="383.716" />
    <path
       id="path2395"
       sodipodi:rx="1.219252"
       sodipodi:ry="1.7417885"
       style="fill:#131313"
       sodipodi:type="arc"
       d="m384.94 407.08a1.2193 1.7418 0 1 1 -2.44 0 1.2193 1.7418 0 1 1 2.44 0z"
       transform="matrix(4.8361 0 0 4.8361 3.6963 65.885)"
       sodipodi:cy="407.08185"
       sodipodi:cx="383.716" />
    <path
       id="path4581"
       sodipodi:rx="0.78380483"
       sodipodi:ry="1.4805202"
       style="opacity:.56122;fill:url(#radialGradient12992)"
       sodipodi:type="arc"
       d="m384.06 406.47a0.7838 1.4805 0 1 1 -1.56 0 0.7838 1.4805 0 1 1 1.56 0z"
       transform="matrix(4.8361 0 0 4.8361 6.2233 8.6936)"
       sodipodi:cy="406.47223"
       sodipodi:cx="383.28058" />
    <path
       id="path5560"
       sodipodi:rx="0.78380483"
       sodipodi:ry="1.4805202"
       style="opacity:.56122;fill:url(#radialGradient12992)"
       sodipodi:type="arc"
       d="m384.06 406.47a0.7838 1.4805 0 1 1 -1.56 0 0.7838 1.4805 0 1 1 1.56 0z"
       transform="matrix(4.8361 0 0 4.8361 6.2233 37.71)"
       sodipodi:cy="406.47223"
       sodipodi:cx="383.28058" />
    <path
       id="path5564"
       sodipodi:rx="0.78380483"
       sodipodi:ry="1.4805202"
       style="opacity:.56122;fill:url(#radialGradient12992)"
       sodipodi:type="arc"
       d="m384.06 406.47a0.7838 1.4805 0 1 1 -1.56 0 0.7838 1.4805 0 1 1 1.56 0z"
       transform="matrix(4.8361 0 0 4.8361 6.2233 66.727)"
       sodipodi:cy="406.47223"
       sodipodi:cx="383.28058" />
    <path
       id="path18655"
       sodipodi:rx="16.024454"
       sodipodi:ry="134.11772"
       style="opacity:.10714;filter:url(#filter20619);fill:#b8b9b9;fill-opacity:.94578"
       sodipodi:type="arc"
       d="m107.99 309.72a16.024 134.12 0 1 1 -32.048 0 16.024 134.12 0 1 1 32.048 0z"
       transform="matrix(3.1585 0 0 8.2176 90.197 -1217.7)"
       sodipodi:cy="309.71588"
       sodipodi:cx="91.966438" />
    <path
       id="path20623"
       sodipodi:rx="16.024454"
       sodipodi:ry="134.11772"
       style="opacity:.73061;filter:url(#filter21618);fill:#a8aaaa;fill-opacity:.94578"
       sodipodi:type="arc"
       d="m107.99 309.72a16.024 134.12 0 1 1 -32.048 0 16.024 134.12 0 1 1 32.048 0z"
       transform="matrix(2.2024 0 0 4.086 231.6 -479.49)"
       sodipodi:cy="309.71588"
       sodipodi:cx="91.966438" />
    <rect
       id="rect40666"
       style="opacity:.73061;fill:#000000"
       height="2517.7"
       width="5.8057"
       y="121.49"
       x="1459.6" />
    <rect
       id="rect41637"
       style="opacity:.73061;filter:url(#filter42608);fill:#5d5d5d"
       transform="matrix(4.8361 0 0 1.612 6.2233 925.81)"
       height="1.6977"
       width="63.948"
       y="284.46"
       x="314.65" />
    <rect
       id="rect42612"
       style="opacity:.73061;filter:url(#filter43583);fill:#000000"
       transform="matrix(4.8361 0 0 4.8361 6.2233 8.6936)"
       height="261.42"
       width="1.4834"
       y="282.51"
       x="311.93" />
  </g>
  <path
     id="path19441"
     style="fill-rule:evenodd;stroke:#24c200;stroke-width:.16227px;fill:#90f05a"
     d="m448.4 39.563l2.55 0.941v1.483l-2.61-0.961 0.06-1.463z" />
  <path
     id="path20492"
     style="fill-rule:evenodd;stroke:#0016c2;stroke-width:.16227px;fill:#1a15ff"
     d="m448.4 45.71l2.55 0.94v1.483l-2.61-0.961 0.06-1.462z" />
  <metadata
     id="metadata17077">
    <rdf:RDF>
      <cc:Work>
        <dc:format>image/svg+xml</dc:format>
        <dc:type
           rdf:resource="http://purl.org/dc/dcmitype/StillImage" />
        <cc:license
           rdf:resource="http://creativecommons.org/publicdomain/zero/1.0/" />
        <dc:publisher>
          <cc:Agent
             rdf:about="http://openclipart.org/">
            <dc:title>Openclipart</dc:title>
          </cc:Agent>
        </dc:publisher>
        <dc:title>Playstation 1</dc:title>
        <dc:date>2006-12-26T00:00:00</dc:date>
        <dc:description />
        <dc:source>https://openclipart.org/detail/26685/-by--26685</dc:source>
        <dc:creator>
          <cc:Agent>
            <dc:title>PanamaG</dc:title>
          </cc:Agent>
        </dc:creator>
      </cc:Work>
      <cc:License
         rdf:about="http://creativecommons.org/publicdomain/zero/1.0/">
        <cc:permits
           rdf:resource="http://creativecommons.org/ns#Reproduction" />
        <cc:permits
           rdf:resource="http://creativecommons.org/ns#Distribution" />
        <cc:permits
           rdf:resource="http://creativecommons.org/ns#DerivativeWorks" />
      </cc:License>
    </rdf:RDF>
  </metadata>
</svg>
