<?xml version="1.0" encoding="UTF-8" standalone="no"?>
<svg
   version="1.1"
   x="0px"
   y="0px"
   viewBox="0 0 420.4282 378.92728"
   enable-background="new 0 0 566.93 566.93"
   xml:space="preserve"
   id="svg17957"
   sodipodi:docname="Game_Console_Generic.svg"
   width="420.42819"
   height="378.92728"
   inkscape:version="1.1 (c68e22c387, 2021-05-23)"
   xmlns:inkscape="http://www.inkscape.org/namespaces/inkscape"
   xmlns:sodipodi="http://sodipodi.sourceforge.net/DTD/sodipodi-0.dtd"
   xmlns="http://www.w3.org/2000/svg"
   xmlns:svg="http://www.w3.org/2000/svg"><defs
     id="defs17961" /><sodipodi:namedview
     id="namedview17959"
     pagecolor="#505050"
     bordercolor="#eeeeee"
     borderopacity="1"
     inkscape:pageshadow="0"
     inkscape:pageopacity="0"
     inkscape:pagecheckerboard="true"
     showgrid="false"
     fit-margin-top="7"
     fit-margin-left="7"
     fit-margin-right="7"
     fit-margin-bottom="7"
     inkscape:zoom="1.4269839"
     inkscape:cx="209.88323"
     inkscape:cy="189.56065"
     inkscape:window-width="1920"
     inkscape:window-height="1017"
     inkscape:window-x="-8"
     inkscape:window-y="-8"
     inkscape:window-maximized="1"
     inkscape:current-layer="svg17957" /><g
     id="g17955"
     transform="translate(-73.252322,-94.000725)"><path
       d="m 485.138,412.927 c -1.295,-6.684 -18.658,-97.017 -18.658,-142.563 0,-41.214 -24.787,-55.109 -37.898,-56.697 l -148.041,-0.03 c 7.906,-18.796 31.48,-62.38 77.23,-52.85 64.209,13.403 71.607,3.421 92.598,-41.038 l 3.678,-7.766 c 1.828,-3.823 0.211,-8.4 -3.613,-10.228 -3.822,-1.833 -8.4,-0.209 -10.227,3.613 l -3.709,7.831 c -18.826,39.857 -20.816,44.01 -75.586,32.571 -54.16,-11.324 -86.216,37.518 -96.884,67.863 l -124.751,-0.024 -0.922,0.057 c -13.107,1.588 -37.898,15.483 -37.898,56.697 0,45.532 -17.37,135.879 -18.667,142.563 -0.947,3.209 -4.572,17.998 4.29,31.549 8.059,12.316 23.518,19.51 46.332,21.402 31.633,1.035 57.377,-13.832 76.583,-44.15 3.392,-5.355 6.351,-10.344 9.063,-14.916 12.241,-20.639 17.118,-27.773 29.767,-27.773 3.787,0 6.999,-0.115 9.317,-0.283 l 52.134,-0.014 c 2.822,0.182 6.046,0.297 9.832,0.297 12.654,0 17.532,7.141 29.78,27.791 2.707,4.566 5.664,9.549 9.053,14.898 18.584,29.33 43.314,44.201 73.514,44.201 1.018,0 2.043,-0.018 3.451,-0.074 22.434,-1.869 37.891,-9.063 45.945,-21.379 8.865,-13.55 5.24,-28.337 4.287,-31.548 z m -17.215,23.283 c -5.297,7.967 -17.154,12.932 -33.912,14.336 -0.857,0.029 -1.709,0.045 -2.559,0.045 -24.943,0 -44.754,-12.127 -60.557,-37.07 -3.301,-5.211 -6.178,-10.066 -8.816,-14.516 -12.158,-20.498 -20.938,-35.308 -42.974,-35.308 -3.403,0 -6.303,-0.102 -9.335,-0.281 l -53.128,0.014 c -2.528,0.166 -5.416,0.268 -8.82,0.268 -22.028,0 -30.807,14.804 -42.958,35.29 -2.642,4.455 -5.524,9.316 -8.832,14.533 -15.8,24.943 -35.606,37.07 -60.546,37.07 -0.848,0 -1.705,-0.016 -2.181,-0.021 -17.139,-1.428 -29.003,-6.393 -34.303,-14.359 -5.746,-8.633 -2.52,-18.895 -2.504,-18.943 l 0.267,-0.996 c 0.776,-3.951 19.03,-97.353 19.03,-145.907 0,-35.534 21.097,-40.843 24.081,-41.415 h 287.191 c 2.93,0.551 24.074,5.797 24.074,41.415 0,48.554 18.246,141.956 19.025,145.907 l 0.252,0.943 c 0.028,0.1 3.251,10.362 -2.495,18.995 z"
       id="path17937" /><path
       d="m 395.669,275.564 c 0,10.534 -8.539,19.072 -19.072,19.072 -10.539,0 -19.072,-8.538 -19.072,-19.072 0,-10.527 8.533,-19.072 19.072,-19.072 10.533,10e-4 19.072,8.545 19.072,19.072 z"
       id="path17939" /><path
       d="m 395.669,339.131 c 0,10.539 -8.539,19.072 -19.072,19.072 -10.539,0 -19.072,-8.533 -19.072,-19.072 0,-10.532 8.533,-19.065 19.072,-19.065 10.533,-10e-4 19.072,8.533 19.072,19.065 z"
       id="path17941" /><path
       d="m 419.833,326.417 c -10.533,0 -19.07,-8.532 -19.07,-19.072 0,-10.527 8.537,-19.065 19.07,-19.065 10.533,0 19.072,8.538 19.072,19.065 0,10.54 -8.539,19.072 -19.072,19.072 z"
       id="path17943" /><path
       d="m 333.354,326.417 c -10.528,0 -19.072,-8.532 -19.072,-19.072 0,-10.527 8.544,-19.065 19.072,-19.065 10.539,0 19.072,8.538 19.072,19.065 0.001,10.54 -8.532,19.072 -19.072,19.072 z"
       id="path17945" /><path
       d="m 157.317,273.258 c -1.917,3.116 -0.503,5.662 3.164,5.662 h 23.188 c 3.667,0 4.919,-2.438 2.786,-5.422 l -10.821,-12.96 c -2.127,-2.972 -5.446,-2.864 -7.364,0.251 z"
       id="path17947" /><path
       d="m 186.628,331.384 c 1.929,-3.109 0.497,-5.65 -3.158,-5.65 h -23.188 c -3.667,0 -4.913,2.439 -2.798,5.411 l 10.833,12.959 c 2.115,2.979 5.435,2.865 7.364,-0.238 z"
       id="path17949" /><path
       d="m 201.039,287.668 c -3.116,-1.929 -5.65,-0.509 -5.65,3.151 v 23.2 c 0,3.661 2.433,4.907 5.411,2.786 l 12.96,-10.833 c 2.972,-2.121 2.863,-5.44 -0.24,-7.363 z"
       id="path17951" /><path
       d="m 142.913,316.979 c 3.116,1.93 5.656,0.51 5.656,-3.151 v -23.194 c 0,-3.661 -2.439,-4.913 -5.417,-2.792 l -12.96,10.833 c -2.972,2.121 -2.864,5.44 0.24,7.364 z"
       id="path17953" /></g></svg>
