<?xml version="1.0" encoding="UTF-8" standalone="no"?>
<!-- Created with Inkscape (http://www.inkscape.org/) -->

<svg
   id="svg2"
   sodipodi:docname="Game_Console_3D_Handheld.svg"
   inkscape:export-filename="/home/stephen/Dropbox/Graphics/3dbrew.png"
   viewBox="0 0 154.42178 137.78854"
   inkscape:export-xdpi="89.993088"
   version="1.1"
   inkscape:export-ydpi="89.993088"
   inkscape:version="1.1 (c68e22c387, 2021-05-23)"
   width="154.42178"
   height="137.78854"
   xmlns:inkscape="http://www.inkscape.org/namespaces/inkscape"
   xmlns:sodipodi="http://sodipodi.sourceforge.net/DTD/sodipodi-0.dtd"
   xmlns:xlink="http://www.w3.org/1999/xlink"
   xmlns="http://www.w3.org/2000/svg"
   xmlns:svg="http://www.w3.org/2000/svg"
   xmlns:rdf="http://www.w3.org/1999/02/22-rdf-syntax-ns#"
   xmlns:cc="http://creativecommons.org/ns#"
   xmlns:dc="http://purl.org/dc/elements/1.1/">
  <defs
     id="defs4">
    <linearGradient
       id="linearGradient3164">
      <stop
         id="stop3166"
         style="stop-color:#99a9b7"
         offset="0" />
      <stop
         id="stop3168"
         style="stop-color:#99a9b7"
         offset="1" />
    </linearGradient>
    <linearGradient
       id="linearGradient3156">
      <stop
         id="stop3158"
         style="stop-color:#768591"
         offset="0" />
      <stop
         id="stop3160"
         style="stop-color:#768591"
         offset="1" />
    </linearGradient>
    <linearGradient
       id="linearGradient3148">
      <stop
         id="stop3150"
         style="stop-color:#606e79"
         offset="0" />
      <stop
         id="stop3152"
         style="stop-color:#606e79"
         offset="1" />
    </linearGradient>
    <linearGradient
       id="linearGradient3946"
       y2="1104.6"
       xlink:href="#linearGradient3148"
       gradientUnits="userSpaceOnUse"
       x2="139.66"
       y1="1104.6"
       x1="17.875"
       inkscape:collect="always" />
    <linearGradient
       id="linearGradient3954"
       y2="1162.1"
       xlink:href="#linearGradient3164"
       gradientUnits="userSpaceOnUse"
       x2="148.75999"
       y1="1162.1"
       x1="8.7636995"
       inkscape:collect="always" />
    <linearGradient
       id="linearGradient3956"
       y2="1170.9"
       xlink:href="#linearGradient3164"
       gradientUnits="userSpaceOnUse"
       x2="148.95"
       y1="1170.9"
       x1="8.5267"
       inkscape:collect="always" />
    <linearGradient
       id="linearGradient3964"
       y2="1167.2"
       xlink:href="#linearGradient3156"
       gradientUnits="userSpaceOnUse"
       x2="148.71001"
       y1="1167.2"
       x1="8.7636995"
       inkscape:collect="always" />
    <linearGradient
       id="linearGradient3972"
       y2="1140"
       xlink:href="#linearGradient3164"
       gradientUnits="userSpaceOnUse"
       x2="142.60001"
       y1="1140"
       x1="15.547"
       inkscape:collect="always" />
    <linearGradient
       id="linearGradient3974"
       y2="1136.4"
       xlink:href="#linearGradient3164"
       gradientUnits="userSpaceOnUse"
       x2="129.64999"
       y1="1136.4"
       x1="27.889"
       inkscape:collect="always" />
    <linearGradient
       id="linearGradient3982"
       y2="1104.2"
       xlink:href="#linearGradient3164"
       gradientUnits="userSpaceOnUse"
       x2="141.85001"
       y1="1104.2"
       x1="15.688"
       inkscape:collect="always" />
    <linearGradient
       id="linearGradient3990"
       y2="906.10999"
       xlink:href="#linearGradient3164"
       gradientUnits="userSpaceOnUse"
       x2="476.25"
       y1="906.10999"
       x1="451.25"
       inkscape:collect="always" />
    <linearGradient
       id="linearGradient4004"
       y2="882.73999"
       xlink:href="#linearGradient3164"
       gradientUnits="userSpaceOnUse"
       x2="128.94"
       y1="882.73999"
       x1="50.061001"
       inkscape:collect="always" />
    <linearGradient
       id="linearGradient4012"
       y2="1169.5"
       xlink:href="#linearGradient3164"
       gradientUnits="userSpaceOnUse"
       x2="36.094002"
       y1="1169.5"
       x1="18.691"
       inkscape:collect="always" />
    <linearGradient
       id="linearGradient4020"
       y2="1178.7"
       xlink:href="#linearGradient3164"
       gradientUnits="userSpaceOnUse"
       x2="124.61"
       y1="1178.7"
       x1="119.79"
       inkscape:collect="always" />
    <linearGradient
       inkscape:collect="always"
       xlink:href="#linearGradient3164"
       id="linearGradient16611"
       gradientUnits="userSpaceOnUse"
       x1="451.25"
       y1="906.10999"
       x2="476.25"
       y2="906.10999" />
    <linearGradient
       inkscape:collect="always"
       xlink:href="#linearGradient3164"
       id="linearGradient16613"
       gradientUnits="userSpaceOnUse"
       x1="451.25"
       y1="906.10999"
       x2="476.25"
       y2="906.10999" />
    <linearGradient
       inkscape:collect="always"
       xlink:href="#linearGradient3164"
       id="linearGradient16615"
       gradientUnits="userSpaceOnUse"
       x1="451.25"
       y1="906.10999"
       x2="476.25"
       y2="906.10999" />
  </defs>
  <sodipodi:namedview
     id="base"
     fit-margin-left="7"
     inkscape:zoom="4"
     borderopacity="1.0"
     inkscape:current-layer="layer1"
     inkscape:cx="47.625"
     inkscape:cy="34.625"
     inkscape:window-maximized="1"
     showgrid="false"
     fit-margin-right="7"
     showguides="true"
     bordercolor="#666666"
     inkscape:window-x="-8"
     inkscape:guide-bbox="true"
     inkscape:window-y="-8"
     fit-margin-bottom="7"
     inkscape:window-width="1920"
     inkscape:pageopacity="0.0"
     inkscape:pageshadow="2"
     pagecolor="#ffffff"
     inkscape:document-units="px"
     inkscape:window-height="1017"
     showborder="true"
     fit-margin-top="7"
     inkscape:pagecheckerboard="true" />
  <g
     id="layer1"
     inkscape:label="Layer 1"
     inkscape:groupmode="layer"
     transform="translate(-1.5263551,-1063.3)">
    <path
       id="rect3073-0-8"
       sodipodi:nodetypes="ssscsssscss"
       style="color:#000000;fill:url(#linearGradient3956);stroke:#000000;stroke-linecap:round;stroke-linejoin:round"
       inkscape:connector-curvature="0"
       d="m 20.921,1148.1 h 116.22 c 2.4764,0 4.0146,2.0358 4.4699,4.4699 l 6.6588,27.619 0.17757,8.9298 c 0.0492,2.4758 -1.9936,4.4699 -4.4699,4.4699 h -130.42 c -2.4763,0 -4.959,-2.0423 -4.4699,-4.4699 l 0.042394,-7.7089 7.3199,-28.84 c 0.60921,-2.4002 1.9936,-4.4699 4.4699,-4.4699 z" />
    <path
       id="rect3073-0"
       sodipodi:nodetypes="ssscsssscss"
       style="color:#000000;fill:url(#linearGradient3964);stroke:#000000;stroke-width:0.52588;stroke-linecap:round;stroke-linejoin:round"
       inkscape:connector-curvature="0"
       d="m 20.921,1144.4 h 116.22 c 2.4764,0 4.0146,2.0358 4.4699,4.4699 l 6.8196,32.263 0.0167,4.2853 c 0.01,2.4763 -1.9936,4.4699 -4.4699,4.4699 h -130.42 c -2.4763,0 -4.959,-2.0424 -4.4699,-4.4699 l -0.026322,-3.844 7.3886,-32.704 c 0.5457,-2.4155 1.9936,-4.4699 4.4699,-4.4699 z" />
    <rect
       id="rect3051"
       style="color:#000000;fill:url(#linearGradient3982);fill-rule:evenodd;stroke:#000000;stroke-linecap:round;stroke-linejoin:round"
       rx="5.7845998"
       ry="5.7845998"
       height="66.786003"
       width="125.16"
       y="1070.8"
       x="16.188" />
    <rect
       id="rect3051-8"
       style="color:#000000;fill:url(#linearGradient3946);stroke:#000000;stroke-width:0.52588;stroke-linecap:round;stroke-linejoin:round"
       rx="5.6044002"
       ry="5.4468999"
       height="62.887001"
       width="121.26"
       y="1073.1"
       x="18.138" />
    <path
       id="rect4298"
       sodipodi:nodetypes="sssccss"
       style="color:#000000;fill:url(#linearGradient3972);stroke:#000000;stroke-width:0.78881;stroke-linecap:round;stroke-linejoin:round"
       inkscape:connector-curvature="0"
       d="m 20.23,1132.2 h 117.69 c 2.3621,0 4.5476,1.9243 4.2637,4.2763 l -0.52588,4.3576 c -10.868,9.591 -124.89,9.334 -125.17,0 l -0.52588,-4.3576 c -0.28384,-2.352 1.9016,-4.2763 4.2637,-4.2763 z" />
    <rect
       id="rect3071"
       style="color:#000000;fill:url(#linearGradient3974);stroke:#000000;stroke-width:0.52588;stroke-linecap:round;stroke-linejoin:round"
       rx="1.3147"
       ry="5.4231"
       height="9.8601999"
       width="101.23"
       y="1131.4"
       x="28.152" />
    <path
       id="rect3073"
       sodipodi:nodetypes="sssssssss"
       style="color:#000000;fill:url(#linearGradient3954);stroke:#000000;stroke-width:0.52588;stroke-linecap:round;stroke-linejoin:round"
       inkscape:connector-curvature="0"
       d="m 17.76,1138.6 h 122.17 c 2.4763,0 1.2258,3.7092 1.6811,6.1433 l 6.8364,36.548 c 0.45531,2.4342 -1.9936,4.47 -4.4699,4.47 h -130.42 c -2.4763,0 -4.959,-2.0424 -4.4699,-4.47 l 7.3623,-36.548 c 0.48901,-2.4276 -1.1671,-6.1433 1.3092,-6.1433 z" />
    <path
       id="path3910-6"
       style="fill:#000000;stroke:#000000;stroke-width:0.52588"
       inkscape:connector-curvature="0"
       d="m 119.42,1177.1 h 4.9359 l 0.62408,3.8579 h -5.2763 z" />
    <path
       id="rect4195-1"
       style="color:#000000;fill:#000000;stroke:#000000;stroke-width:0.78881;stroke-linecap:round;stroke-linejoin:round"
       inkscape:connector-curvature="0"
       d="m 25.773,1163.5 -0.32468,2.4489 c -0.13373,1.0088 -1.0532,1.8208 -2.0615,1.8208 h -4.4047 l -0.57211,4.3153 h 3.9679 c 1.0083,0 1.7125,0.8121 1.5787,1.8208 l -0.32468,2.449 h 5.7516 l 0.32468,-2.449 c 0.13373,-1.0087 1.0532,-1.8208 2.0615,-1.8208 h 4.4047 l 0.5721,-4.3153 h -3.9679 c -1.0083,0 -1.7125,-0.812 -1.5787,-1.8208 l 0.32468,-2.4489 h -5.7516 z" />
    <ellipse
       id="path3114"
       style="color:#000000;fill:#666666;stroke:#000000;stroke-width:2;stroke-linecap:round;stroke-linejoin:round"
       transform="matrix(0.26294,0,0,0.26294,6.4594,920.06)"
       cx="275.77164"
       cy="1029.7347"
       rx="9.4390135"
       ry="5.833631" />
    <path
       id="rect3116"
       sodipodi:nodetypes="ccccc"
       style="color:#000000;fill:#ffffff;stroke:#000000;stroke-width:1.0518;stroke-linecap:round;stroke-linejoin:round"
       inkscape:connector-curvature="0"
       d="m 49.055,1142.9 h 59.424 l 2.6294,32.078 h -64.683 z" />
    <ellipse
       id="path3887"
       style="color:#000000;fill:none;stroke:#000000;stroke-width:5;stroke-linecap:round;stroke-linejoin:round"
       transform="matrix(0.26294,0,-0.024923,0.26294,28.328,920.06)"
       cx="89.5"
       cy="882.73718"
       rx="36.5"
       ry="24.375" />
    <ellipse
       id="path3887-3-4"
       style="color:#000000;fill:none;stroke:#000000;stroke-width:5.8779;stroke-linecap:round;stroke-linejoin:round"
       transform="matrix(0.18026,0,-0.017087,0.17762,28.81,995.82)"
       cx="89.5"
       cy="882.73718"
       rx="36.5"
       ry="24.375" />
    <ellipse
       id="path3887-3"
       style="color:#000000;fill:url(#linearGradient4004);stroke:#000000;stroke-width:5.8779;stroke-linecap:round;stroke-linejoin:round"
       transform="matrix(0.18026,0,-0.017087,0.17762,28.81,995.38)"
       cx="89.5"
       cy="882.73718"
       rx="36.5"
       ry="24.375" />
    <path
       id="rect3907"
       sodipodi:nodetypes="sssssssss"
       style="color:#000000;fill:none;stroke:#000000;stroke-width:1.0518;stroke-linecap:round;stroke-linejoin:round"
       inkscape:connector-curvature="0"
       d="m 46.952,1141.3 h 63.631 c 0.72834,0 1.2377,0.5904 1.3147,1.3147 l 4.207,39.572 c 0.077,0.7243 -0.58635,1.3147 -1.3147,1.3147 H 42.745 c -0.72834,0 -1.3917,-0.5904 -1.3147,-1.3147 l 4.207,-39.572 c 0.077,-0.7243 0.58635,-1.3147 1.3147,-1.3147 z" />
    <path
       id="path3910"
       style="fill:url(#linearGradient4020);stroke:#000000;stroke-width:0.26294px"
       inkscape:connector-curvature="0"
       d="m 119.92,1177.1 h 4.0439 l 0.5113,3.1607 h -4.3228 z" />
    <rect
       id="rect3930"
       style="color:#000000;fill:none;stroke:#000000;stroke-width:0.52588;stroke-linecap:round;stroke-linejoin:round"
       rx="0.46013999"
       ry="0.46013999"
       height="2.3006999"
       width="15.185"
       y="1179.3"
       x="48.858002" />
    <rect
       id="rect3930-4"
       style="color:#000000;fill:none;stroke:#000000;stroke-width:0.52588;stroke-linecap:round;stroke-linejoin:round"
       rx="0.46013999"
       ry="0.46013999"
       height="2.3006999"
       width="15.185"
       y="1179.3"
       x="71.175003" />
    <rect
       id="rect3930-4-8"
       style="color:#000000;fill:none;stroke:#000000;stroke-width:0.52588;stroke-linecap:round;stroke-linejoin:round"
       rx="0.46013999"
       ry="0.46013999"
       height="2.3006999"
       width="15.185"
       y="1179.3"
       x="93.491997" />
    <g
       id="g4046"
       transform="matrix(0.26294,0,0,0.26294,6.4594,920.06)">
      <circle
         id="path3976"
         style="color:#000000;fill:none;stroke:#000000;stroke-width:2;stroke-linecap:round;stroke-linejoin:round"
         transform="translate(-0.16467)"
         cx="87.946404"
         cy="688.73254"
         r="1.5909903" />
      <circle
         id="path3976-2"
         style="color:#000000;fill:none;stroke:#000000;stroke-width:2;stroke-linecap:round;stroke-linejoin:round"
         transform="translate(11.149)"
         cx="87.946404"
         cy="688.73254"
         r="1.5909903" />
      <circle
         id="path3976-2-8"
         style="color:#000000;fill:none;stroke:#000000;stroke-width:2;stroke-linecap:round;stroke-linejoin:round"
         transform="translate(-11.478)"
         cx="87.946404"
         cy="688.73254"
         r="1.5909903" />
      <circle
         id="path3976-2-0"
         style="color:#000000;fill:none;stroke:#000000;stroke-width:2;stroke-linecap:round;stroke-linejoin:round"
         transform="rotate(90,82.205,694.305)"
         cx="87.946404"
         cy="688.73254"
         r="1.5909903" />
      <circle
         id="path3976-2-8-2"
         style="color:#000000;fill:none;stroke:#000000;stroke-width:2;stroke-linecap:round;stroke-linejoin:round"
         transform="rotate(90,93.52,682.99)"
         cx="87.946404"
         cy="688.73254"
         r="1.5909903" />
    </g>
    <circle
       id="path4053"
       style="color:#000000;fill:#333333;stroke:#000000;stroke-width:2;stroke-linecap:round;stroke-linejoin:round"
       transform="matrix(0.26294,0,0,0.26294,6.4594,920.06)"
       cx="274.711"
       cy="595.48279"
       r="7.7781744" />
    <circle
       id="path4053-4"
       style="color:#000000;fill:none;stroke:#000000;stroke-width:2;stroke-linecap:round;stroke-linejoin:round"
       transform="matrix(0.26294,0,0,0.26294,6.4594,920.06)"
       cx="274.711"
       cy="595.48279"
       r="3.9774754" />
    <circle
       id="path4053-4-7"
       style="color:#000000;fill:#000000;stroke:#000000;stroke-width:2;stroke-linecap:round;stroke-linejoin:round"
       transform="matrix(0.26294,0,0,0.26294,6.4594,920.06)"
       cx="274.711"
       cy="595.48279"
       r="0.79549485" />
    <rect
       id="rect4091"
       style="color:#000000;fill:#f2f2f2;fill-rule:evenodd;stroke:#000000;stroke-width:0.52588;stroke-linecap:round;stroke-linejoin:round"
       rx="0.46013999"
       ry="0.46013999"
       height="5.4888"
       width="3.4182"
       y="1108"
       x="138.39" />
    <rect
       id="rect4093"
       style="color:#000000;fill:#f2f2f2;stroke:#000000;stroke-width:0.52588;stroke-linecap:round;stroke-linejoin:round"
       rx="0.46013999"
       ry="0.46013999"
       height="0.95314997"
       width="3.221"
       y="1110.3"
       x="139.11" />
    <path
       id="path4095"
       style="fill:#ffffff;stroke:#000000;stroke-width:0.26294px"
       inkscape:connector-curvature="0"
       d="m 136.58,1110.9 h 1.0518 v 6.2119 z" />
    <circle
       id="path4097"
       style="color:#000000;fill:#cccccc;stroke:#000000;stroke-width:2;stroke-linecap:round;stroke-linejoin:round"
       transform="matrix(0.26294,0,0,0.26294,6.4594,920.06)"
       cx="473"
       cy="739.23718"
       r="3.125" />
    <ellipse
       id="path4099-9"
       style="color:#000000;fill:#000000;stroke:#000000;stroke-width:2.4304;stroke-linecap:round;stroke-linejoin:round"
       transform="matrix(0.32456,0,0,0.32456,-22.12,864.72)"
       cx="463.75"
       cy="906.11218"
       rx="11.5"
       ry="8" />
    <ellipse
       id="path4099"
       style="color:#000000;fill:url(#linearGradient16611);stroke:#000000;stroke-width:2;stroke-linecap:round;stroke-linejoin:round"
       transform="matrix(0.26294,0,0,0.26294,6.3937,920.06)"
       cx="463.75"
       cy="906.11218"
       rx="11.5"
       ry="8" />
    <ellipse
       id="path4099-9-9"
       style="color:#000000;fill:#000000;stroke:#000000;stroke-width:2.4304;stroke-linecap:round;stroke-linejoin:round"
       transform="matrix(0.32456,0,0,0.32456,-15.579,859.33)"
       cx="463.75"
       cy="906.11218"
       rx="11.5"
       ry="8" />
    <ellipse
       id="path4099-4"
       style="color:#000000;fill:url(#linearGradient16613);stroke:#000000;stroke-width:2;stroke-linecap:round;stroke-linejoin:round"
       transform="matrix(0.26294,0,0,0.26294,12.934,914.67)"
       cx="463.75"
       cy="906.11218"
       rx="11.5"
       ry="8" />
    <ellipse
       id="path4099-9-9-9"
       style="color:#000000;fill:#000000;stroke:#000000;stroke-width:2.4304;stroke-linecap:round;stroke-linejoin:round"
       transform="matrix(0.32456,0,0,0.32456,-30.468,859.29)"
       cx="463.75"
       cy="906.11218"
       rx="11.5"
       ry="8" />
    <ellipse
       id="path4099-4-5"
       style="color:#000000;fill:url(#linearGradient16615);stroke:#000000;stroke-width:2;stroke-linecap:round;stroke-linejoin:round"
       transform="matrix(0.26294,0,0,0.26294,-1.9546,914.64)"
       cx="463.75"
       cy="906.11218"
       rx="11.5"
       ry="8" />
    <ellipse
       id="path4099-9-9-9-0"
       style="color:#000000;fill:#000000;stroke:#000000;stroke-width:2.4304;stroke-linecap:round;stroke-linejoin:round"
       transform="matrix(0.32456,0,0,0.32456,-23.599,854.43)"
       cx="463.75"
       cy="906.11218"
       rx="11.5"
       ry="8" />
    <ellipse
       id="path4099-4-5-7"
       style="color:#000000;fill:url(#linearGradient3990);stroke:#000000;stroke-width:2;stroke-linecap:round;stroke-linejoin:round"
       transform="matrix(0.26294,0,0,0.26294,4.9147,909.78)"
       cx="463.75"
       cy="906.11218"
       rx="11.5"
       ry="8" />
    <path
       id="rect4195"
       style="color:#000000;fill:url(#linearGradient4012);stroke:#000000;stroke-width:0.52588;stroke-linecap:round;stroke-linejoin:round"
       inkscape:connector-curvature="0"
       d="m 25.731,1163.6 -0.29885,2.2542 c -0.1231,0.9285 -0.96939,1.6759 -1.8975,1.6759 h -4.0543 l -0.5266,3.972 h 3.6522 c 0.92813,0 1.5762,0.7475 1.4531,1.676 l -0.29885,2.2541 h 5.294 l 0.29885,-2.2541 c 0.1231,-0.9285 0.96939,-1.676 1.8975,-1.676 h 4.0543 l 0.52659,-3.972 h -3.6522 c -0.92813,0 -1.5762,-0.7474 -1.4531,-1.6759 l 0.29885,-2.2542 h -5.294 z" />
    <path
       id="path4280"
       style="fill:none;stroke:#000000;stroke-width:0.52588"
       inkscape:connector-curvature="0"
       d="m 26.771,1173.9 0.23007,-2.0378" />
    <path
       id="path4282"
       style="fill:none;stroke:#000000;stroke-width:0.52588"
       inkscape:connector-curvature="0"
       d="m 27.889,1166.4 0.26294,-2.1035" />
    <path
       id="path4284"
       style="fill:none;stroke:#000000;stroke-width:0.52588"
       inkscape:connector-curvature="0"
       d="m 31.406,1169.1 2.8266,-0.1314" />
    <path
       id="path4286"
       style="fill:none;stroke:#000000;stroke-width:0.52588"
       inkscape:connector-curvature="0"
       d="m 23.649,1169.1 -2.9252,-0.1314" />
    <ellipse
       id="path4288"
       style="color:#000000;fill:#ffffff;stroke:#000000;stroke-width:1.375;stroke-linecap:round;stroke-linejoin:round"
       transform="matrix(0.38245,0,0,0.38245,-46.424,797.86)"
       cx="442.47208"
       cy="1020.5424"
       rx="3.3587573"
       ry="1.9445436" />
    <ellipse
       id="path4290"
       style="color:#000000;fill:none;stroke:#000000;stroke-width:2;stroke-linecap:round;stroke-linejoin:round"
       transform="matrix(0.26294,0,0,0.26294,6.4594,920.06)"
       cx="492.14633"
       cy="1020.1888"
       rx="3.5355339"
       ry="2.1213202" />
    <rect
       id="rect4294"
       style="color:#000000;fill:none;stroke:#000000;stroke-width:0.52588;stroke-linecap:round;stroke-linejoin:round"
       height="1.2085"
       width="2.6959"
       y="1188.6"
       x="139.35001" />
    <rect
       id="rect4296"
       style="color:#000000;fill:#ffffff;stroke:#000000;stroke-width:0.78881;stroke-linecap:round;stroke-linejoin:round"
       height="43.877998"
       width="72.696999"
       y="1083.9"
       x="42.715" />
    <ellipse
       id="path3114-1"
       style="color:#000000;fill:#000000;stroke:#000000;stroke-width:3.0938;stroke-linecap:round;stroke-linejoin:round"
       transform="matrix(0.16998,0,0,0.16998,32.096,1015.2)"
       cx="275.77164"
       cy="1029.7347"
       rx="9.4390135"
       ry="5.833631" />
  </g>
  <metadata
     id="metadata16242">
    <rdf:RDF>
      <cc:Work>
        <dc:format>image/svg+xml</dc:format>
        <dc:type
           rdf:resource="http://purl.org/dc/dcmitype/StillImage" />
        <cc:license
           rdf:resource="http://creativecommons.org/publicdomain/zero/1.0/" />
        <dc:publisher>
          <cc:Agent
             rdf:about="http://openclipart.org/">
            <dc:title>Openclipart</dc:title>
          </cc:Agent>
        </dc:publisher>
        <dc:title>Handheld 3D Game System</dc:title>
        <dc:date>2011-08-24T21:39:47</dc:date>
        <dc:description>A drawing of a handheld gaming system, similar to Nintendo's 3DS.\n\nNOTE: The PNG previews generated by this web site are distorted by a font rendering issue. These distortions are not present in the SVG drawing itself.</dc:description>
        <dc:source>https://openclipart.org/detail/158047/handheld-3d-game-system-by-bhspitmonkey</dc:source>
        <dc:creator>
          <cc:Agent>
            <dc:title>BHSPitMonkey</dc:title>
          </cc:Agent>
        </dc:creator>
        <dc:subject>
          <rdf:Bag>
            <rdf:li>3D</rdf:li>
            <rdf:li>game</rdf:li>
            <rdf:li>gaming</rdf:li>
            <rdf:li>handheld</rdf:li>
          </rdf:Bag>
        </dc:subject>
      </cc:Work>
      <cc:License
         rdf:about="http://creativecommons.org/publicdomain/zero/1.0/">
        <cc:permits
           rdf:resource="http://creativecommons.org/ns#Reproduction" />
        <cc:permits
           rdf:resource="http://creativecommons.org/ns#Distribution" />
        <cc:permits
           rdf:resource="http://creativecommons.org/ns#DerivativeWorks" />
      </cc:License>
    </rdf:RDF>
  </metadata>
</svg>
