<?xml version="1.0" encoding="UTF-8" standalone="no"?>
<!-- Generator: Adobe Illustrator 19.0.0, SVG Export Plug-In . SVG Version: 6.00 Build 0)  -->

<svg
   version="1.1"
   id="Layer_1"
   x="0px"
   y="0px"
   viewBox="0 0 490.1 490.1"
   style="enable-background:new 0 0 490.1 490.1;"
   xml:space="preserve"
   sodipodi:docname="Laptop_Dock.svg"
   inkscape:version="1.1 (c68e22c387, 2021-05-23)"
   xmlns:inkscape="http://www.inkscape.org/namespaces/inkscape"
   xmlns:sodipodi="http://sodipodi.sourceforge.net/DTD/sodipodi-0.dtd"
   xmlns="http://www.w3.org/2000/svg"
   xmlns:svg="http://www.w3.org/2000/svg"><defs
   id="defs19203" /><sodipodi:namedview
   id="namedview19201"
   pagecolor="#505050"
   bordercolor="#eeeeee"
   borderopacity="1"
   inkscape:pageshadow="0"
   inkscape:pageopacity="0"
   inkscape:pagecheckerboard="true"
   showgrid="false"
   inkscape:zoom="1.6506835"
   inkscape:cx="245.05"
   inkscape:cy="245.05"
   inkscape:window-width="1920"
   inkscape:window-height="1017"
   inkscape:window-x="-8"
   inkscape:window-y="-8"
   inkscape:window-maximized="1"
   inkscape:current-layer="Layer_1" />
<g
   id="g19168">
	<g
   id="g19166">
		<path
   style="fill:#2C2F33;"
   d="M123.25,253.8h79.5c2.8,8,9.9,13.7,18.1,13.7h48.4c8.2,0,15.3-5.7,18.1-13.7h79.6    c5.5,0,9.9-4.4,9.9-9.9s-4.4-9.9-9.9-9.9h-88.1c-5.5,0-9.9,4.4-9.9,9.9v2.1c0,0.9-0.2,1.4-0.4,1.8h-46.8c-0.2-0.3-0.4-0.9-0.4-1.8    v-2.1c0-5.5-4.4-9.9-9.9-9.9h-88.1c-5.5,0-9.9,4.4-9.9,9.9S117.75,253.8,123.25,253.8z"
   id="path19160" />
		<path
   style="fill:#2C2F33;"
   d="M49.05,28.6v212.2h-23.5c-5.5,0-9.9,4.4-9.9,9.9v21.9c0,23.6,19.2,42.9,42.9,42.9h373.1    c23.6,0,42.9-19.2,42.9-42.9v-21.9c0-5.5-4.4-9.9-9.9-9.9h-23.6V28.6c0-0.3,0-0.6,0-1c-1.6-15.7-14.4-27.6-29.7-27.6H77.75    C61.85,0,49.05,12.8,49.05,28.6z M421.25,29.2v221.6c0,5.5,4.5,9.9,10,9.9h23.5v12c0,12.7-10.4,23.1-23.1,23.1H58.45    c-12.7,0-23.1-10.4-23.1-23.1v-12h23.5c5.5,0,9.9-4.4,9.9-9.9V28.6c0-4.9,4-8.9,8.9-8.9h333.6    C416.25,19.8,420.55,23.9,421.25,29.2z"
   id="path19162" />
		<path
   style="fill:#3C92CA;"
   d="M468.45,433.2h-177.5c-3.9-18-18.1-32.2-36-36v-41.4c0-5.5-4.4-9.9-9.9-9.9s-9.9,4.4-9.9,9.9v41.4    c-18,3.9-32.2,18-36,36H21.65c-5.5,0-9.9,4.4-9.9,9.9s4.4,9.9,9.9,9.9h177.5c4.6,21.2,23.4,37.1,45.9,37.1s41.4-15.9,45.9-37.1    h177.5c5.5,0,9.9-4.4,9.9-9.9S473.95,433.2,468.45,433.2z M245.05,470.2c-15,0-27.2-12.2-27.2-27.2s12.2-27.2,27.2-27.2    c15,0,27.2,12.2,27.2,27.2S260.05,470.2,245.05,470.2z"
   id="path19164" />
	</g>
</g>
<g
   id="g19170">
</g>
<g
   id="g19172">
</g>
<g
   id="g19174">
</g>
<g
   id="g19176">
</g>
<g
   id="g19178">
</g>
<g
   id="g19180">
</g>
<g
   id="g19182">
</g>
<g
   id="g19184">
</g>
<g
   id="g19186">
</g>
<g
   id="g19188">
</g>
<g
   id="g19190">
</g>
<g
   id="g19192">
</g>
<g
   id="g19194">
</g>
<g
   id="g19196">
</g>
<g
   id="g19198">
</g>
</svg>
