<?xml version="1.0" encoding="UTF-8" standalone="no"?>
<!-- Created with Inkscape (http://www.inkscape.org/) -->

<svg
   id="svg15884"
   sodipodi:docname="PDU.svg"
   viewBox="0 0 509.95 413.66"
   version="1.1"
   inkscape:version="1.1 (c68e22c387, 2021-05-23)"
   xmlns:inkscape="http://www.inkscape.org/namespaces/inkscape"
   xmlns:sodipodi="http://sodipodi.sourceforge.net/DTD/sodipodi-0.dtd"
   xmlns="http://www.w3.org/2000/svg"
   xmlns:svg="http://www.w3.org/2000/svg"
   xmlns:rdf="http://www.w3.org/1999/02/22-rdf-syntax-ns#"
   xmlns:cc="http://creativecommons.org/ns#"
   xmlns:dc="http://purl.org/dc/elements/1.1/">
  <defs
     id="defs19834" />
  <sodipodi:namedview
     id="base"
     bordercolor="#666666"
     inkscape:pageshadow="2"
     inkscape:window-y="-8"
     pagecolor="#ffffff"
     inkscape:window-height="1017"
     inkscape:window-maximized="1"
     inkscape:zoom="0.98994949"
     inkscape:window-x="-8"
     showgrid="false"
     borderopacity="1.0"
     inkscape:current-layer="layer1"
     inkscape:cx="496.48998"
     inkscape:cy="163.13964"
     inkscape:window-width="1920"
     inkscape:pageopacity="1"
     inkscape:document-units="px"
     inkscape:pagecheckerboard="true" />
  <g
     id="layer1"
     inkscape:label="Ebene 1"
     inkscape:groupmode="layer"
     transform="translate(-127.88 -276.96)">
    <g
       id="g15564"
       transform="matrix(1.3031 -.14584 .14584 1.3031 -160.15 -166.58)">
      <path
         id="path15220"
         sodipodi:nodetypes="czsc"
         style="color:#000000;stroke:#000000;stroke-linecap:round;stroke-width:7.0866;fill:none"
         d="m194 590.36c-82.718 43.662-22.584 99.336 36 84.5s53.5-33 110-43.5c51.447-9.561 82.5-41.5 82.5-41.5" />
      <path
         id="rect15201"
         d="m-76.452 583.67 384.64 5.8114c2.0266 0 3.658 1.115 3.658 2.5l8.8057 45.18c0 1.385-1.6315 2.5-3.658 2.5h-393.44c-2.0266 0-3.658-1.115-3.658-2.5v-50.991c0-1.385 1.6315-2.5 3.658-2.5z"
         sodipodi:nodetypes="ccccccccc"
         style="color:#000000;stroke:#1a1f22;stroke-linecap:round;stroke-width:1.7717;fill:#1a1f22"
         transform="rotate(-25.284)" />
      <path
         id="path15216"
         sodipodi:nodetypes="ccccc"
         style="color:#000000;stroke:#1a1f22;stroke-linecap:round;stroke-width:1.7717;fill:#d9d6d2"
         d="m526.48 409.83-324.47 147.33 17.52 35.87 328.2-154.18-21.25-29.02z" />
      <path
         id="path15206"
         sodipodi:nodetypes="ccccc"
         style="color:#000000;stroke:#1a1f22;stroke-linecap:round;stroke-width:1.7717;fill:#a2a6a1"
         d="m416.88 458.62-214.87 98.54 17.52 35.87 219.31-102.56-21.96-31.85z" />
      <path
         id="path15218"
         sodipodi:nodetypes="cccscc"
         style="color:#000000;stroke:#1a1f22;stroke-linecap:round;stroke-width:1.7717;fill:#d9d6d2"
         d="m561.62 440.74-3.625 17.25-349.62 167s-1.625 1.125-2.875-0.5-5.875-14.125-5.875-14.125l362-169.62z" />
      <path
         id="path14832-2"
         style="color:#000000;fill:#000000"
         d="m433.45 602.43s2.2153-11.899 10.364-16.861c8.1486-4.9617 20.113-5.5863 20.113-5.5863l-17.99-24.12s-0.81162 7.5219-7.5378 12.301c-6.7262 4.7796-23.037 10.078-23.037 10.078l18.092 24.185z" />
      <path
         id="rect14790-8"
         style="color:#000000;fill:#313940"
         d="m431.62 603.89-17.983-24.613c-0.55042-0.75336-0.38705-1.803 0.36631-2.3534l1.3598-0.99356c0.75335-0.55043 1.803-0.38706 2.3534 0.3663l17.983 24.613c0.55042 0.75336 0.38706 1.803-0.3663 2.3534l-1.3598 0.99355c-0.75336 0.55043-1.803 0.38706-2.3534-0.36629z" />
      <path
         id="rect14792-6"
         style="color:#000000;fill:#313940"
         d="m435.36 596.42-14.588-19.966c-0.4465-0.61112-0.31398-1.4626 0.29715-1.9091l1.1031-0.80597c0.61114-0.44651 1.4626-0.31399 1.9091 0.29713l14.588 19.966c0.44651 0.61113 0.31398 1.4626-0.29714 1.9091l-1.1031 0.80596c-0.61113 0.44652-1.4626 0.314-1.9091-0.29713z" />
      <path
         id="rect14794-0"
         style="color:#000000;fill:#313940"
         d="m439.65 590.19-11.376-15.57c-0.34818-0.47655-0.24484-1.1405 0.23171-1.4887l0.8602-0.62849c0.47654-0.34818 1.1405-0.24484 1.4887 0.23171l11.376 15.57c0.34818 0.47655 0.24484 1.1405-0.2317 1.4887l-0.8602 0.62848c-0.47655 0.34819-1.1405 0.24485-1.4887-0.2317z" />
      <path
         id="rect14796-2"
         style="color:#000000;fill:#313940"
         d="m444.48 586.71-11.38-15.57c-0.34817-0.47654-0.24484-1.1405 0.23171-1.4887l0.86019-0.62849c0.47655-0.34818 1.1405-0.24484 1.4887 0.23171l11.376 15.57c0.34818 0.47655 0.24483 1.1405-0.23172 1.4887l-0.86019 0.62849c-0.47655 0.34818-1.1405 0.24484-1.4887-0.23171z" />
      <path
         id="rect14798-4"
         style="color:#000000;fill:#313940"
         d="m450.87 584.41-13.342-18.261c-0.40838-0.55894-0.28717-1.3377 0.27177-1.7461l1.0089-0.73716c0.55894-0.40838 1.3377-0.28717 1.7461 0.27177l13.342 18.261c0.40838 0.55895 0.28718 1.3377-0.27176 1.7461l-1.0089 0.73716c-0.55894 0.40838-1.3377 0.28717-1.7461-0.27177z" />
      <path
         id="rect14800-8"
         style="color:#000000;fill:#313940"
         d="m456.96 582.5-15.506-21.223c-0.4746-0.64958-0.33374-1.5546 0.31584-2.0292l1.1725-0.85667c0.64958-0.47461 1.5546-0.33374 2.0292 0.31583l15.506 21.223c0.4746 0.64958 0.33373 1.5546-0.31584 2.0292l-1.1725 0.85668c-0.64958 0.47461-1.5546 0.33374-2.0292-0.31584z" />
      <path
         id="rect14800-2-6"
         style="color:#000000;fill:#000000"
         d="m498.31 555.33-21.518 15.093c-0.65861 0.46195-1.5607 0.30364-2.0227-0.35499l-0.83386-1.1889c-0.46196-0.65861-0.30364-1.5607 0.35499-2.0227l21.518-15.093c0.65864-0.46196 1.5608-0.30364 2.0227 0.35499l0.83385 1.1888c0.46197 0.65864 0.30364 1.5608-0.35499 2.0227z" />
      <path
         id="path15277"
         style="color:#000000;fill:#000000"
         d="m485.25 536.79-21.155 15.597c-0.6475 0.47738-1.5531 0.34044-2.0305-0.30709l-0.86173-1.1688c-0.4774-0.64751-0.34044-1.5531 0.30708-2.0305l21.155-15.597c0.64754-0.47741 1.5532-0.34046 2.0306 0.30707l0.86172 1.1688c0.47741 0.64753 0.34044 1.5531-0.30708 2.0306z" />
      <path
         id="rect14790-1-0"
         style="color:#000000;fill:#313940"
         d="m465.83 584.24-23.54-32.22c-0.80539-1.1023-0.84729-2.4329-0.0939-2.9833l20.049-14.649c0.75336-0.55043 2.0082-0.10612 2.8136 0.9962l23.541 32.22c0.8054 1.1023 0.84729 2.4329 0.0939 2.9833l-20.049 14.649c-0.75336 0.55042-2.0082 0.10612-2.8136-0.9962z" />
      <path
         id="path14673-8"
         sodipodi:rx="96.0868"
         sodipodi:ry="119.45054"
         style="opacity:.54275;color:#000000;stroke:#000000;stroke-linecap:square;stroke-width:5.889;fill:#d9d6d2"
         sodipodi:type="arc"
         d="m2416.9 504.1c0 65.971-43.02 119.45-96.087 119.45s-96.087-53.48-96.087-119.45c0-65.971 43.02-119.45 96.087-119.45s96.087 53.48 96.087 119.45z"
         transform="matrix(.036765 -.15949 .14717 .038784 214.56 849.66)"
         sodipodi:cy="504.1019"
         sodipodi:cx="2320.8254" />
      <path
         id="path14675-9"
         sodipodi:nodetypes="ccsscssscc"
         style="opacity:.54275;color:#000000;fill:#1a1f22"
         d="m356.52 499.77c0.008-0.0163 0.009-0.0366 0.0179-0.053 2.9848-5.1629 12.831-9.0796 20.279-7.1682 8.7184 2.2374 11.808 11.117 10.146 18.14-0.005 0.0243-0.0123 0.0468-0.0182 0.0706 2.3707-1.8196 4.077-4.2961 4.7618-7.2668 1.8562-8.0524-4.5119-16.667-14.221-19.225-9.7087-2.5586-19.082 1.9036-20.938 9.956-0.42595 1.8477-0.40798 3.7205-0.027 5.5465l-0.00005 0.0001z" />
      <path
         id="path15373"
         sodipodi:rx="96.0868"
         sodipodi:ry="119.45054"
         style="opacity:.54275;color:#000000;stroke:#000000;stroke-linecap:square;stroke-width:5.889;fill:#d9d6d2"
         sodipodi:type="arc"
         d="m2416.9 504.1c0 65.971-43.02 119.45-96.087 119.45s-96.087-53.48-96.087-119.45c0-65.971 43.02-119.45 96.087-119.45s96.087 53.48 96.087 119.45z"
         transform="matrix(.036765 -.15949 .14717 .038784 250.06 835.41)"
         sodipodi:cy="504.1019"
         sodipodi:cx="2320.8254" />
      <path
         id="path15375"
         sodipodi:nodetypes="ccsscssscc"
         style="opacity:.54275;color:#000000;fill:#1a1f22"
         d="m392.02 485.52c0.008-0.0163 0.009-0.0366 0.0179-0.053 2.9848-5.1629 12.831-9.0796 20.279-7.1682 8.7184 2.2374 11.808 11.117 10.146 18.14-0.005 0.0243-0.0123 0.0468-0.0182 0.0706 2.3707-1.8196 4.077-4.2961 4.7618-7.2668 1.8562-8.0524-4.5119-16.667-14.221-19.225-9.7087-2.5586-19.082 1.9036-20.938 9.956-0.42595 1.8477-0.40798 3.7205-0.027 5.5465l-0.00005 0.0001z" />
      <path
         id="path15377"
         sodipodi:rx="96.0868"
         sodipodi:ry="119.45054"
         style="opacity:.54275;color:#000000;stroke:#000000;stroke-linecap:square;stroke-width:5.889;fill:#d9d6d2"
         sodipodi:type="arc"
         d="m2416.9 504.1c0 65.971-43.02 119.45-96.087 119.45s-96.087-53.48-96.087-119.45c0-65.971 43.02-119.45 96.087-119.45s96.087 53.48 96.087 119.45z"
         transform="matrix(.036765 -.15949 .14717 .038784 180.06 865.66)"
         sodipodi:cy="504.1019"
         sodipodi:cx="2320.8254" />
      <path
         id="path15379"
         sodipodi:nodetypes="ccsscssscc"
         style="opacity:.54275;color:#000000;fill:#1a1f22"
         d="m322.02 515.77c0.008-0.0163 0.009-0.0366 0.0179-0.053 2.9848-5.1629 12.831-9.0796 20.279-7.1682 8.7184 2.2374 11.808 11.117 10.146 18.14-0.005 0.0243-0.0123 0.0468-0.0182 0.0706 2.3707-1.8196 4.077-4.2961 4.7618-7.2668 1.8562-8.0524-4.5119-16.667-14.221-19.225-9.7087-2.5586-19.082 1.9036-20.938 9.956-0.42595 1.8477-0.40798 3.7205-0.027 5.5465l-0.00005 0.0001z" />
      <path
         id="path15381"
         sodipodi:rx="96.0868"
         sodipodi:ry="119.45054"
         style="opacity:.54275;color:#000000;stroke:#000000;stroke-linecap:square;stroke-width:5.889;fill:#d9d6d2"
         sodipodi:type="arc"
         d="m2416.9 504.1c0 65.971-43.02 119.45-96.087 119.45s-96.087-53.48-96.087-119.45c0-65.971 43.02-119.45 96.087-119.45s96.087 53.48 96.087 119.45z"
         transform="matrix(.036765 -.15949 .14717 .038784 145.06 882.66)"
         sodipodi:cy="504.1019"
         sodipodi:cx="2320.8254" />
      <path
         id="path15383"
         sodipodi:nodetypes="ccsscssscc"
         style="opacity:.54275;color:#000000;fill:#1a1f22"
         d="m287.02 532.77c0.008-0.0163 0.009-0.0366 0.0179-0.053 2.9848-5.1629 12.831-9.0796 20.279-7.1682 8.7184 2.2374 11.808 11.117 10.146 18.14-0.005 0.0243-0.0123 0.0468-0.0182 0.0706 2.3707-1.8196 4.077-4.2961 4.7618-7.2668 1.8562-8.0524-4.5119-16.667-14.221-19.225-9.7087-2.5586-19.082 1.9036-20.938 9.956-0.42595 1.8477-0.40798 3.7205-0.027 5.5465l-0.00005 0.0001z" />
      <path
         id="path15385"
         sodipodi:rx="96.0868"
         sodipodi:ry="119.45054"
         style="opacity:.54275;color:#000000;stroke:#000000;stroke-linecap:square;stroke-width:5.889;fill:#d9d6d2"
         sodipodi:type="arc"
         d="m2416.9 504.1c0 65.971-43.02 119.45-96.087 119.45s-96.087-53.48-96.087-119.45c0-65.971 43.02-119.45 96.087-119.45s96.087 53.48 96.087 119.45z"
         transform="matrix(.036765 -.15949 .14717 .038784 109.06 899.66)"
         sodipodi:cy="504.1019"
         sodipodi:cx="2320.8254" />
      <path
         id="path15387"
         sodipodi:nodetypes="ccsscssscc"
         style="opacity:.54275;color:#000000;fill:#1a1f22"
         d="m251.02 549.77c0.008-0.0163 0.009-0.0366 0.0179-0.053 2.9848-5.1629 12.831-9.0796 20.279-7.1682 8.7184 2.2374 11.808 11.117 10.146 18.14-0.005 0.0243-0.0123 0.0468-0.0182 0.0706 2.3707-1.8196 4.077-4.2961 4.7618-7.2668 1.8562-8.0524-4.5119-16.667-14.221-19.225-9.7087-2.5586-19.082 1.9036-20.938 9.956-0.42595 1.8477-0.40798 3.7205-0.027 5.5465l-0.00005 0.0001z" />
      <path
         id="path15389"
         sodipodi:rx="96.0868"
         sodipodi:ry="119.45054"
         style="opacity:.54275;color:#000000;stroke:#000000;stroke-linecap:square;stroke-width:5.889;fill:#d9d6d2"
         sodipodi:type="arc"
         d="m2416.9 504.1c0 65.971-43.02 119.45-96.087 119.45s-96.087-53.48-96.087-119.45c0-65.971 43.02-119.45 96.087-119.45s96.087 53.48 96.087 119.45z"
         transform="matrix(.036765 -.15949 .14717 .038784 71.558 915.66)"
         sodipodi:cy="504.1019"
         sodipodi:cx="2320.8254" />
      <path
         id="path15391"
         sodipodi:nodetypes="ccsscssscc"
         style="opacity:.54275;color:#000000;fill:#1a1f22"
         d="m213.52 565.77c0.008-0.0163 0.009-0.0366 0.0179-0.053 2.9848-5.1629 12.831-9.0796 20.279-7.1682 8.7184 2.2374 11.808 11.117 10.146 18.14-0.005 0.0243-0.0123 0.0468-0.0182 0.0706 2.3707-1.8196 4.077-4.2961 4.7618-7.2668 1.8562-8.0524-4.5119-16.667-14.221-19.225-9.7087-2.5586-19.082 1.9036-20.938 9.956-0.42595 1.8477-0.40798 3.7205-0.027 5.5465l-0.00005 0.0001z" />
      <path
         id="path15393"
         style="color:#000000;stroke:#000000;stroke-linecap:round;stroke-width:.53150;fill:#ff0045"
         d="m500.5 430.11 11.875 14.375 12.75-6-8-15.5-3.25-0.25-12.625 5.75-0.75 1.625z" />
      <path
         id="path15395"
         style="color:#000000;stroke:#000000;stroke-linecap:round;stroke-width:.53150;fill:#ff0045"
         d="m500.5 430.11 3.5-0.75 13.125-6.125" />
      <path
         id="path15397"
         style="color:#000000;stroke:#000000;stroke-linecap:round;stroke-width:.53150;fill:#ff0045"
         d="m504.12 429.49 8.25 14.625" />
      <path
         id="path15373-3"
         sodipodi:rx="96.0868"
         sodipodi:ry="119.45054"
         style="opacity:.54275;color:#000000;stroke:#000000;stroke-linecap:square;stroke-width:5.889;fill:#d9d6d2"
         sodipodi:type="arc"
         d="m2416.9 504.1c0 65.971-43.02 119.45-96.087 119.45s-96.087-53.48-96.087-119.45c0-65.971 43.02-119.45 96.087-119.45s96.087 53.48 96.087 119.45z"
         transform="matrix(.035092 -.15223 .14047 .037019 292.91 802)"
         sodipodi:cy="504.1019"
         sodipodi:cx="2320.8254" />
      <path
         id="path15375-4"
         sodipodi:nodetypes="ccsscssscc"
         style="opacity:.54275;color:#000000;fill:#1a1f22"
         d="m428.41 468.04c0.008-0.0156 0.009-0.0349 0.0171-0.0506 2.8489-4.9279 12.247-8.6664 19.356-6.842 8.3216 2.1356 11.271 10.611 9.6838 17.315-0.005 0.0232-0.0117 0.0447-0.0174 0.0674 2.2628-1.7368 3.8914-4.1005 4.5451-6.936 1.7718-7.6859-4.3066-15.908-13.573-18.35-9.2668-2.4421-18.213 1.8169-19.985 9.5028-0.40657 1.7636-0.38941 3.5512-0.0258 5.2941l-0.00005 0.00009z" />
      <path
         id="path15373-6"
         sodipodi:rx="96.0868"
         sodipodi:ry="119.45054"
         style="opacity:.54275;color:#000000;stroke:#000000;stroke-linecap:square;stroke-width:5.889;fill:#d9d6d2"
         sodipodi:type="arc"
         d="m2416.9 504.1c0 65.971-43.02 119.45-96.087 119.45s-96.087-53.48-96.087-119.45c0-65.971 43.02-119.45 96.087-119.45s96.087 53.48 96.087 119.45z"
         transform="matrix(.035092 -.15223 .14047 .037019 327.16 786)"
         sodipodi:cy="504.1019"
         sodipodi:cx="2320.8254" />
      <path
         id="path15375-0"
         sodipodi:nodetypes="ccsscssscc"
         style="opacity:.54275;color:#000000;fill:#1a1f22"
         d="m462.66 452.04c0.008-0.0156 0.009-0.0349 0.0171-0.0506 2.8489-4.9279 12.247-8.6664 19.356-6.842 8.3216 2.1356 11.271 10.611 9.6838 17.315-0.005 0.0232-0.0117 0.0447-0.0174 0.0674 2.2628-1.7368 3.8914-4.1005 4.5451-6.936 1.7718-7.6859-4.3066-15.908-13.573-18.35-9.2668-2.4421-18.213 1.8169-19.985 9.5028-0.40657 1.7636-0.38941 3.5512-0.0258 5.2941l-0.00005 0.00009z" />
    </g>
  </g>
  <metadata
     id="metadata19831">
    <rdf:RDF>
      <cc:Work>
        <dc:format>image/svg+xml</dc:format>
        <dc:type
           rdf:resource="http://purl.org/dc/dcmitype/StillImage" />
        <cc:license
           rdf:resource="http://creativecommons.org/publicdomain/zero/1.0/" />
        <dc:publisher>
          <cc:Agent
             rdf:about="http://openclipart.org/">
            <dc:title>Openclipart</dc:title>
          </cc:Agent>
        </dc:publisher>
        <dc:title>Extension Lead</dc:title>
        <dc:date>2010-02-02T10:16:06</dc:date>
        <dc:description>Simple Extension Lead</dc:description>
        <dc:source>https://openclipart.org/detail/29166/extension-lead-by-snakedraw</dc:source>
        <dc:creator>
          <cc:Agent>
            <dc:title>Snakedraw</dc:title>
          </cc:Agent>
        </dc:creator>
        <dc:subject>
          <rdf:Bag>
            <rdf:li>cable</rdf:li>
            <rdf:li>electronics</rdf:li>
            <rdf:li>extension lead</rdf:li>
            <rdf:li>multiple socket</rdf:li>
            <rdf:li>plug</rdf:li>
            <rdf:li>unchecked</rdf:li>
          </rdf:Bag>
        </dc:subject>
      </cc:Work>
      <cc:License
         rdf:about="http://creativecommons.org/publicdomain/zero/1.0/">
        <cc:permits
           rdf:resource="http://creativecommons.org/ns#Reproduction" />
        <cc:permits
           rdf:resource="http://creativecommons.org/ns#Distribution" />
        <cc:permits
           rdf:resource="http://creativecommons.org/ns#DerivativeWorks" />
      </cc:License>
    </rdf:RDF>
  </metadata>
</svg>
