<?xml version="1.0" encoding="UTF-8" standalone="no"?>
<svg
   id="svg548"
   height="316.72427pt"
   width="301.98291pt"
   version="1.1"
   sodipodi:docname="Printer_Large.svg"
   inkscape:version="1.1 (c68e22c387, 2021-05-23)"
   xmlns:inkscape="http://www.inkscape.org/namespaces/inkscape"
   xmlns:sodipodi="http://sodipodi.sourceforge.net/DTD/sodipodi-0.dtd"
   xmlns="http://www.w3.org/2000/svg"
   xmlns:svg="http://www.w3.org/2000/svg"
   xmlns:rdf="http://www.w3.org/1999/02/22-rdf-syntax-ns#"
   xmlns:cc="http://creativecommons.org/ns#"
   xmlns:dc="http://purl.org/dc/elements/1.1/">
  <defs
     id="defs20295" />
  <sodipodi:namedview
     id="namedview20293"
     pagecolor="#505050"
     bordercolor="#eeeeee"
     borderopacity="1"
     inkscape:pageshadow="0"
     inkscape:pageopacity="0"
     inkscape:pagecheckerboard="0"
     inkscape:document-units="pt"
     showgrid="false"
     fit-margin-top="7"
     fit-margin-left="7"
     fit-margin-right="7"
     fit-margin-bottom="7"
     inkscape:zoom="1.516875"
     inkscape:cx="220.51916"
     inkscape:cy="235.68191"
     inkscape:window-width="1920"
     inkscape:window-height="1017"
     inkscape:window-x="-8"
     inkscape:window-y="-8"
     inkscape:window-maximized="1"
     inkscape:current-layer="svg548" />
  <g
     id="g1066"
     transform="translate(-46.273226,-31.050693)">
    <path
       id="path762"
       stroke-linejoin="bevel"
       d="m 53.75,166.25 208.75,52.5 C 318.33,162.92 370.42,137.08 430,107.5 L 213.75,55 c -57.08,24.583 -110.42,64.17 -160,111.25 z"
       fill-rule="evenodd"
       transform="translate(8.75,21.25)"
       stroke="#000000"
       stroke-width="3.75"
       fill="#e6e6e6" />
    <path
       id="path763"
       d="m 51.25,166.25 -2.5,191.25 208.75,61.25 c 0,0 5,-201.25 3.75,-201.25 -1.25,0 -212.5,-50 -210,-51.25 z"
       fill-rule="evenodd"
       transform="translate(8.75,21.25)"
       stroke="#000000"
       stroke-width="3.75"
       fill="#e6e6e6" />
    <path
       id="path764"
       stroke-linejoin="bevel"
       d="M 260,220 C 277.5,193.75 416.25,106.25 428.75,108.75 l -6.25,192.5 -165,120 z"
       fill-rule="evenodd"
       transform="translate(8.75,21.25)"
       stroke="#000000"
       stroke-width="3.75"
       fill="#cccccc" />
    <path
       id="path766"
       d="m 101.25,153.75 c 39.17,-13.33 97.08,-37.92 113.75,-55 l 123.75,35 c -33.75,18.75 -67.5,35 -87.5,63.75 -13.75,-5 -141.25,-38.75 -150,-43.75 z"
       transform="translate(8.75,21.25)"
       stroke="#000000"
       stroke-width="3.75"
       fill="none" />
    <path
       id="path767"
       d="m 213.75,98.75 60,-77.5 100,25 -35,87.5 z"
       fill-rule="evenodd"
       transform="translate(8.75,21.25)"
       stroke="#000000"
       stroke-width="3.75"
       fill="#ffffff" />
    <path
       id="path768"
       d="m 56.25,316.25 196.25,61.25 -1.25,35 -195,-58.75 c -2.5,-1.25 0,-32.5 0,-37.5 z"
       transform="translate(8.75,21.25)"
       stroke="#000000"
       stroke-width="3.75"
       fill="none" />
    <path
       id="path769"
       d="m 56.25,308.75 c 3.75,1.25 195,62.5 195,60 0,-2.5 1.25,-36.25 1.25,-37.5 L 57.5,272.5 Z"
       transform="translate(8.75,21.25)"
       stroke="#000000"
       stroke-width="3.75"
       fill="none" />
    <path
       id="path789"
       stroke="#000000"
       stroke-width="1pt"
       fill="none"
       d="m 66.944,371.5 5.386,-10 1.539,11.54 v 0.77" />
    <path
       id="path790"
       stroke="#000000"
       stroke-width="1pt"
       fill="none"
       d="m 69.666,366.35 c 1.54,0.77 2.901,0.95 2.901,0.95" />
    <path
       id="path791"
       stroke="#000000"
       stroke-width="1pt"
       fill="none"
       d="m 79.729,361.97 -3.67,6.45 3.67,0.48 -0.059,5.68" />
    <path
       id="path792"
       stroke="#000000"
       stroke-width="1pt"
       fill="none"
       d="m 70.139,318.11 -0.887,8.76 3.078,1.07" />
    <path
       id="path793"
       stroke="#000000"
       stroke-width="1pt"
       fill="none"
       d="m 74.638,319.94 c 0,0 -0.769,7.7 -0.769,8.47 0,0.77 4.617,1.6 4.617,1.6" />
    <path
       id="path794"
       stroke="#000000"
       stroke-width="1pt"
       fill="none"
       d="m 74.638,320.72 5.287,1.73" />
    <path
       id="path795"
       stroke="#000000"
       stroke-width="1pt"
       fill="none"
       d="m 73.869,324.86 4.951,1.54" />
    <path
       id="path796"
       stroke="#000000"
       stroke-width="1pt"
       fill="none"
       d="m 81.228,323.02 4.655,1.09" />
    <path
       id="path797"
       stroke="#000000"
       stroke-width="1pt"
       fill="none"
       d="m 83.261,323.81 -0.199,7.56" />
    <path
       id="path567"
       fill-rule="evenodd"
       fill-opacity="0.25"
       d="m 275.32,425.63 c 6.33,-1.58 143.98,-93.35 147.15,-107.59 3.16,-14.24 7.91,-177.22 6.33,-177.22 -1.58,0 20.57,196.2 -153.48,284.81 z" />
    <path
       id="path568"
       fill-rule="evenodd"
       fill-opacity="0.8"
       fill="#ffffff"
       d="m 68.038,278.48 c 3.164,-7.91 -1.582,-68.04 1.582,-71.2 3.165,-3.17 158.23,33.23 158.23,33.23 0,0 -147.15,-41.14 -159.81,37.97 z" />
    <path
       id="path569"
       fill-rule="evenodd"
       fill-opacity="0.24706"
       d="m 223.1,126.58 c 1.58,0 117.09,26.9 104.43,31.65 -12.66,4.75 -63.29,39.55 -63.29,39.55 0,0 98.1,-47.46 -41.14,-71.2 z" />
  </g>
  <rdf:RDF>
    <cc:Work
       rdf:about="">
      <dc:title>Clipart by Nicu Buculei - antenna</dc:title>
      <dc:rights>
        <cc:Agent>
          <dc:title>Nicu Buculei</dc:title>
        </cc:Agent>
      </dc:rights>
      <dc:type
         rdf:resource="http://purl.org/dc/dcmitype/StillImage" />
      <cc:license
         rdf:resource="http://web.resource.org/cc/PublicDomain" />
    </cc:Work>
    <cc:License
       rdf:about="http://web.resource.org/cc/PublicDomain">
      <cc:permits
         rdf:resource="http://web.resource.org/cc/Reproduction" />
      <cc:permits
         rdf:resource="http://web.resource.org/cc/Distribution" />
      <cc:permits
         rdf:resource="http://web.resource.org/cc/DerivativeWorks" />
    </cc:License>
  </rdf:RDF>
  <metadata
     id="metadata20290">
    <rdf:RDF>
      <cc:Work>
        <dc:format>image/svg+xml</dc:format>
        <dc:type
           rdf:resource="http://purl.org/dc/dcmitype/StillImage" />
        <cc:license
           rdf:resource="http://creativecommons.org/licenses/publicdomain/" />
        <dc:publisher>
          <cc:Agent
             rdf:about="http://openclipart.org/">
            <dc:title>Openclipart</dc:title>
          </cc:Agent>
        </dc:publisher>
        <dc:title>Laser printer</dc:title>
        <dc:date>2008-02-26T12:21:35</dc:date>
        <dc:description>A heavy duty laser printer</dc:description>
        <dc:source>http://openclipart.org/detail/14925/laser-printer-by-nicubunu</dc:source>
        <dc:creator>
          <cc:Agent>
            <dc:title>nicubunu</dc:title>
          </cc:Agent>
        </dc:creator>
        <dc:subject>
          <rdf:Bag>
            <rdf:li>clip art</rdf:li>
            <rdf:li>clipart</rdf:li>
            <rdf:li>computer</rdf:li>
            <rdf:li>hardware</rdf:li>
            <rdf:li>image</rdf:li>
            <rdf:li>media</rdf:li>
            <rdf:li>office</rdf:li>
            <rdf:li>png</rdf:li>
            <rdf:li>printer</rdf:li>
            <rdf:li>public domain</rdf:li>
            <rdf:li>svg</rdf:li>
          </rdf:Bag>
        </dc:subject>
      </cc:Work>
      <cc:License
         rdf:about="http://creativecommons.org/licenses/publicdomain/">
        <cc:permits
           rdf:resource="http://creativecommons.org/ns#Reproduction" />
        <cc:permits
           rdf:resource="http://creativecommons.org/ns#Distribution" />
        <cc:permits
           rdf:resource="http://creativecommons.org/ns#DerivativeWorks" />
      </cc:License>
    </rdf:RDF>
  </metadata>
</svg>
