<?xml version="1.0" encoding="UTF-8" standalone="no"?>
<svg
   viewBox="0 0 466.32744 211.93836"
   version="1.1"
   id="svg22544"
   sodipodi:docname="Storage_Device_Rack.svg"
   width="466.32745"
   height="211.93837"
   inkscape:version="1.1 (c68e22c387, 2021-05-23)"
   xmlns:inkscape="http://www.inkscape.org/namespaces/inkscape"
   xmlns:sodipodi="http://sodipodi.sourceforge.net/DTD/sodipodi-0.dtd"
   xmlns="http://www.w3.org/2000/svg"
   xmlns:svg="http://www.w3.org/2000/svg">
  <defs
     id="defs22548" />
  <sodipodi:namedview
     id="namedview22546"
     pagecolor="#505050"
     bordercolor="#eeeeee"
     borderopacity="1"
     inkscape:pageshadow="0"
     inkscape:pageopacity="0"
     inkscape:pagecheckerboard="true"
     showgrid="false"
     fit-margin-top="7"
     fit-margin-left="7"
     fit-margin-right="7"
     fit-margin-bottom="7"
     inkscape:zoom="1.5168845"
     inkscape:cx="239.63591"
     inkscape:cy="132.17882"
     inkscape:window-width="1920"
     inkscape:window-height="1017"
     inkscape:window-x="-8"
     inkscape:window-y="-8"
     inkscape:window-maximized="1"
     inkscape:current-layer="svg22544" />
  <g
     fill-rule="evenodd"
     id="g22512"
     transform="translate(-26.729234,-134.696)">
    <g
       stroke="#000000"
       id="g22504">
      <g
         stroke-linejoin="bevel"
         stroke-width="3.75"
         id="g22496">
        <path
           d="m 36.392,149.9 c 0,0 295.1,-6.329 296.68,-6.329 1.582,0 143.2,107.6 143.2,107.6 l -359.18,15.031 c 0,0 -80.696,-117.88 -80.696,-116.3 z"
           fill="#cccccc"
           id="path22490" />
        <path
           d="m 116.3,338.19 -79.905,-146.36 -0.7911,-41.931 81.487,115.51 c 3.1646,2.373 3.9557,68.829 -0.7911,72.785 h 10e-6 z"
           fill="#b3b3b3"
           id="path22492" />
        <path
           d="m 119.48,265.4 357.55,-15.032 c 0,0 7.1517,20.571 7.1517,35.602 0,17.405 -3.973,33.228 -4.7675,34.019 l -363.9,17.405 c 4.7674,-11.868 4.7672,-24.526 3.9727,-71.994 h 10e-6 z"
           fill="#cccccc"
           id="path22494" />
      </g>
      <g
         fill="#b3b3b3"
         stroke-width="1.25"
         id="g22502">
        <path
           d="m 449.37,296.26 14.241,-0.792 v 11.867 l -14.241,0.792 z"
           id="path22498" />
        <path
           d="m 443.83,266.2 c 0.79098,0 22.152,-0.79102 22.152,-0.79102 v 15.823 l -22.152,0.791 v -15.823 z"
           id="path22500" />
      </g>
    </g>
    <g
       stroke-width="1.25"
       id="g22510">
      <path
         d="m 228.1,151.94 c 0,0 93.604,-1.817 100.88,-0.909 7.27,0.909 74.52,57.253 74.52,57.253 0,0 -58.162,-58.162 -175.4,-56.344 z"
         fill-opacity="0.252"
         id="path22506" />
      <path
         d="m 94.513,243.72 c 0,0 17.267,22.719 18.176,28.172 0.909,5.453 2.726,51.801 2.726,51.801 0,0 -3.635,-48.166 -20.902,-79.973 z"
         fill="#ffffff"
         fill-opacity="0.498"
         id="path22508" />
    </g>
  </g>
  <g
     fill="none"
     stroke="#000000"
     stroke-width="5"
     id="g22542"
     transform="translate(-26.729234,-134.696)">
    <line
       x1="137.33"
       x2="136"
       y1="270"
       y2="332.32999"
       id="line22514" />
    <line
       x1="135.67"
       x2="429"
       y1="272"
       y2="260"
       id="line22516" />
    <g
       stroke-dasharray="none"
       stroke-linecap="null"
       stroke-linejoin="null"
       id="g22540">
      <line
         x1="135.67"
         x2="427.32999"
         y1="329.67001"
         y2="315.67001"
         id="line22518" />
      <line
         x1="426.67001"
         x2="426.32999"
         y1="260"
         y2="318"
         id="line22520" />
      <line
         x1="165.33"
         x2="164.33"
         y1="273"
         y2="328.32999"
         id="line22522" />
      <line
         x1="194.33"
         x2="193.33"
         y1="271.32999"
         y2="326"
         id="line22524" />
      <line
         x1="223.33"
         x2="223"
         y1="269.67001"
         y2="324.67001"
         id="line22526" />
      <line
         x1="252"
         x2="251.33"
         y1="268.32999"
         y2="324.32999"
         id="line22528" />
      <line
         x1="281"
         x2="280.67001"
         y1="267.32999"
         y2="320.67001"
         id="line22530" />
      <line
         x1="310.67001"
         x2="310.67001"
         y1="266.67001"
         y2="320.67001"
         id="line22532" />
      <line
         x1="398.67001"
         x2="398"
         y1="263"
         y2="316.67001"
         id="line22534" />
      <line
         x1="369"
         x2="368.32999"
         y1="264"
         y2="318"
         id="line22536" />
      <line
         x1="340.32999"
         x2="339.67001"
         y1="264.32999"
         y2="319.67001"
         id="line22538" />
    </g>
  </g>
</svg>
