<?xml version="1.0" encoding="UTF-8" standalone="no"?>
<!-- Generator: Adobe Illustrator 16.0.0, SVG Export Plug-In . SVG Version: 6.00 Build 0)  -->

<svg
   version="1.1"
   id="Capa_1"
   x="0px"
   y="0px"
   width="345.324px"
   height="345.324px"
   viewBox="0 0 345.324 345.324"
   style="enable-background:new 0 0 345.324 345.324;"
   xml:space="preserve"
   sodipodi:docname="Storage_Device_Cube.svg"
   inkscape:version="1.1 (c68e22c387, 2021-05-23)"
   xmlns:inkscape="http://www.inkscape.org/namespaces/inkscape"
   xmlns:sodipodi="http://sodipodi.sourceforge.net/DTD/sodipodi-0.dtd"
   xmlns="http://www.w3.org/2000/svg"
   xmlns:svg="http://www.w3.org/2000/svg"><defs
   id="defs21664" /><sodipodi:namedview
   id="namedview21662"
   pagecolor="#505050"
   bordercolor="#eeeeee"
   borderopacity="1"
   inkscape:pageshadow="0"
   inkscape:pageopacity="0"
   inkscape:pagecheckerboard="true"
   showgrid="false"
   inkscape:zoom="2.3427274"
   inkscape:cx="172.662"
   inkscape:cy="172.662"
   inkscape:window-width="1920"
   inkscape:window-height="1017"
   inkscape:window-x="-8"
   inkscape:window-y="-8"
   inkscape:window-maximized="1"
   inkscape:current-layer="Capa_1" />
<g
   id="g21629">
	<g
   id="g21627">
		<g
   id="g21609">
			<path
   d="M64.404,166.285h44.763v-44.763H64.404V166.285z M87.487,134.078c5.908,0,10.736,4.819,10.736,10.737     c0,5.915-4.828,10.733-10.736,10.733c-5.921,0-10.737-4.813-10.737-10.733C76.756,138.897,81.572,134.078,87.487,134.078z"
   id="path21607" />
		</g>
		<g
   id="g21613">
			<rect
   x="165.486"
   y="134.078"
   width="24.908"
   height="139.645"
   id="rect21611" />
		</g>
		<g
   id="g21617">
			<rect
   x="211.309"
   y="134.078"
   width="24.908"
   height="139.645"
   id="rect21615" />
		</g>
		<g
   id="g21621">
			<path
   d="M317.372,71.316c-0.03-0.234,0.012-0.469-0.078-0.676L292.409,2.354C291.894,0.937,290.536,0,289.035,0H66.963     c-1.327,0-2.559,0.739-3.174,1.925L28.211,70.208c-0.177,0.346-0.189,0.727-0.252,1.108c-0.669,0.651-1.105,1.549-1.105,2.563     v267.877c0,1.97,1.609,3.567,3.585,3.567h284.459c1.981,0,3.573-1.598,3.573-3.567V73.886     C318.471,72.865,318.05,71.974,317.372,71.316z M87.487,194.231c-2.564,0-4.642-2.096-4.642-4.654     c0-2.558,2.072-4.629,4.642-4.629c2.558,0,4.642,2.071,4.642,4.629C92.129,192.136,90.045,194.231,87.487,194.231z      M116.325,169.87c0,1.976-1.604,3.572-3.585,3.572H60.826c-1.979,0-3.585-1.597-3.585-3.572v-51.933     c0-1.976,1.597-3.579,3.585-3.579h51.915c1.981,0,3.585,1.598,3.585,3.579V169.87z M197.563,280.881h-39.241V126.915h39.241     V280.881z M243.374,280.881H204.14V126.915h39.234V280.881z M288.969,280.881h-39.241V126.915h39.241V280.881z M37.293,70.067     L69.146,7.158h217.392l22.277,62.909H37.293z"
   id="path21619" />
		</g>
		<g
   id="g21625">
			<rect
   x="256.886"
   y="134.078"
   width="24.913"
   height="139.645"
   id="rect21623" />
		</g>
	</g>
</g>
<g
   id="g21631">
</g>
<g
   id="g21633">
</g>
<g
   id="g21635">
</g>
<g
   id="g21637">
</g>
<g
   id="g21639">
</g>
<g
   id="g21641">
</g>
<g
   id="g21643">
</g>
<g
   id="g21645">
</g>
<g
   id="g21647">
</g>
<g
   id="g21649">
</g>
<g
   id="g21651">
</g>
<g
   id="g21653">
</g>
<g
   id="g21655">
</g>
<g
   id="g21657">
</g>
<g
   id="g21659">
</g>
</svg>
