<?xml version="1.0" encoding="UTF-8" standalone="no"?>
<!-- Created with Inkscape (http://www.inkscape.org/) -->

<svg
   width="70.826408mm"
   height="61.412437mm"
   viewBox="0 0 70.826408 61.412437"
   version="1.1"
   id="svg5"
   inkscape:version="1.1 (c68e22c387, 2021-05-23)"
   sodipodi:docname="UPS_icon.svg"
   xmlns:inkscape="http://www.inkscape.org/namespaces/inkscape"
   xmlns:sodipodi="http://sodipodi.sourceforge.net/DTD/sodipodi-0.dtd"
   xmlns="http://www.w3.org/2000/svg"
   xmlns:svg="http://www.w3.org/2000/svg">
  <sodipodi:namedview
     id="namedview7"
     pagecolor="#505050"
     bordercolor="#eeeeee"
     borderopacity="1"
     inkscape:pageshadow="0"
     inkscape:pageopacity="0"
     inkscape:pagecheckerboard="0"
     inkscape:document-units="mm"
     showgrid="false"
     inkscape:zoom="2.9647587"
     inkscape:cx="215.86917"
     inkscape:cy="107.42864"
     inkscape:window-width="1920"
     inkscape:window-height="1017"
     inkscape:window-x="-8"
     inkscape:window-y="-8"
     inkscape:window-maximized="1"
     inkscape:current-layer="layer1" />
  <defs
     id="defs2">
    <inkscape:path-effect
       effect="powerclip"
       id="path-effect3458"
       is_visible="true"
       lpeversion="1"
       inverse="true"
       flatten="false"
       hide_clip="false"
       message="Use fill-rule evenodd on &lt;b&gt;fill and stroke&lt;/b&gt; dialog if no flatten result after convert clip to paths." />
    <linearGradient
       id="linearGradient1955"
       inkscape:swatch="solid">
      <stop
         style="stop-color:#000000;stop-opacity:1;"
         offset="0"
         id="stop1953" />
    </linearGradient>
    <clipPath
       clipPathUnits="userSpaceOnUse"
       id="clipPath3454">
      <path
         id="path3456"
         style="display:none;fill:#ffffff;stroke-width:3.46501"
         d="m 64.447326,132.98817 h 10.441411 c 0.17304,0 0.312348,0.13931 0.312348,0.31235 v 10.4414 c 0,0.17305 -0.139308,0.31235 -0.312348,0.31235 H 64.447326 c -0.17304,0 -0.312349,-0.1393 -0.312349,-0.31235 v -10.4414 c 0,-0.17304 0.139309,-0.31235 0.312349,-0.31235 z m -22.161108,0 h 10.441408 c 0.17304,0 0.312348,0.13931 0.312348,0.31235 v 10.4414 c 0,0.17305 -0.139308,0.31235 -0.312348,0.31235 H 42.286218 c -0.173043,0 -0.312349,-0.1393 -0.312349,-0.31235 v -10.4414 c 0,-0.17304 0.139306,-0.31235 0.312349,-0.31235 z m 22.161103,-17.26219 h 10.441405 c 0.173043,0 0.312351,0.13931 0.312351,0.31235 v 10.44141 c 0,0.17304 -0.139308,0.31235 -0.312351,0.31235 H 64.447321 c -0.173043,0 -0.312351,-0.13931 -0.312351,-0.31235 v -10.44141 c 0,-0.17304 0.139308,-0.31235 0.312351,-0.31235 z m -22.161109,0 h 10.441409 c 0.173042,0 0.312351,0.13931 0.312351,0.31235 v 10.44141 c 0,0.17304 -0.139309,0.31235 -0.312351,0.31235 H 42.286212 c -0.17304,0 -0.312348,-0.13931 -0.312348,-0.31235 v -10.44141 c 0,-0.17304 0.139308,-0.31235 0.312348,-0.31235 z m 59.531688,-4.58285 h 7.54698 c 0.17304,0 0.31235,0.13931 0.31235,0.31235 0,0.17305 -0.13931,0.31235 -0.31235,0.31235 h -7.54698 c -0.17305,0 -0.31235,-0.1393 -0.31235,-0.31235 0,-0.17304 0.1393,-0.31235 0.31235,-0.31235 z m 0.15257,1.40274 h 7.19001 c 0.14832,0 0.26773,0.1194 0.26773,0.26773 0,0.14832 -0.11941,0.26772 -0.26773,0.26772 h -7.19001 c -0.14832,0 -0.26773,-0.1194 -0.26773,-0.26772 0,-0.14833 0.11941,-0.26773 0.26773,-0.26773 z m -0.45912,-2.84319 h 8.29958 c 0.17304,0 0.31235,0.13931 0.31235,0.31235 0,0.17304 -0.13931,0.31235 -0.31235,0.31235 h -8.29958 c -0.17304,0 -0.31235,-0.13931 -0.31235,-0.31235 0,-0.17304 0.13931,-0.31235 0.31235,-0.31235 z M 70.545758,97.711511 h 1.769038 c 0.226862,0 0.409501,0.182637 0.409501,0.409501 v 8.373008 c 0,0.22686 -0.182639,0.4095 -0.409501,0.4095 h -1.769038 c -0.226865,0 -0.409501,-0.18264 -0.409501,-0.4095 v -8.373008 c 0,-0.226864 0.182636,-0.409501 0.409501,-0.409501 z M 48.018476,95.372322 h 21.64455 c 0.209243,0 0.377695,0.168452 0.377695,0.377695 v 12.988003 c 0,0.20924 -0.168452,0.37769 -0.377695,0.37769 h -21.64455 c -0.209245,0 -0.377698,-0.16845 -0.377698,-0.37769 V 95.750017 c 0,-0.209243 0.168453,-0.377695 0.377698,-0.377695 z" />
      <path
         id="lpe_path-effect3458"
         style="fill:#ffffff;stroke-width:3.46501"
         class="powerclip"
         d="M 30.555161,84.229385 H 118.17516 V 155.64182 H 30.555161 Z m 33.892165,48.758785 c -0.17304,0 -0.312349,0.13931 -0.312349,0.31235 v 10.4414 c 0,0.17305 0.139309,0.31235 0.312349,0.31235 h 10.441411 c 0.17304,0 0.312348,-0.1393 0.312348,-0.31235 v -10.4414 c 0,-0.17304 -0.139308,-0.31235 -0.312348,-0.31235 z m -22.161108,0 c -0.173043,0 -0.312349,0.13931 -0.312349,0.31235 v 10.4414 c 0,0.17305 0.139306,0.31235 0.312349,0.31235 h 10.441408 c 0.17304,0 0.312348,-0.1393 0.312348,-0.31235 v -10.4414 c 0,-0.17304 -0.139308,-0.31235 -0.312348,-0.31235 z m 22.161103,-17.26219 c -0.173043,0 -0.312351,0.13931 -0.312351,0.31235 v 10.44141 c 0,0.17304 0.139308,0.31235 0.312351,0.31235 h 10.441405 c 0.173043,0 0.312351,-0.13931 0.312351,-0.31235 v -10.44141 c 0,-0.17304 -0.139308,-0.31235 -0.312351,-0.31235 z m -22.161109,0 c -0.17304,0 -0.312348,0.13931 -0.312348,0.31235 v 10.44141 c 0,0.17304 0.139308,0.31235 0.312348,0.31235 h 10.441409 c 0.173042,0 0.312351,-0.13931 0.312351,-0.31235 v -10.44141 c 0,-0.17304 -0.139309,-0.31235 -0.312351,-0.31235 z m 59.531688,-4.58285 c -0.17305,0 -0.31235,0.13931 -0.31235,0.31235 0,0.17305 0.1393,0.31235 0.31235,0.31235 h 7.54698 c 0.17304,0 0.31235,-0.1393 0.31235,-0.31235 0,-0.17304 -0.13931,-0.31235 -0.31235,-0.31235 z m 0.15257,1.40274 c -0.14832,0 -0.26773,0.1194 -0.26773,0.26773 0,0.14832 0.11941,0.26772 0.26773,0.26772 h 7.19001 c 0.14832,0 0.26773,-0.1194 0.26773,-0.26772 0,-0.14833 -0.11941,-0.26773 -0.26773,-0.26773 z m -0.45912,-2.84319 c -0.17304,0 -0.31235,0.13931 -0.31235,0.31235 0,0.17304 0.13931,0.31235 0.31235,0.31235 h 8.29958 c 0.17304,0 0.31235,-0.13931 0.31235,-0.31235 0,-0.17304 -0.13931,-0.31235 -0.31235,-0.31235 z M 70.545758,97.711511 c -0.226865,0 -0.409501,0.182637 -0.409501,0.409501 v 8.373008 c 0,0.22686 0.182636,0.4095 0.409501,0.4095 h 1.769038 c 0.226862,0 0.409501,-0.18264 0.409501,-0.4095 v -8.373008 c 0,-0.226864 -0.182639,-0.409501 -0.409501,-0.409501 z M 48.018476,95.372322 c -0.209245,0 -0.377698,0.168452 -0.377698,0.377695 v 12.988003 c 0,0.20924 0.168453,0.37769 0.377698,0.37769 h 21.64455 c 0.209243,0 0.377695,-0.16845 0.377695,-0.37769 V 95.750017 c 0,-0.209243 -0.168452,-0.377695 -0.377695,-0.377695 z" />
    </clipPath>
  </defs>
  <g
     inkscape:label="Layer 1"
     inkscape:groupmode="layer"
     id="layer1"
     transform="translate(-0.4812058,-0.59313568)">
    <g
       id="g4793"
       transform="matrix(0.91669203,0,0,1,-33.838412,-79.9354)">
      <g
         id="g3150"
         transform="matrix(0.99540104,0,0,1,2.0469034,-8.7008497)"
         clip-path="url(#clipPath3454)"
         inkscape:path-effect="#path-effect3458">
        <path
           style="fill:#000000;fill-rule:evenodd;stroke-width:0.34314"
           id="rect31"
           width="47.262142"
           height="61.412437"
           x="35.555161"
           y="89.229385"
           ry="10.02652"
           sodipodi:type="rect"
           d="m 45.58168,89.229385 h 27.209103 c 5.554692,0 10.02652,4.471828 10.02652,10.02652 V 140.6153 c 0,5.55469 -4.471828,10.02652 -10.02652,10.02652 H 45.58168 c -5.554692,0 -10.026519,-4.47183 -10.026519,-10.02652 V 99.255905 c 0,-5.554692 4.471827,-10.02652 10.026519,-10.02652 z" />
        <path
           style="fill:none;stroke:#000000;stroke-width:3.44886;stroke-linecap:butt;stroke-linejoin:miter;stroke-miterlimit:4;stroke-dasharray:none;stroke-opacity:1"
           d="m 81.515251,138.82872 c 28.555419,19.25799 24.228839,-23.05124 24.228839,-23.05124 v 0"
           id="path855"
           inkscape:original-d="m 81.515251,138.82872 c 28.555419,19.25799 24.228839,-23.05124 24.228839,-23.05124 v 0" />
        <path
           style="fill:#000000;stroke-width:3.46501;stroke-miterlimit:4;stroke-dasharray:none"
           id="path959"
           sodipodi:type="arc"
           sodipodi:cx="105.61273"
           sodipodi:cy="106.50131"
           sodipodi:rx="6.330132"
           sodipodi:ry="10.228243"
           sodipodi:start="0"
           sodipodi:end="3.1497655"
           sodipodi:open="true"
           sodipodi:arc-type="arc"
           d="m 111.94286,106.50131 a 6.330132,10.228243 0 0 1 -3.18001,8.87182 6.330132,10.228243 0 0 1 -6.34501,-0.0419 6.330132,10.228243 0 0 1 -3.135029,-8.91351" />
        <path
           style="fill:#000000;stroke-width:2.77945;stroke-miterlimit:4;stroke-dasharray:none"
           id="rect1063"
           width="1.8357702"
           height="6.1965609"
           x="101.05487"
           y="99.626518"
           ry="0.46599755"
           sodipodi:type="rect"
           d="m 101.52087,99.626518 h 0.90377 c 0.25817,0 0.466,0.207835 0.466,0.466002 v 5.26456 c 0,0.25816 -0.20783,0.466 -0.466,0.466 h -0.90377 c -0.25816,0 -0.466,-0.20784 -0.466,-0.466 v -5.26456 c 0,-0.258167 0.20784,-0.466002 0.466,-0.466002 z" />
        <path
           style="fill:#000000;stroke-width:2.76891;stroke-miterlimit:4;stroke-dasharray:none"
           id="rect1063-7"
           width="1.7911488"
           height="6.3028002"
           x="108.67573"
           y="99.520264"
           ry="0.55430722"
           sodipodi:type="rect"
           d="m 109.23004,99.520264 h 0.68253 c 0.30709,0 0.55431,0.247221 0.55431,0.554306 v 5.19419 c 0,0.30708 -0.24722,0.5543 -0.55431,0.5543 h -0.68253 c -0.30709,0 -0.55431,-0.24722 -0.55431,-0.5543 v -5.19419 c 0,-0.307085 0.24722,-0.554306 0.55431,-0.554306 z" />
        <path
           style="fill:#000000;stroke-width:3.98162;stroke-miterlimit:4;stroke-dasharray:none"
           id="rect1063-1"
           width="2.5943339"
           height="8.9978771"
           x="104.58942"
           y="97.131256"
           ry="1.8105483"
           sodipodi:type="rect"
           d="m 105.88658,97.131256 c 0.71863,0 1.29717,0.807505 1.29717,1.810548 v 5.376776 c 0,1.00305 -0.57854,1.81055 -1.29717,1.81055 -0.71863,0 -1.29716,-0.8075 -1.29716,-1.81055 v -5.376776 c 0,-1.003043 0.57853,-1.810548 1.29716,-1.810548 z" />
        <path
           style="fill:#000000;stroke-width:4.73062;stroke-miterlimit:4;stroke-dasharray:none"
           id="rect1406"
           width="15.007469"
           height="1.2908494"
           x="98.167694"
           y="104.98926"
           ry="0.37769553"
           sodipodi:type="rect"
           d="m 98.54539,104.98926 h 14.25208 c 0.20924,0 0.37769,0.16845 0.37769,0.37769 v 0.53546 c 0,0.20925 -0.16845,0.3777 -0.37769,0.3777 H 98.54539 c -0.209244,0 -0.377696,-0.16845 -0.377696,-0.3777 v -0.53546 c 0,-0.20924 0.168452,-0.37769 0.377696,-0.37769 z" />
      </g>
      <g
         id="g3131"
         transform="translate(3.6589544,17.759315)" />
      <g
         id="g2235"
         transform="translate(5.1886615,-7.5026843)">
        <g
           id="g2217" />
      </g>
      <rect
         style="fill:#000000;fill-opacity:1;stroke-width:3.46501;stroke-miterlimit:4;stroke-dasharray:none"
         id="rect3506"
         width="4.1944108"
         height="11.51232"
         x="50.422176"
         y="87.804077"
         ry="0.31234854" />
      <rect
         style="fill:#000000;fill-opacity:1;stroke-width:3.46501;stroke-miterlimit:4;stroke-dasharray:none"
         id="rect3506-4"
         width="4.1944108"
         height="11.51232"
         x="55.674923"
         y="87.804077"
         ry="0.31234854" />
      <rect
         style="fill:#000000;fill-opacity:1;stroke-width:3.46501;stroke-miterlimit:4;stroke-dasharray:none"
         id="rect3506-5"
         width="4.1944108"
         height="11.51232"
         x="60.92767"
         y="87.804077"
         ry="0.31234854" />
      <path
         id="rect4472"
         style="stroke-width:2.12323"
         d="M 50.203981,114.37957 H 48.29777 v 1.23884 h 1.906211 z m -0.0096,0.008 a 0.97620103,1.0699575 0 0 0 -0.945509,-0.82008 0.97620103,1.0699575 0 0 0 -0.951154,0.8122 m 2.09978,-4.64154 h 0.929201 c 0.0887,0 0.160099,0.0714 0.160099,0.1601 v 2.34139 c 0,0.0887 -0.0714,0.1601 -0.160099,0.1601 h -0.929201 c -0.08869,0 -0.160099,-0.0714 -0.160099,-0.1601 v -2.34139 c 0,-0.0887 0.0714,-0.1601 0.160099,-0.1601 z m -3.455802,-0.23096 h 0.981675 c 0.07416,0 0.133862,0.0597 0.133862,0.13387 v 2.85577 c 0,0.0742 -0.0597,0.13386 -0.133862,0.13386 h -0.981675 c -0.07416,0 -0.133862,-0.0597 -0.133862,-0.13386 v -2.85577 c 0,-0.0742 0.0597,-0.13387 0.133862,-0.13387 z" />
      <path
         id="rect4472-0"
         style="stroke-width:2.12323"
         d="m 72.419006,131.57578 h -1.906211 v 1.23884 h 1.906211 z m -0.0096,0.008 a 0.97620103,1.0699575 0 0 0 -0.945509,-0.82008 0.97620103,1.0699575 0 0 0 -0.951154,0.8122 m 2.09978,-4.64154 h 0.929201 c 0.0887,0 0.160099,0.0714 0.160099,0.1601 v 2.34139 c 0,0.0887 -0.0714,0.1601 -0.160099,0.1601 h -0.929201 c -0.08869,0 -0.160099,-0.0714 -0.160099,-0.1601 v -2.34139 c 0,-0.0887 0.0714,-0.1601 0.160099,-0.1601 z m -3.455802,-0.23096 h 0.981675 c 0.07416,0 0.133862,0.0597 0.133862,0.13387 v 2.85577 c 0,0.0742 -0.0597,0.13386 -0.133862,0.13386 h -0.981675 c -0.07416,0 -0.133862,-0.0597 -0.133862,-0.13386 v -2.85577 c 0,-0.0742 0.0597,-0.13387 0.133862,-0.13387 z" />
      <path
         id="rect4472-3"
         style="stroke-width:2.12323"
         d="M 50.203981,131.57578 H 48.29777 v 1.23884 h 1.906211 z m -0.0096,0.008 a 0.97620103,1.0699575 0 0 0 -0.945509,-0.82008 0.97620103,1.0699575 0 0 0 -0.951154,0.8122 m 2.09978,-4.64154 h 0.929201 c 0.0887,0 0.160099,0.0714 0.160099,0.1601 v 2.34139 c 0,0.0887 -0.0714,0.1601 -0.160099,0.1601 h -0.929201 c -0.08869,0 -0.160099,-0.0714 -0.160099,-0.1601 v -2.34139 c 0,-0.0887 0.0714,-0.1601 0.160099,-0.1601 z m -3.455802,-0.23096 h 0.981675 c 0.07416,0 0.133862,0.0597 0.133862,0.13387 v 2.85577 c 0,0.0742 -0.0597,0.13386 -0.133862,0.13386 h -0.981675 c -0.07416,0 -0.133862,-0.0597 -0.133862,-0.13386 v -2.85577 c 0,-0.0742 0.0597,-0.13387 0.133862,-0.13387 z" />
      <path
         id="rect4472-0-4"
         style="stroke-width:2.12323"
         d="m 72.419006,114.37957 h -1.906211 v 1.23884 h 1.906211 z m -0.0096,0.008 a 0.97620103,1.0699575 0 0 0 -0.945509,-0.82008 0.97620103,1.0699575 0 0 0 -0.951154,0.8122 m 2.09978,-4.64154 h 0.929201 c 0.0887,0 0.160099,0.0714 0.160099,0.1601 v 2.34139 c 0,0.0887 -0.0714,0.1601 -0.160099,0.1601 h -0.929201 c -0.08869,0 -0.160099,-0.0714 -0.160099,-0.1601 v -2.34139 c 0,-0.0887 0.0714,-0.1601 0.160099,-0.1601 z m -3.455802,-0.23096 h 0.981675 c 0.07416,0 0.133862,0.0597 0.133862,0.13387 v 2.85577 c 0,0.0742 -0.0597,0.13386 -0.133862,0.13386 h -0.981675 c -0.07416,0 -0.133862,-0.0597 -0.133862,-0.13386 v -2.85577 c 0,-0.0742 0.0597,-0.13387 0.133862,-0.13387 z" />
    </g>
  </g>
</svg>
