<?xml version="1.0" encoding="UTF-8" standalone="no"?>
<!-- Generator: Adobe Illustrator 18.1.1, SVG Export Plug-In . SVG Version: 6.00 Build 0)  -->

<svg
   version="1.1"
   id="Capa_1"
   x="0px"
   y="0px"
   viewBox="0 0 337.61401 233.826"
   xml:space="preserve"
   sodipodi:docname="Voice_Router.svg"
   width="337.61401"
   height="233.826"
   inkscape:version="1.1 (c68e22c387, 2021-05-23)"
   xmlns:inkscape="http://www.inkscape.org/namespaces/inkscape"
   xmlns:sodipodi="http://sodipodi.sourceforge.net/DTD/sodipodi-0.dtd"
   xmlns="http://www.w3.org/2000/svg"
   xmlns:svg="http://www.w3.org/2000/svg"><defs
   id="defs22100" /><sodipodi:namedview
   id="namedview22098"
   pagecolor="#505050"
   bordercolor="#eeeeee"
   borderopacity="1"
   inkscape:pageshadow="0"
   inkscape:pageopacity="0"
   inkscape:pagecheckerboard="true"
   showgrid="false"
   fit-margin-top="7"
   fit-margin-left="7"
   fit-margin-right="7"
   fit-margin-bottom="7"
   inkscape:zoom="2.4998996"
   inkscape:cx="168.60677"
   inkscape:cy="117.0047"
   inkscape:window-width="1920"
   inkscape:window-height="1017"
   inkscape:window-x="-8"
   inkscape:window-y="-8"
   inkscape:window-maximized="1"
   inkscape:current-layer="Capa_1" />
<g
   id="g22065"
   transform="translate(7,-44.894)">
	<g
   id="g22063">
		<g
   id="g22035">
			<rect
   x="61.341999"
   y="180.17999"
   style="fill:#010002"
   width="54.478001"
   height="7.539"
   id="rect22033" />
		</g>
		<g
   id="g22057">
			<g
   id="g22039">
				<path
   style="fill:#010002"
   d="M 254.804,51.894 H 73.862 L 45.248,168.149 v 3.296 41.826 h 232.118 v -41.826 -3.519 z M 108.803,87.362 c 0.288,-1.583 0.925,-3.166 1.942,-4.808 1.11,-1.73 2.594,-3.356 4.362,-4.748 l -0.141,-0.082 5.292,-3.285 c 3.883,-2.393 10.079,-2.458 13.81,-0.158 l 18.797,11.574 c 3.737,2.301 3.617,6.119 -0.25,8.512 l -3.127,1.925 -6.347,3.905 c 0.326,0.364 0.658,0.74 1.012,1.126 3.312,3.688 7.859,8.735 16.497,14.06 8.61,5.303 16.79,8.099 22.768,10.144 0.647,0.223 1.273,0.441 1.866,0.636 l 9.475,-5.831 c 3.873,-2.382 10.079,-2.458 13.81,-0.169 l 18.787,11.574 c 3.737,2.312 3.617,6.124 -0.256,8.512 l -5.357,3.236 -0.114,-0.054 c -2.268,1.093 -4.873,2.002 -7.664,2.676 -2.605,0.62 -5.162,1.017 -7.832,1.218 -1.229,0.082 -29.643,1.724 -64.904,-20.005 -25.502,-15.7 -34.901,-27.285 -32.426,-39.958 z M 271.464,207.381 H 51.133 v -35.93 h 220.331 z"
   id="path22037" />
			</g>
			<g
   id="g22043">
				<path
   style="fill:#010002"
   d="m 242.62,198.189 c 5.782,0 10.476,-4.705 10.476,-10.476 0,-5.782 -4.694,-10.487 -10.476,-10.487 -5.782,0 -10.476,4.705 -10.476,10.487 0.006,5.771 4.7,10.476 10.476,10.476 z m 0,-15.067 c 2.529,0 4.591,2.061 4.591,4.596 0,2.524 -2.061,4.58 -4.591,4.58 -2.524,0 -4.591,-2.056 -4.591,-4.58 0.006,-2.534 2.073,-4.596 4.591,-4.596 z"
   id="path22041" />
			</g>
			<g
   id="g22047">
				<circle
   style="fill:#010002"
   cx="136.95"
   cy="190.813"
   r="4.9060001"
   id="circle22045" />
			</g>
			<g
   id="g22051">
				<path
   style="fill:#010002"
   d="m 151.674,195.719 c 2.709,0 4.911,-2.181 4.911,-4.89 0,-2.714 -2.203,-4.917 -4.911,-4.917 -2.709,0.001 -2.709,9.807 0,9.807 z"
   id="path22049" />
			</g>
			<g
   id="g22055">
				<circle
   style="fill:#010002"
   cx="164.87399"
   cy="190.813"
   r="4.9060001"
   id="circle22053" />
			</g>
		</g>
		<g
   id="g22061">
			<path
   style="fill:#010002"
   d="M 323.613,255.304 H 184.847 c -1.354,-6.005 -6.712,-10.535 -13.13,-10.535 h -7.446 v -29.964 h -5.891 v 29.964 h -7.452 c -6.407,0 -11.776,4.525 -13.124,10.535 H 0 v 5.891 h 137.81 c 1.354,6.01 6.717,10.525 13.124,10.525 h 20.783 c 6.418,0 11.776,-4.509 13.13,-10.525 h 138.767 v -5.891 z m -151.896,10.53 h -20.783 c -4.183,0 -7.587,-3.405 -7.587,-7.587 0,-4.182 3.405,-7.582 7.587,-7.582 h 20.783 c 4.194,0 7.587,3.399 7.587,7.582 0,4.183 -3.394,7.587 -7.587,7.587 z"
   id="path22059" />
		</g>
	</g>
</g>
<g
   id="g22067"
   transform="translate(7,-44.894)">
</g>
<g
   id="g22069"
   transform="translate(7,-44.894)">
</g>
<g
   id="g22071"
   transform="translate(7,-44.894)">
</g>
<g
   id="g22073"
   transform="translate(7,-44.894)">
</g>
<g
   id="g22075"
   transform="translate(7,-44.894)">
</g>
<g
   id="g22077"
   transform="translate(7,-44.894)">
</g>
<g
   id="g22079"
   transform="translate(7,-44.894)">
</g>
<g
   id="g22081"
   transform="translate(7,-44.894)">
</g>
<g
   id="g22083"
   transform="translate(7,-44.894)">
</g>
<g
   id="g22085"
   transform="translate(7,-44.894)">
</g>
<g
   id="g22087"
   transform="translate(7,-44.894)">
</g>
<g
   id="g22089"
   transform="translate(7,-44.894)">
</g>
<g
   id="g22091"
   transform="translate(7,-44.894)">
</g>
<g
   id="g22093"
   transform="translate(7,-44.894)">
</g>
<g
   id="g22095"
   transform="translate(7,-44.894)">
</g>
</svg>
